<svg viewBox="0 0 512 512" xmlns="http://www.w3.org/2000/svg"><g fill="none"><path d="M479 182.3L479 166.2 444.2 166.2C346.9 166.2 301.8 190.2 263.1 234.8 260.9 234.1 258.5 233.6 256 233.6 243 233.6 232.5 243.9 232.5 256.7 232.5 260.9 233.8 264.9 235.8 268.3 227.2 278.2 218.3 287 208.5 294.5L208.5 228.4C217.4 225.1 223.7 216.7 223.7 206.8 223.7 194.1 213.2 183.7 200.2 183.7 187.3 183.7 176.8 194.1 176.8 206.8 176.8 216.7 183.1 225.1 192 228.4L192 305.6C177.1 314.2 159.8 320.5 138.8 324.7L138.8 202.7C147.7 199.4 154 191 154 181.1 154 168.3 143.5 158 130.6 158 117.6 158 107.1 168.3 107.1 181.1 107.1 191 113.4 199.4 122.3 202.7L122.3 327.4C106.7 329.5 89.1 330.6 69.1 330.7L69.1 190.7C78 187.4 84.3 179 84.3 169.1 84.3 156.3 73.8 146 60.9 146 47.9 146 37.4 156.3 37.4 169.1 37.4 179 43.8 187.4 52.7 190.7L52.7 330.7 33 330.7 33 346.9 67.8 346.9C164.9 346.9 210 322.9 248.6 278.5 250.9 279.3 253.4 279.8 256 279.8 269 279.8 279.5 269.4 279.5 256.7 279.5 252.3 278.2 248.3 276 244.8 284.7 234.8 293.7 226.1 303.5 218.5L303.5 284.6C294.6 287.9 288.3 296.3 288.3 306.2 288.3 318.9 298.8 329.3 311.7 329.3 324.7 329.3 335.2 318.9 335.2 306.2 335.2 296.3 328.9 287.9 320 284.6L320 207.4C334.9 198.8 352.2 192.5 373.2 188.3L373.2 311.4C364.3 314.7 358 323 358 332.9 358 345.7 368.5 356 381.4 356 394.4 356 404.9 345.7 404.9 332.9 404.9 323 398.5 314.7 389.6 311.4L389.6 185.6C405.3 183.5 422.9 182.4 442.9 182.3L442.9 322.3C434 325.6 427.6 334 427.6 343.9 427.6 356.7 438.2 367 451.1 367 464.1 367 474.6 356.7 474.6 343.9 474.6 334 468.2 325.6 459.3 322.3L459.3 182.3 479 182.3Z" fill="currentColor"/></g></svg>
