<svg xmlns="http://www.w3.org/2000/svg" viewBox="0 0 512 512"><path d="m256 128c-44.1 0-80 35.9-80 80v256c0 8.8 7.2 16 16 16s16-7.2 16-16v-256c0-26.5 21.5-48 48-48 26.5 0 48 21.5 48 48 0 8.8 7.2 16 16 16s16-7.2 16-16c0-44.1-35.9-80-80-80z"/><path d="m256 192c-8.8 0-16 7.2-16 16v144c0 8.8 7.2 16 16 16s16-7.2 16-16v-144c0-8.8-7.2-16-16-16z"/><path d="m256 400c-8.8 0-16 7.2-16 16v80c0 8.8 7.2 16 16 16s16-7.2 16-16v-80c0-8.8-7.2-16-16-16z"/><path d="m320 256c-8.8 0-16 7.2-16 16v192c0 8.8 7.2 16 16 16s16-7.2 16-16v-192c0-8.8-7.2-16-16-16z"/><path d="m128 288c-8.8 0-16 7.2-16 16v112c0 8.8 7.2 16 16 16s16-7.2 16-16v-112c0-8.8-7.2-16-16-16z"/><path d="m448 256c-8.8 0-16 7.2-16 16v80c0 8.8 7.2 16 16 16s16-7.2 16-16v-80c0-8.8-7.2-16-16-16z"/><path d="m368.7 145.2c-8.2 3.3-12.1 12.6-8.8 20.8 5.4 13.3 8.1 27.4 8.1 42v208c0 8.8 7.2 16 16 16s16-7.2 16-16v-208c0-18.7-3.5-36.8-10.5-54-3.3-8.2-12.6-12.1-20.8-8.8z"/><path d="M256 64c-79.4 0-144 64.6-144 144v32c0 8.8 7.2 16 16 16s16-7.2 16-16v-32c0-61.8 50.2-112 112-112 25.8 0 50 8.5 70.1 24.6 6.9 5.5 17 4.4 22.5-2.5 5.5-6.9 4.4-17-2.5-22.5C320.7 75.2 288.7 64 256 64z"/><path d="m185.5 46.7c22.3-9.7 46-14.7 70.5-14.7 97 0 176 79 176 176 0 8.8 7.2 16 16 16s16-7.2 16-16c0-114.7-93.3-208-208-208-28.9 0-56.9 5.8-83.3 17.3-8.1 3.5-11.8 13-8.3 21.1 3.6 8.1 13 11.8 21.1 8.3z"/><path d="m123.6 68.1c-6.6-5.9-16.7-5.3-22.6 1.3-34.2 38.2-53 87.4-53 138.7v144c0 8.8 7.2 16 16 16s16-7.2 16-16v-144c0-43.4 15.9-85 44.8-117.3 5.9-6.6 5.3-16.7-1.2-22.6z"/></svg>
