<?xml version="1.0" encoding="UTF-8" standalone="no"?>
<!-- Created with Inkscape (http://www.inkscape.org/) -->

<svg
   xmlns:dc="http://purl.org/dc/elements/1.1/"
   xmlns:cc="http://creativecommons.org/ns#"
   xmlns:rdf="http://www.w3.org/1999/02/22-rdf-syntax-ns#"
   xmlns:svg="http://www.w3.org/2000/svg"
   xmlns="http://www.w3.org/2000/svg"
   xmlns:sodipodi="http://sodipodi.sourceforge.net/DTD/sodipodi-0.dtd"
   xmlns:inkscape="http://www.inkscape.org/namespaces/inkscape"
   width="156"
   height="156"
   viewBox="0 0 41.274999 41.275001"
   version="1.1"
   id="svg156"
   inkscape:version="0.92.4 5da689c313, 2019-01-14"
   sodipodi:docname="grandpa4.svg">
  <defs
     id="defs150" />
  <sodipodi:namedview
     id="base"
     pagecolor="#ffffff"
     bordercolor="#666666"
     borderopacity="1.0"
     inkscape:pageopacity="0.0"
     inkscape:pageshadow="2"
     inkscape:zoom="1.400641"
     inkscape:cx="46.260262"
     inkscape:cy="-7.466148"
     inkscape:document-units="mm"
     inkscape:current-layer="layer1"
     showgrid="false"
     units="px"
     inkscape:window-width="1918"
     inkscape:window-height="1055"
     inkscape:window-x="0"
     inkscape:window-y="23"
     inkscape:window-maximized="0" />
  <metadata
     id="metadata153">
    <rdf:RDF>
      <cc:Work
         rdf:about="">
        <dc:format>image/svg+xml</dc:format>
        <dc:type
           rdf:resource="http://purl.org/dc/dcmitype/StillImage" />
        <dc:title></dc:title>
      </cc:Work>
    </rdf:RDF>
  </metadata>
  <g
     inkscape:label="Layer 1"
     inkscape:groupmode="layer"
     id="layer1"
     transform="translate(0,-255.72499)">
    <g
       transform="matrix(0.81143257,0,0,0.81143257,-20.009076,235.79005)"
       id="g8">
      <path
         inkscape:connector-curvature="0"
         d="m 55.839,46.287 c -2.164,0 -3.981,1.425 -4.619,3.379 h -2.153 c -0.637,-1.954 -2.455,-3.379 -4.619,-3.379 -2.69,0 -4.879,2.188 -4.879,4.879 0,2.691 2.188,4.879 4.879,4.879 2.164,0 3.981,-1.425 4.619,-3.379 h 2.153 c 0.637,1.954 2.455,3.379 4.619,3.379 2.69,0 4.879,-2.188 4.879,-4.879 0,-2.691 -2.188,-4.879 -4.879,-4.879 z m -11.39,6.758 c -1.036,0 -1.879,-0.843 -1.879,-1.879 0,-1.036 0.843,-1.879 1.879,-1.879 0.97,0 1.761,0.741 1.859,1.685 -0.008,0.064 -0.02,0.127 -0.02,0.193 0,0.066 0.011,0.129 0.02,0.193 -0.098,0.945 -0.889,1.687 -1.859,1.687 z m 11.39,0 c -1.036,0 -1.879,-0.843 -1.879,-1.879 0,-1.036 0.843,-1.879 1.879,-1.879 1.036,0 1.879,0.843 1.879,1.879 0,1.036 -0.843,1.879 -1.879,1.879 z"
         id="path2-3" />
      <path
         inkscape:connector-curvature="0"
         d="m 56.588,59.265 c -0.809,-0.089 -1.564,0.501 -1.656,1.326 -0.254,2.294 -2.188,4.024 -4.499,4.024 -2.312,0 -4.246,-1.73 -4.499,-4.024 -0.091,-0.823 -0.825,-1.423 -1.656,-1.326 -0.823,0.091 -1.417,0.832 -1.326,1.655 0.422,3.817 3.638,6.695 7.481,6.695 3.842,0 7.059,-2.878 7.481,-6.694 0.091,-0.824 -0.503,-1.565 -1.326,-1.656 z"
         id="path4" />
      <path
         inkscape:connector-curvature="0"
         d="M 70.151,52.471 C 72.287,49.701 77.595,41.944 74.663,36.613 71.769,31.352 65.416,32.454 62.819,33.171 62.237,32.124 61.574,31.17 60.825,30.317 57.403,26.425 53.06,25.505 50.02,25.418 c -0.007,0 -0.013,0.001 -0.02,0.001 -0.007,0 -0.013,-0.001 -0.02,-0.001 -3.04,0.087 -7.382,1.007 -10.804,4.899 -0.739,0.841 -1.393,1.782 -1.969,2.812 -2.69,-0.715 -8.851,-1.67 -11.686,3.486 -2.888,5.252 2.225,12.865 4.419,15.737 -1.052,1.563 -1.076,3.838 0.121,5.743 1.065,1.694 2.817,2.655 4.504,2.655 0.038,0 0.075,-0.007 0.114,-0.008 0.531,8.992 5.658,13.646 15.267,13.839 0.01,0 0.02,0.003 0.031,0.003 0.008,0 0.016,0 0.024,0 0.008,0 0.016,0 0.024,0 0.01,0 0.02,-0.003 0.031,-0.003 9.609,-0.194 14.736,-4.847 15.267,-13.838 0.045,10e-4 0.09,0.009 0.135,0.009 0.495,0 1.002,-0.083 1.498,-0.25 1.202,-0.405 2.262,-1.26 2.984,-2.409 0.722,-1.149 1.035,-2.474 0.879,-3.733 -0.087,-0.694 -0.32,-1.335 -0.668,-1.889 z m 1.883,-14.413 c 1.88,3.419 -2.03,9.688 -4.307,12.639 -0.646,-0.168 -1.325,-0.186 -2,-0.046 0.344,-5.876 -0.206,-10.792 -1.646,-14.702 2.128,-0.508 6.238,-1.009 7.953,2.109 z m -43.884,0 c 1.671,-3.038 5.614,-2.64 7.783,-2.148 -1.45,3.916 -2.005,8.846 -1.66,14.742 -0.622,-0.13 -1.247,-0.13 -1.847,0.002 C 30.22,47.767 26.291,41.438 28.15,38.058 Z M 67.4,56.495 c -0.351,0.557 -0.861,0.981 -1.402,1.163 -0.255,0.086 -0.743,0.192 -1.164,-0.073 -0.097,-0.061 -0.2,-0.107 -0.304,-0.144 -0.2,-0.099 -0.423,-0.16 -0.661,-0.16 -0.006,0 -0.013,0 -0.02,0 -0.828,0.011 -1.491,0.691 -1.48,1.519 C 62.478,67.345 58.546,71.406 50,71.58 41.454,71.406 37.522,67.345 37.631,58.8 c 0.011,-0.828 -0.652,-1.508 -1.48,-1.519 -0.007,0 -0.014,0 -0.02,0 -0.239,0 -0.461,0.061 -0.662,0.161 -0.104,0.036 -0.205,0.082 -0.302,0.143 -0.73,0.458 -1.908,-0.04 -2.567,-1.09 -0.66,-1.05 -0.601,-2.326 0.13,-2.786 0.577,-0.36 1.488,-0.109 2.17,0.598 0.012,0.013 0.029,0.017 0.042,0.029 0.094,0.091 0.205,0.156 0.319,0.22 0.052,0.029 0.098,0.072 0.153,0.094 0.114,0.047 0.239,0.06 0.364,0.078 0.063,0.009 0.124,0.035 0.188,0.035 0.005,0 0.009,0.003 0.013,0.003 0.05,0 0.101,-0.002 0.151,-0.007 0.127,-0.013 0.246,-0.046 0.361,-0.087 0.021,-0.008 0.041,-0.018 0.062,-0.027 0.165,-0.069 0.314,-0.163 0.442,-0.282 0.008,-0.007 0.018,-0.009 0.026,-0.017 0.01,-0.009 0.013,-0.022 0.022,-0.032 0.123,-0.124 0.223,-0.268 0.296,-0.428 0.011,-0.024 0.02,-0.047 0.03,-0.071 0.061,-0.153 0.096,-0.315 0.104,-0.485 10e-4,-0.028 0,-0.054 0,-0.081 0,-0.044 0.004,-0.088 0,-0.133 -0.976,-9.719 0.356,-16.725 3.957,-20.821 2.685,-3.054 6.128,-3.795 8.57,-3.875 2.442,0.08 5.886,0.822 8.572,3.877 3.601,4.097 4.933,11.102 3.957,20.821 -0.005,0.046 0,0.09 0,0.135 0,0.026 -0.001,0.051 0,0.078 0.007,0.172 0.044,0.336 0.105,0.49 0.009,0.022 0.018,0.044 0.028,0.065 0.074,0.161 0.174,0.306 0.298,0.431 0.009,0.009 0.012,0.021 0.021,0.03 0.007,0.007 0.017,0.009 0.025,0.016 0.129,0.119 0.278,0.214 0.444,0.283 0.021,0.009 0.041,0.019 0.062,0.026 0.114,0.041 0.233,0.074 0.36,0.087 0.051,0.005 0.101,0.007 0.151,0.007 0.004,0 0.008,-0.002 0.013,-0.002 0.07,-0.001 0.136,-0.028 0.206,-0.039 0.118,-0.018 0.237,-0.03 0.345,-0.074 0.057,-0.023 0.105,-0.068 0.159,-0.098 0.112,-0.063 0.22,-0.127 0.312,-0.216 0.013,-0.013 0.031,-0.017 0.043,-0.03 0.681,-0.709 1.593,-0.96 2.169,-0.597 0.419,0.263 0.537,0.75 0.569,1.018 0.071,0.567 -0.089,1.211 -0.439,1.767 z"
         id="path6-6" />
    </g>
  </g>
</svg>
