<?xml version="1.0" encoding="iso-8859-1"?>
<!DOCTYPE svg PUBLIC "-//W3C//DTD SVG 1.1//EN" "http://www.w3.org/Graphics/SVG/1.1/DTD/svg11.dtd">
<svg version="1.1" xmlns="http://www.w3.org/2000/svg" xmlns:xlink="http://www.w3.org/1999/xlink" x="0px" y="0px"
	 width="511.188px" height="511.188px" viewBox="0 0 511.188 511.188"
	 xml:space="preserve">
<g>
	<path d="M36.657,303.188h218.531c8.374,0,16.655-2.219,23.999-6.438l189.375-109.344c7.064,21.906,10.625,44.563,10.625,67.781
		c0,123.5-100.5,224-224,224C148.907,479.188,58.782,404.219,36.657,303.188 M0,271.188c8.313,133.906,119.219,240,255.188,240
		c141.374,0,255.999-114.625,255.999-256c0-40.938-9.844-79.469-26.938-113.781L263.188,269.031c-2.5,1.438-5.25,2.156-8,2.156H0
		L0,271.188z M0,239.188h239.188V0C110.625,7.969,7.969,110.625,0,239.188z M36.688,207.188
		c18.594-84.969,85.531-151.906,170.5-170.5v170.5H36.688z M303.188,36.594c45.439,9.813,86.219,33.281,117.469,67.656
		l-117.469,67.812V36.594 M271.188,0v227.469l197.219-113.844C425.312,48.844,353.5,5.094,271.188,0L271.188,0z"/>
</g>
</svg>
