<svg version="1.0" xmlns="http://www.w3.org/2000/svg"
 width="120.000000pt" height="120.000000pt" viewBox="0 0 120.000000 120.000000"
 preserveAspectRatio="xMidYMid meet">
<g transform="translate(0.000000,120.000000) scale(0.100000,-0.100000)"
fill="currentColor" stroke="none">
<path d="M1367 2940 c-20 -33 -37 -62 -37 -65 0 -3 17 -32 37 -65 l38 -60 80
0 80 0 41 63 41 62 -34 50 c-19 28 -38 57 -43 65 -5 8 -12 12 -15 8 -7 -7 9
-39 48 -99 16 -24 15 -27 -19 -77 l-35 -53 -66 3 -67 3 -33 52 -33 52 35 51
c19 29 35 56 35 61 0 22 -18 5 -53 -51z"/>
<path d="M732 2653 c-10 -16 -28 -44 -40 -64 l-22 -37 37 -61 38 -61 82 0 83
0 39 61 39 62 -40 63 -40 64 -78 0 c-74 0 -80 -1 -98 -27z m147 2 c18 -4 34
-20 51 -52 29 -54 28 -61 -7 -114 l-26 -39 -71 0 -71 0 -29 54 -29 54 31 49
c30 46 34 49 78 52 26 1 58 -1 73 -4z"/>
<path d="M2000 2622 c-19 -31 -37 -60 -38 -65 -2 -4 13 -34 35 -67 l38 -60 82
0 81 0 39 62 39 61 -40 64 -41 63 -80 0 -80 -1 -35 -57z m187 25 c6 -4 22 -27
36 -51 l24 -44 -29 -51 -30 -51 -71 0 -72 0 -28 48 c-15 26 -28 51 -28 55 0 4
13 30 30 57 l31 50 63 -3 c34 -2 68 -6 74 -10z"/>
<path d="M2511 2316 l-72 -114 49 -73 c26 -41 58 -91 71 -111 l23 -38 137 0
137 0 69 107 c37 59 68 112 68 118 0 5 -31 58 -68 118 l-69 107 -137 0 -137 0
-71 -114z m301 85 c29 -1 40 -7 57 -33 75 -118 101 -161 101 -166 0 -9 -84
-137 -92 -140 -5 -2 -8 -9 -8 -16 0 -33 -34 -42 -155 -41 l-120 0 -47 70 c-87
128 -85 122 -47 185 18 30 37 57 41 58 4 2 8 8 8 14 0 17 41 63 61 68 11 3 52
4 92 3 40 -1 88 -2 109 -2z"/>
<path d="M51 2286 c-25 -41 -45 -77 -45 -81 0 -4 20 -40 45 -81 l44 -74 101 0
101 0 51 80 c28 44 47 82 43 85 -5 2 -27 36 -50 75 l-42 70 -102 0 -102 0 -44
-74z m253 19 c11 -16 31 -45 43 -66 l23 -36 -43 -66 -42 -66 -87 -1 c-81 0
-88 2 -99 23 -7 12 -25 38 -40 58 -27 34 -39 79 -21 79 4 0 22 24 39 54 l32
53 87 -2 c83 -1 88 -3 108 -30z"/>
<path d="M1367 2270 c-20 -33 -37 -62 -37 -65 0 -3 17 -32 37 -65 l38 -60 81
0 80 0 40 63 40 63 -40 62 -41 62 -80 0 -80 0 -38 -60z m219 -15 l37 -56 -32
-39 c-17 -21 -31 -44 -31 -49 0 -7 -28 -11 -73 -11 l-72 0 -28 45 c-15 25 -27
52 -27 60 0 8 12 35 27 60 l28 45 67 0 67 0 37 -55z"/>
<path d="M1908 1994 c-38 -58 -68 -108 -68 -112 0 -4 29 -52 65 -107 36 -55
65 -103 65 -107 0 -5 64 -8 143 -8 l142 0 72 112 c60 95 70 115 59 128 -7 8
-39 57 -70 108 l-58 92 -141 0 -142 0 -67 -106z m332 75 c0 -5 5 -7 10 -4 6 3
10 2 10 -4 0 -5 20 -38 44 -73 71 -103 71 -104 42 -143 -14 -19 -26 -37 -26
-41 0 -3 -16 -29 -35 -55 -19 -27 -35 -53 -35 -58 0 -5 -58 -10 -128 -10
l-129 -1 -61 94 c-34 52 -62 99 -62 104 0 8 12 31 65 120 6 10 20 32 33 50
l23 32 125 0 c81 0 124 -4 124 -11z"/>
<path d="M687 1973 c-23 -38 -46 -73 -50 -80 -4 -6 15 -46 43 -90 l51 -78 99
3 99 3 46 71 c25 40 45 76 45 81 0 5 -21 42 -47 83 l-48 74 -97 0 -97 0 -44
-67z m270 -22 c40 -62 44 -84 18 -106 -7 -6 -22 -28 -34 -50 l-21 -40 -74 -5
c-40 -3 -81 -3 -91 -2 -17 4 -95 116 -95 138 0 7 6 19 13 26 6 7 18 24 25 38
33 63 40 66 152 65 l65 -1 42 -63z"/>
<path d="M2569 1873 c-13 -16 -12 -17 4 -4 16 13 21 21 13 21 -2 0 -10 -8 -17
-17z"/>
<path d="M1277 1670 c-41 -65 -66 -114 -61 -122 3 -7 34 -57 68 -110 l61 -98
141 0 140 0 67 106 c37 58 67 109 67 114 0 5 -30 56 -67 114 l-68 106 -140 0
-140 0 -68 -110z m396 -3 c31 -50 57 -99 57 -109 0 -9 -25 -56 -56 -105 l-57
-88 -127 -3 c-146 -4 -123 -17 -205 113 -25 38 -45 75 -45 83 0 7 16 38 35 68
19 30 35 57 35 60 0 3 11 20 25 38 l25 33 128 1 128 0 57 -91z"/>
<path d="M2511 1670 c-42 -65 -69 -116 -64 -123 4 -7 36 -56 71 -110 l63 -98
141 3 141 3 68 107 68 106 -71 111 -70 111 -138 0 -138 0 -71 -110z m341 80
c33 -45 118 -183 118 -191 0 -6 -28 -52 -62 -104 l-62 -93 -125 -1 -126 0 -44
64 c-26 38 -40 68 -36 76 5 7 4 10 -2 6 -11 -7 -43 33 -43 53 0 5 27 52 60
102 l61 93 129 0 c70 0 130 -2 132 -5z"/>
<path d="M50 1638 l-50 -78 51 -80 51 -80 97 1 96 0 48 75 c26 41 47 78 47 83
0 4 -20 39 -45 79 l-46 71 -100 3 -100 3 -49 -77z m273 -4 c35 -54 48 -104 27
-104 -5 0 -10 -5 -10 -11 0 -6 -14 -30 -30 -53 l-31 -42 -82 -2 -83 -3 -45 70
-46 69 41 66 41 65 90 1 91 0 37 -56z"/>
<path d="M1916 1338 c-32 -51 -62 -100 -68 -109 -9 -13 2 -38 58 -127 l69
-111 140 -1 140 0 71 111 71 112 -46 71 c-26 39 -57 88 -70 109 l-23 37 -142
0 -142 0 -58 -92z m332 66 c-4 -3 1 -13 11 -23 9 -9 38 -51 64 -93 l47 -75
-55 -88 c-30 -48 -60 -94 -66 -101 -9 -11 -43 -14 -135 -14 l-124 0 -28 46
c-15 26 -32 51 -38 58 -5 6 -22 31 -36 55 l-26 44 49 72 c27 40 49 76 49 80 0
5 7 17 17 27 14 16 33 18 146 18 72 0 128 -3 125 -6z"/>
<path d="M681 1291 l-51 -80 50 -78 49 -78 101 5 101 5 48 74 47 73 -50 79
-51 79 -97 0 -96 0 -51 -79z m275 -11 l45 -67 -38 -61 c-21 -34 -44 -61 -51
-62 -7 0 -11 -4 -8 -8 5 -8 -115 -6 -151 3 -29 7 -95 113 -87 140 4 11 10 22
14 25 4 3 19 27 35 53 l27 48 84 -2 84 -2 46 -67z"/>
<path d="M1277 1000 c-38 -60 -67 -113 -65 -118 1 -5 32 -54 68 -110 l65 -102
142 0 c137 0 143 1 154 23 7 12 38 61 69 109 l57 86 -71 111 -71 111 -140 0
-140 0 -68 -110z m381 18 c88 -131 86 -124 40 -193 -21 -33 -48 -77 -59 -97
l-19 -38 -134 0 -134 0 -14 30 c-7 17 -16 30 -20 30 -5 0 -8 5 -8 11 0 6 -16
33 -35 59 -19 26 -35 55 -35 64 0 9 16 41 35 71 19 30 46 73 60 95 l25 40 125
0 124 0 49 -72z"/>
<path d="M2553 1068 c-14 -24 -46 -74 -70 -111 l-44 -69 69 -106 69 -107 141
-3 141 -3 34 53 c19 29 50 79 70 110 l36 56 -70 111 -70 111 -140 0 -139 0
-27 -42z m342 -55 c87 -134 86 -117 13 -227 l-63 -96 -126 0 -127 0 -42 68
c-24 37 -43 73 -43 80 0 6 -3 10 -5 7 -7 -7 -31 28 -32 46 0 8 8 24 18 35 10
10 21 27 25 37 4 10 10 16 15 13 4 -2 8 4 9 14 1 10 14 36 30 58 l28 41 125 0
125 0 50 -76z"/>
<path d="M50 966 l-49 -78 48 -77 48 -76 99 -3 99 -2 48 76 c26 41 47 79 47
83 0 4 -20 39 -45 79 l-46 71 -101 3 -100 3 -48 -79z m273 -4 c19 -32 37 -62
39 -68 2 -9 -21 -49 -74 -128 -4 -6 -44 -11 -90 -13 l-83 -2 -43 64 c-40 61
-52 95 -33 95 5 0 13 12 19 28 5 15 20 40 33 54 23 26 29 28 110 28 l86 0 36
-58z"/>
<path d="M1934 718 c-26 -40 -58 -90 -71 -110 -14 -20 -23 -41 -22 -46 2 -5
33 -54 68 -110 l64 -102 144 0 143 0 28 46 c15 25 45 73 68 107 l41 61 -71
113 -71 113 -138 0 -137 0 -46 -72z m88 41 c11 -6 18 -7 14 -1 -3 5 17 9 49 8
30 0 55 -5 55 -10 0 -5 6 -4 13 1 23 17 78 15 98 -3 10 -9 19 -21 19 -25 0 -4
23 -42 50 -84 l51 -76 -31 -54 c-17 -29 -34 -55 -38 -57 -4 -2 -17 -21 -29
-43 l-22 -40 -133 -2 -133 -3 -57 93 c-32 52 -58 99 -58 105 0 12 120 202 127
202 3 0 14 -5 25 -11z"/>
<path d="M697 672 c-15 -26 -37 -61 -47 -77 l-19 -30 50 -78 50 -77 97 0 98 0
50 78 50 77 -49 78 -49 77 -101 0 -102 0 -28 -48z m241 -8 c12 -20 22 -40 22
-45 0 -5 4 -9 8 -9 5 0 14 -10 19 -23 9 -20 5 -32 -28 -82 -21 -33 -39 -62
-39 -66 0 -3 -41 -5 -91 -4 l-91 2 -39 59 c-21 32 -39 63 -39 68 0 6 11 26 23
45 13 20 31 48 41 64 16 26 19 27 104 27 l87 -1 23 -35z"/>
<path d="M1277 330 c-38 -61 -67 -114 -65 -118 10 -25 134 -212 140 -212 14 0
9 16 -20 61 -16 24 -43 66 -60 93 -18 27 -32 55 -32 63 0 7 27 55 60 106 l60
93 122 -2 c68 -1 126 -2 129 -3 8 -1 90 -125 112 -168 15 -28 15 -33 2 -47 -8
-8 -15 -17 -15 -19 0 -3 -23 -42 -51 -87 -28 -45 -47 -85 -44 -88 4 -4 12 1
19 11 6 10 38 60 72 111 l61 93 -71 111 -71 112 -140 -1 -140 0 -68 -109z"/>
</g>
</svg>
