<?xml version="1.0" encoding="UTF-8" standalone="no"?>
<!-- Created with Inkscape (http://www.inkscape.org/) -->

<svg
   xmlns:dc="http://purl.org/dc/elements/1.1/"
   xmlns:cc="http://creativecommons.org/ns#"
   xmlns:rdf="http://www.w3.org/1999/02/22-rdf-syntax-ns#"
   xmlns:svg="http://www.w3.org/2000/svg"
   xmlns="http://www.w3.org/2000/svg"
   xmlns:sodipodi="http://sodipodi.sourceforge.net/DTD/sodipodi-0.dtd"
   xmlns:inkscape="http://www.inkscape.org/namespaces/inkscape"
   width="1602.7142"
   height="741.71301"
   id="svg2"
   version="1.1"
   inkscape:version="0.91 r13725"
   sodipodi:docname="Carte du monde simplifiée (à usage pédagogique).svg">
  <defs
     id="defs4">
    <inkscape:perspective
       sodipodi:type="inkscape:persp3d"
       inkscape:vp_x="0 : 526.18109 : 1"
       inkscape:vp_y="0 : 1000 : 0"
       inkscape:vp_z="744.09448 : 526.18109 : 1"
       inkscape:persp3d-origin="372.04724 : 350.78739 : 1"
       id="perspective10" />
    <inkscape:perspective
       id="perspective2824"
       inkscape:persp3d-origin="0.5 : 0.33333333 : 1"
       inkscape:vp_z="1 : 0.5 : 1"
       inkscape:vp_y="0 : 1000 : 0"
       inkscape:vp_x="0 : 0.5 : 1"
       sodipodi:type="inkscape:persp3d" />
  </defs>
  <sodipodi:namedview
     id="base"
     pagecolor="#ffffff"
     bordercolor="#666666"
     borderopacity="1.0"
     inkscape:pageopacity="0.0"
     inkscape:pageshadow="2"
     inkscape:zoom="0.43852551"
     inkscape:cx="625.17606"
     inkscape:cy="385.25041"
     inkscape:document-units="px"
     inkscape:current-layer="layer1"
     showgrid="false"
     inkscape:window-width="1366"
     inkscape:window-height="705"
     inkscape:window-x="-8"
     inkscape:window-y="-8"
     inkscape:window-maximized="1" />
  <metadata
     id="metadata7">
    <rdf:RDF>
      <cc:Work
         rdf:about="">
        <dc:format>image/svg+xml</dc:format>
        <dc:type
           rdf:resource="http://purl.org/dc/dcmitype/StillImage" />
        <dc:title></dc:title>
      </cc:Work>
    </rdf:RDF>
  </metadata>
  <g
     inkscape:label="Ebene 1"
     inkscape:groupmode="layer"
     id="layer1"
     transform="translate(275.17606,-309.45844)">
    <path
       style="fill:none;stroke:#000000;stroke-width:2;stroke-miterlimit:4;stroke-dasharray:none"
       d="m 103.03633,1028.2696 c -5.999639,-2.2452 -7.677682,-4.4437 -6.252601,-8.192 0.660208,-1.7365 1.92836,-3.1572 2.818108,-3.1572 0.889763,0 4.784553,2.0468 8.655113,4.5484 3.87055,2.5017 8.60343,5.1172 10.51748,5.8122 l 3.48011,1.2636 -4.28138,0.093 c -2.35476,0.051 -5.8094,0.3148 -7.67697,0.5856 -1.86757,0.2708 -5.13451,-0.1584 -7.25986,-0.9538 z m -13.617114,-11.5249 c -1.129671,-0.6322 -3.013043,-0.845 -4.185257,-0.473 -1.476198,0.4685 -2.616074,-0.2294 -3.708482,-2.2705 -0.86745,-1.6209 -2.422177,-3.2377 -3.454954,-3.5929 -2.369572,-0.815 -7.336604,-8.8624 -10.101315,-16.36571 -1.396299,-3.78947 -3.27412,-6.40899 -5.503286,-7.67697 -3.955704,-2.25003 -4.238878,-3.27049 -1.17721,-4.24223 3.502752,-1.11172 4.154443,-7.28662 1.206028,-11.42728 -1.4072,-1.97624 -2.147696,-4.29669 -1.723727,-5.40156 0.500314,-1.30378 -0.880536,-3.59153 -4.224091,-6.99837 -4.220359,-4.30022 -5.000799,-5.86343 -5.189558,-10.3945 -0.122193,-2.9332 -0.836376,-6.07316 -1.587065,-6.97768 -0.94566,-1.13945 -1.138541,-5.2292 -0.627987,-13.31493 0.553332,-8.76296 0.231029,-14.17132 -1.293746,-21.70944 -2.264363,-11.19452 -3.420974,-32.05213 -2.8326,-51.08135 0.125536,-4.05993 -0.400666,-9.63389 -1.169331,-12.38658 -1.87181,-6.70318 -10.484184,-15.16456 -21.128344,-20.75791 -7.613094,-4.00056 -8.683641,-5.02624 -11.659646,-11.17093 -1.8022915,-3.72126 -5.2467333,-9.28288 -7.6543242,-12.35916 -2.40760275,-3.07628 -5.0252118,-7.59388 -5.8169195,-10.03911 -2.512848,-7.76109 -6.9425399,-15.55931 -9.9621623,-17.53784 -1.60686,-1.05286 -3.439682,-3.79074 -4.072937,-6.08421 -1.02458,-3.71073 -0.754492,-4.74676 2.45272,-9.40827 3.477641,-5.05459 3.518636,-5.26071 1.168493,-5.87529 -5.774696,-1.51012 -3.346071,-9.22866 7.0194155,-22.30875 6.8892381,-8.69344 8.9074651,-15.31624 6.9990541,-22.96735 -0.72726845,-2.91572 -1.37849954,-5.96568 -1.44717885,-6.77766 -0.0687384,-0.81199 -0.58647293,-1.47634 -1.15064725,-1.47634 -0.5641743,0 -0.4556692,-1.06528 0.2411512,-2.36728 1.07365319,-2.00615 0.80246734,-2.5789 -1.7776427,-3.75448 -3.7604139,-1.71335 -9.438416,-0.0195 -9.460348,2.82228 -0.02634,3.40766 -1.524929,3.6587 -6.466202,1.08317 -2.646416,-1.37938 -5.39523,-2.50798 -6.108479,-2.50798 -0.713261,0 -3.487173,-1.88687 -6.164261,-4.19303 -2.677088,-2.30617 -5.531785,-4.71879 -6.343772,-5.36139 -0.811986,-0.6426 -1.476339,-2.39374 -1.476339,-3.89142 0,-1.49768 -1.042957,-3.66692 -2.317676,-4.82053 -1.274731,-1.15361 -2.926542,-3.94232 -3.6707,-6.19714 -0.978057,-2.96353 -1.710463,-3.74223 -2.642825,-2.80987 -1.945768,1.94577 -4.82665,1.57622 -11.818936,-1.51609 -3.655441,-1.61662 -7.463676,-4.37747 -8.984826,-6.51372 -1.452104,-2.0393 -4.226453,-4.5281 -6.165217,-5.53067 -3.199405,-1.65448 -3.999345,-1.64172 -8.659877,0.13816 l -5.134851,1.96101 -15.754258,-7.63407 c -9.69082,-4.6959 -17.21178,-9.17543 -19.54129,-11.63894 -3.6119,-3.81967 -3.72877,-4.23446 -2.52692,-8.96936 1.10099,-4.33758 0.91403,-5.67948 -1.48062,-10.62649 -1.50741,-3.1141 -4.80097,-7.89722 -7.31902,-10.62914 -2.51805,-2.73191 -4.29226,-5.42992 -3.94267,-5.99555 0.34957,-0.56562 -1.42418,-4.37776 -3.94167,-8.47141 -2.85994,-4.65052 -4.87833,-9.6321 -5.37973,-13.27775 -0.64275,-4.67339 -1.39167,-6.10321 -3.76259,-7.18347 -2.51322,-1.1451 -3.21598,-0.99916 -4.655,0.96669 -2.02672,2.76872 -1.45057,5.69173 3.03076,15.37588 1.82106,3.93532 3.70302,9.76916 4.18213,12.96407 0.47911,3.19492 1.89425,7.81448 3.14476,10.26569 2.96198,5.80595 1.04946,5.70351 -3.62143,-0.19397 -2.75488,-3.47831 -3.49889,-5.38594 -2.95142,-7.5673 0.58456,-2.32906 0.009,-3.4507 -2.85428,-5.56806 -4.34257,-3.21059 -5.26164,-5.2817 -3.66648,-8.26228 0.93021,-1.73812 0.50367,-3.64427 -1.85868,-8.30615 -2.39904,-4.73427 -2.90082,-7.02763 -2.30685,-10.54332 0.97096,-5.74708 -1.60746,-10.94864 -6.41421,-12.93966 -2.77525,-1.14955 -3.73197,-2.43553 -4.29743,-5.77645 -0.40007,-2.36374 -1.1663,-6.02083 -1.70272,-8.12689 -0.55799,-2.19071 -0.5174,-4.11222 0.0949,-4.49061 0.5886,-0.36377 0.20347,-1.98417 -0.85584,-3.60088 -1.56016,-2.38111 -1.66699,-3.50796 -0.5624,-5.93227 0.74999,-1.64604 1.03306,-3.52765 0.62905,-4.18135 -0.40401,-0.65369 0.60277,-2.60692 2.23728,-4.34051 1.63451,-1.73359 3.8106,-5.19102 4.83574,-7.68319 1.02515,-2.49217 4.18431,-7.11207 7.02037,-10.26644 2.83605,-3.15439 6.43146,-8.67989 7.9898,-12.27891 2.16305,-4.99564 3.43094,-6.54843 5.35951,-6.56382 1.3894,-0.0106 2.45237,0.6442 2.36215,1.45618 -0.37598,3.38371 2.29955,2.34125 5.30474,-2.06687 1.77141,-2.59836 2.72717,-4.90145 2.12392,-5.11798 -0.60324,-0.21653 -1.09681,-1.19402 -1.09681,-2.17222 0,-0.97819 -2.44505,-4.15485 -5.43343,-7.05922 -4.95654,-4.81722 -5.27485,-5.45592 -3.6267,-7.27709 1.33529,-1.47549 1.49233,-2.55818 0.60183,-4.14941 -1.56493,-2.79638 0.90447,-9.05861 3.58203,-9.08378 1.1059,-0.0106 1.42152,-0.38694 0.74251,-0.8858 -1.52334,-1.11919 -2.2135,-3.66087 -1.99948,-7.36362 0.34182,-5.91393 -0.95236,-8.38769 -5.3492,-10.2248 -2.37157,-0.99091 -5.99032,-3.08181 -8.04168,-4.64646 -2.05136,-1.56465 -4.65399,-2.84481 -5.78363,-2.84481 -1.12963,0 -6.26443,-1.07506 -11.41067,-2.38901 -8.27374,-2.11247 -9.73198,-2.19591 -12.59804,-0.72083 -5.93955,3.05691 -12.23227,4.30284 -14.79768,2.92987 -1.92428,-1.02984 -4.02426,-0.39385 -11.34689,3.43647 -4.94208,2.58511 -10.84578,5.10135 -13.11935,5.59165 -2.27356,0.49031 -6.62463,2.14658 -9.66905,3.68062 -8.63542,4.35126 -21.00567,8.73751 -24.42737,8.66146 -2.2083,-0.0491 -0.71532,-1.01764 5.16017,-3.34761 9.98541,-3.95979 20.24589,-9.11649 21.19497,-10.65213 1.1689,-1.89132 -1.36846,-2.56995 -4.41644,-1.18119 -2.24409,1.02247 -3.62708,0.92681 -6.21664,-0.43 l -3.33049,-1.74502 3.62287,-1.87346 c 4.09542,-2.11782 5.38372,-4.51387 4.44276,-8.26293 -0.91131,-3.63094 4.11332,-6.29881 14.93767,-7.93128 5.81609,-0.87715 10.23753,-2.3372 13.21433,-4.36363 5.24924,-3.57338 4.34742,-6.27412 -1.31224,-3.92981 -2.67928,1.10979 -4.63081,1.12193 -8.59867,0.0535 -4.82199,-1.29843 -4.99377,-1.48376 -2.83694,-3.06088 3.60893,-2.63891 11.07297,-4.22621 15.97706,-3.39767 3.10319,0.52428 5.6451,0.15725 8.25387,-1.1918 l 3.7697,-1.94939 -2.48152,-2.64147 c -1.36484,-1.45281 -2.48153,-2.95383 -2.48153,-3.33561 0,-1.09581 7.11011,-3.28736 10.66527,-3.28736 1.77449,0 6.6391,-1.28456 10.81023,-2.85457 4.17114,-1.57001 13.7945,-3.71343 21.38526,-4.76316 12.31151,-1.70256 14.91858,-1.72335 24.15041,-0.19261 5.69196,0.94379 13.53791,2.06944 17.43545,2.50144 3.89754,0.432 10.79613,1.80323 15.33019,3.04718 10.530494,2.88909 17.389273,2.85384 29.153549,-0.14984 5.194826,-1.32636 10.445256,-2.09414 11.667618,-1.70618 1.22235,0.38796 3.300705,0.12833 4.618557,-0.57697 1.815838,-0.9718 3.223947,-0.85424 5.814687,0.48549 2.340742,1.21044 5.230081,1.55592 9.16397,1.09572 4.15031,-0.48551 7.784384,0.0173 13.089805,1.81123 4.039443,1.36584 8.525755,2.48334 9.96958,2.48334 2.557634,0 2.566185,0.0434 0.33253,1.68725 -2.190344,1.61199 -2.19658,1.72447 -0.139945,2.52143 1.183965,0.4588 5.294012,0.50584 9.133416,0.10454 6.9338353,-0.72473 6.9938219,-0.70434 8.927307,3.0346 l 1.94655962,3.76423 2.52676098,-3.16886 c 1.4520095,-1.82098 4.9026284,-3.88389 8.1124385,-4.8499 4.8511689,-1.45999 6.3233989,-1.45512 11.1957679,0.037 3.43941,1.05329 7.555894,1.43701 10.638987,0.99171 3.925799,-0.567 5.74863,-0.21383 8.310032,1.61004 3.233632,2.30256 3.323252,2.30373 6.191283,0.081 1.600577,-1.24047 4.894172,-2.80817 7.319078,-3.48379 5.805286,-1.61743 7.774215,-5.06402 4.287916,-7.50592 -2.465417,-1.72684 -2.357573,-1.8586 4.123014,-5.03697 4.833205,-2.37043 7.00966,-2.90872 7.951719,-1.96667 0.942058,0.94206 0.932491,1.97833 -0.03496,3.78603 -1.648953,3.08109 0.403513,7.73828 2.975391,6.75136 0.924566,-0.35479 2.458271,-0.34682 3.40823,0.0177 1.492119,0.57257 1.468226,1.05805 -0.175566,3.56679 -4.541079,6.93056 5.639617,4.96688 12.531831,-2.41717 2.802093,-3.00206 7.143724,-3.91225 11.212976,-2.35072 2.628048,1.00847 2.381818,1.83406 -1.970275,6.60604 -5.186416,5.68681 -7.840414,6.84992 -15.630208,6.84992 -3.764925,0 -8.209428,0.81563 -10.280461,1.8866 -2.866767,1.48246 -4.264672,1.60575 -6.525751,0.57553 -4.215445,-1.92068 -5.682962,-0.32203 -2.6591,2.89672 l 2.581137,2.7475 -5.149732,1.46155 c -2.832351,0.80386 -7.541402,1.53927 -10.464554,1.63425 -4.239079,0.13774 -5.316464,0.59793 -5.322936,2.27365 -0.0059,1.43392 -2.067951,2.94294 -6.495894,4.75294 -14.347623,5.86482 -26.518554,16.43927 -22.112094,19.21161 0.825651,0.51946 2.136275,2.3914 2.912499,4.15984 0.893847,2.03647 2.616888,3.45672 4.699413,3.87364 1.808469,0.36204 6.477009,2.22862 10.374545,4.14794 3.897536,1.91933 8.680876,3.83718 10.629645,4.2619 5.365147,1.1693 5.41213,1.29238 2.913384,7.63174 -2.137763,5.42354 -2.180919,6.19745 -0.524254,9.40109 0.992904,1.92006 2.45598,3.47218 3.25129,3.44916 3.869993,-0.11196 7.49873,-3.68356 9.753431,-9.59975 2.149031,-5.63891 3.128328,-6.69077 9.296463,-9.98526 9.103192,-4.86218 12.888763,-9.65092 11.879986,-15.02816 -0.657089,-3.50261 -0.315783,-4.32456 2.682166,-6.45929 1.889278,-1.34529 4.390646,-4.56509 5.558584,-7.15511 2.610629,-5.78934 6.80576,-7.79622 13.879574,-6.63973 6.27337,1.02562 13.69228,5.00854 14.58839,7.83194 0.36785,1.159 0.0624,3.24046 -0.67887,4.62546 -1.12267,2.09772 -0.91061,2.98345 1.27006,5.30466 l 2.61775,2.78648 4.2746,-2.21584 c 2.35104,-1.21869 6.11922,-3.59608 8.37376,-5.28307 l 4.09917,-3.06726 0.96303,2.60334 c 0.52968,1.43184 0.68002,3.34089 0.33409,4.24234 -0.34591,0.90145 -0.0769,2.67051 0.59783,3.93124 0.75906,1.41831 0.81809,3.0225 0.15482,4.20767 -0.74781,1.33628 -0.24803,3.36594 1.65286,6.71253 2.72315,4.79418 2.72336,4.79808 0.33194,6.47308 -3.14671,2.20406 -1.1278,4.54159 2.32605,2.69314 3.43013,-1.83575 7.3567,-1.59702 9.77831,0.59451 3.57964,3.23954 0.60281,7.11513 -8.89866,11.58533 -10.33476,4.86224 -14.94093,5.82538 -28.43039,5.94471 -9.96083,0.0881 -11.27987,0.40575 -20.964017,5.0481 -5.683907,2.72474 -10.334376,5.42162 -10.334376,5.99308 0,2.43703 1.791048,2.22495 8.662357,-1.02574 4.048631,-1.91533 9.267186,-3.44544 11.752676,-3.44596 4.24542,-8.9e-4 4.40027,0.13043 3.07454,2.60758 -0.76781,1.43467 -2.42407,3.44097 -3.68057,4.45841 -1.97532,1.59952 -2.09098,2.27478 -0.85446,4.98864 1.8544,4.06997 6.69722,6.02845 12.48995,5.05103 l 4.57819,-0.77249 -3.52012,2.42853 c -1.93606,1.3357 -5.12496,2.77508 -7.08643,3.19865 -1.96147,0.42357 -5.99264,1.99252 -8.95817,3.48658 -3.010317,1.51663 -6.034605,2.31924 -6.847064,1.8171 -1.869128,-1.15518 0.103816,-2.88832 6.176494,-5.42563 5.40103,-2.2567 4.53759,-4.65401 -1.282948,-3.56207 -2.267209,0.42533 -9.618931,3.1945 -16.33715,6.1537 -10.486238,4.61891 -12.315612,5.8386 -12.926108,8.61816 -0.750394,3.41652 -3.310567,5.03248 -12.311609,7.77097 -2.871327,0.87358 -6.591702,2.98468 -8.267501,4.69137 -1.675799,1.70668 -4.884546,4.26198 -7.130543,5.67845 -2.245997,1.41646 -4.396397,3.89813 -4.778663,5.5148 -0.629972,2.66426 -0.776472,2.72745 -1.565168,0.67503 -1.477851,-3.84579 -3.704656,-0.086 -3.832837,6.4715 -0.131335,6.71868 -3.536991,11.30169 -11.00623,14.81112 -7.657985,3.59811 -18.5549302,12.10049 -20.76280188,16.20026 -1.94922882,3.61951 -2.03087632,5.02957 -0.82993903,14.33287 1.12035274,8.67909 1.05348046,10.85698 -0.42092212,13.70816 -1.10101857,2.12914 -2.38570567,3.1469 -3.45451637,2.73676 -2.5342136,-0.97247 -5.6339361,-11.40088 -4.7651989,-16.03161 0.6034095,-3.21648 0.203664,-4.43529 -2.1932027,-6.68704 -1.931867,-1.8149 -3.715096,-2.50481 -5.230789,-2.02375 -1.265388,0.40162 -4.842536,-0.36009 -7.953502,-1.69362 -4.766392,-2.04311 -6.287399,-2.2144 -9.690433,-1.0913 -2.30707,0.76141 -4.599352,2.56725 -5.349971,4.21469 -1.116738,2.45098 -1.856373,2.7657 -4.940635,2.10226 -1.995007,-0.42913 -5.062463,-1.51344 -6.816578,-2.40959 -4.320372,-2.20721 -6.73975,-2.0534 -11.592526,0.73698 -2.263429,1.30149 -6.882246,3.79241 -10.264032,5.53539 -3.886399,2.00306 -6.556187,4.28292 -7.256209,6.19644 -0.609137,1.66505 -2.786892,8.15565 -4.839452,14.42354 l -3.731939,11.39618 1.906144,7.35607 c 3.502208,13.51545 8.374872,17.56141 18.527447,15.38409 7.653639,-1.64142 12.249945,-4.9674 13.93955,-10.08698 1.073028,-3.25132 2.230466,-4.32608 5.695128,-5.28837 5.214407,-1.44826 7.39215,-1.50172 9.394964,-0.23063 1.652638,1.04887 1.071563,2.77473 -6.328276,18.79596 -5.077439,10.99306 -4.711756,11.97639 3.98712,10.72165 7.925263,-1.14315 15.169696,-0.26593 16.015946,1.93937 0.329885,0.85967 -0.206723,6.66078 -1.192457,12.89134 -1.763423,11.14612 -1.75075,11.39545 0.787833,15.50296 1.419034,2.29606 4.079599,4.95009 5.912362,5.89785 2.925798,1.51299 3.843739,1.50949 7.525009,-0.0286 5.8497417,-2.44417 9.0264583,-2.18572 13.08925017,1.06497 3.24864383,2.59927 3.70796253,2.67262 6.26099063,0.99981 1.5153385,-0.99288 3.5825922,-3.45363 4.5938962,-5.46834 2.280354,-4.54283 6.122593,-7.736 9.350095,-7.77057 1.348335,-0.0144 3.699778,-1.35498 5.225427,-2.97895 3.098329,-3.29801 8.553971,-4.37246 5.887442,-1.15948 -2.237753,2.69631 -3.517255,11.3689 -2.074919,14.06393 1.200902,2.24393 1.297419,2.23096 3.482732,-0.4678 1.555932,-1.92149 1.869637,-3.15365 1.019395,-4.00389 -2.028656,-2.02866 -1.417853,-3.71459 2.356852,-6.50535 3.918997,-2.89744 6.950713,-2.60004 10.332475,1.01354 2.479554,2.64953 15.718871,6.231 19.513241,5.27868 5.778156,-1.45022 21.390908,8.04269 27.257066,16.57292 2.793223,4.06175 11.716601,8.1493 15.640471,7.16447 8.07123,-2.02575 19.1371,6.0611 21.7249,15.87638 0.77069,2.92315 1.9326,5.64584 2.58204,6.05043 1.72315,1.07349 -0.85798,5.31527 -6.50054,10.68291 -3.60504,3.4294 -4.46585,4.90581 -3.45163,5.92003 1.01423,1.01423 2.68123,0.12523 6.68428,-3.56465 5.82205,-5.36658 7.76494,-5.91126 10.6816,-2.9946 1.77431,1.77429 1.71983,2.13566 -0.71205,4.72429 -1.44831,1.54167 -3.47076,2.83671 -4.4943,2.87789 -1.07868,0.0434 -0.64274,0.56131 1.03703,1.23203 2.30734,0.92129 3.51101,0.66189 5.90536,-1.27269 6.2358,-5.03838 7.70214,-5.28044 13.24135,-2.18581 3.60105,2.01184 5.04331,3.54359 4.86174,5.16341 -0.5049,4.5038 0.55724,5.50112 3.67972,3.4552 2.48176,-1.62612 4.18438,-1.70335 12.48777,-0.56646 8.83245,1.20933 9.98925,1.69142 14.22674,5.9289 3.14596,3.14597 6.68477,5.21494 11.13002,6.50721 5.96868,1.73515 6.61704,2.26434 7.69953,6.28439 1.5695,5.82868 -0.2694,12.29666 -5.2428,18.44052 -2.12451,2.62451 -4.72856,6.47739 -5.78677,8.56196 -1.05819,2.08456 -3.30857,5.17469 -5.00083,6.86695 -2.8645,2.8645 -3.0239,3.58103 -2.30981,10.38274 1.39503,13.28779 -5.10482,38.07828 -11.37384,43.37992 -2.04108,1.72613 -3.78771,2.13148 -7.02437,1.63023 -2.66041,-0.41202 -4.62976,-0.14623 -5.14967,0.695 -0.46301,0.74919 -3.04211,2.32957 -5.7313,3.51196 -2.68918,1.1824 -6.69284,3.69017 -8.897,5.57282 -3.81501,3.25853 -3.94276,3.61937 -2.65894,7.50939 1.48022,4.48512 0.48339,9.7956 -2.6889,14.32467 -1.02563,1.46429 -1.86478,3.9555 -1.86478,5.53602 0,1.58051 -1.23226,4.51827 -2.73836,6.52836 -1.5061,2.01008 -4.41141,6.61136 -6.45625,10.22506 -5.03077,8.89055 -8.05574,10.43087 -15.35032,7.81642 -6.3305,-2.26899 -9.70615,-2.53996 -9.70615,-0.77919 0,0.66351 1.26191,1.78135 2.80423,2.48407 1.54233,0.70274 3.94582,3.56353 5.34112,6.35731 2.0777,4.16022 2.29755,5.60487 1.21465,7.98159 -1.67755,3.68181 -8.09223,6.77314 -14.05465,6.77314 -5.28092,0 -6.59102,1.29164 -4.76698,4.69987 1.12591,2.10381 0.36855,5.4886 -1.80877,8.08374 -0.17644,0.21029 -2.025699,-0.49929 -4.109475,-1.57685 -4.974296,-2.5723 -6.735262,-0.93378 -4.221268,3.92776 1.022548,1.97738 2.966769,3.94677 4.320513,4.37643 2.326688,0.73845 2.351868,0.90217 0.460252,2.99238 -1.101786,1.21745 -1.673378,3.06524 -1.271872,4.11155 0.431469,1.12439 -0.530845,3.55242 -2.356746,5.94628 -2.968128,3.89143 -3.010434,4.16123 -1.107704,7.06515 1.088051,1.66058 2.785239,3.32889 3.771528,3.70736 3.556857,1.36489 4.146462,6.0283 1.434306,11.34456 -2.717103,5.32594 -3.13408,10.66564 -1.030781,13.19994 1.911777,2.3036 -4.521555,6.7916 -7.414567,5.1726 z M 2.3757727,505.21123 c 3.1556817,-6.59438 9.0279103,-11.50561 13.7569803,-11.50561 3.403931,0 3.443982,0.5524 0.327382,4.51452 l -2.450641,3.11548 2.514359,2.03601 c 2.025893,1.64046 3.0712,1.78228 5.38062,0.73004 1.576436,-0.71827 3.192319,-2.3333 3.590848,-3.58894 0.54223,-1.70842 1.423959,-2.10747 3.503424,-1.58556 1.924994,0.48315 3.130147,0.0697 3.922245,-1.34576 2.399831,-4.28824 -3.707325,-9.77249 -8.20311,-7.36642 -3.21679,1.72157 -7.419563,-1.70358 -6.52255,-5.31573 0.332471,-1.33884 -0.351546,-3.66897 -1.535937,-5.2322 -2.441204,-3.22205 -6.155096,-3.56133 -14.2836203,-1.30487 -2.92315226,0.81145 -6.256408,1.43896 -7.4072206,1.39445 -1.1508244,-0.0445 -1.7838079,0.4184 -1.4066445,1.02867 0.3771752,0.61027 0.2557965,1.12142 -0.2697332,1.13586 -0.5255296,0.0144 -2.2780391,1.04239 -3.8944774,2.28432 l -2.938955,2.25807 3.300611,1.25489 c 2.5799565,0.9809 4.1011177,0.84093 6.9669998,-0.64107 3.36814464,-1.74174 3.99189218,-1.74075 7.6677532,0.0122 2.2142141,1.05588 5.2370488,1.59798 6.768025,1.21373 1.521669,-0.38192 3.092648,-0.16695 3.491058,0.47772 0.40721,0.65886 -1.256553,1.50679 -3.79959,1.93643 -6.9121505,1.1678 -10.50325783,4.0461 -15.516777,12.43679 -4.1875957,7.00844 -4.4278375,7.85369 -2.7586762,9.70635 1.6377211,1.81776 2.0899535,1.84645 4.3366706,0.27513 1.3795507,-0.96485 3.83698283,-4.53085 5.4609563,-7.92445 z m 21.4580403,7.29014 c 4.204319,-2.14488 4.608801,-2.68365 3.127135,-4.16532 -1.481666,-1.48166 -2.41789,-1.38503 -7.238127,0.74719 -5.659695,2.50356 -7.455762,5.88167 -3.127135,5.88167 1.325056,0 4.582216,-1.10859 7.238127,-2.46354 z m 20.941663,-8.92441 c 2.460173,-1.72318 2.551186,-2.06121 0.816345,-3.03207 -2.554138,-1.42937 -10.146043,1.03349 -10.146043,3.29143 0,2.32648 5.870918,2.16325 9.329698,-0.25936 z m 88.699244,510.03644 c 0,-0.5197 0.63778,-1.5827 1.41729,-2.3622 0.77951,-0.7795 0.97097,-1.4173 0.42547,-1.4173 -0.54549,0 -1.62911,0.8716 -2.40804,1.9368 -1.11836,1.5295 -1.89097,1.6612 -3.67342,0.6265 -1.27408,-0.7396 -1.58381,-1.326 -0.71114,-1.3463 0.85032,-0.02 1.21756,-0.5674 0.81609,-1.217 -0.77101,-1.2475 1.25573,-1.5876 7.08643,-1.1892 5.20403,0.3555 5.72731,1.1154 2.5107,3.6455 -2.99638,2.357 -5.46338,2.9545 -5.46338,1.3232 z m 986.35068,-29.64172 c -3.3792,-2.14075 3.6576,-6.86812 21.1034,-14.17739 4.8719,-2.04118 12.2957,-6.30992 16.4973,-9.48609 7.1447,-5.40104 7.7372,-5.63494 9.153,-3.61355 2.1494,3.06873 0.8827,5.28991 -4.3668,7.65711 -2.5085,1.13117 -5.6625,3.3237 -7.009,4.87228 -1.3465,1.54859 -3.5131,2.81561 -4.8147,2.81561 -1.3016,0 -4.3611,1.78995 -6.7989,3.97767 -8.3448,7.4886 -18.9148,11.02657 -23.7643,7.95436 z m -82.6575,-15.34313 c -1.2273,-0.77762 -1.2958,-1.57811 -0.2953,-3.44748 0.7166,-1.33909 1.303,-4.09991 1.303,-6.13516 0,-3.32708 0.2681,-3.60613 2.6574,-2.7657 1.4616,0.51411 4.5176,1.00429 6.7912,1.08928 2.2735,0.085 4.5446,0.23165 5.0468,0.32591 1.9576,0.36748 -3.2745,6.32286 -7.9755,9.07783 -5.5989,3.28115 -5.3675,3.22412 -7.5276,1.85532 z m 136.4773,-10.32801 c -0.411,-0.41104 0.562,-1.77724 2.1622,-3.03602 2.4102,-1.89581 2.6912,-2.69673 1.6374,-4.66574 -1.5246,-2.84896 0.7403,-5.90622 5.9852,-8.07873 4.0634,-1.68311 5.0867,-5.09866 3.9971,-13.34163 -0.7496,-5.67077 -0.6579,-6.02466 1.1695,-4.51334 1.4348,1.18662 1.7875,2.6815 1.2759,5.40826 -0.5606,2.98831 -0.057,4.54149 2.4359,7.50331 2.6928,3.20027 3.4927,3.54764 5.5874,2.42657 2.0877,-1.11723 2.3324,-1.01538 1.6751,0.69722 -0.4233,1.10309 -0.7696,2.21423 -0.7696,2.46922 0,0.25498 -1.7273,1.34804 -3.8385,2.42902 -2.1111,1.08097 -6.2301,3.94004 -9.1533,6.35349 -4.7534,3.92456 -9.6451,7.09569 -10.9457,7.09569 -0.2592,0 -0.8076,-0.3363 -1.2186,-0.74732 z m -124.8936,-15.25419 c -2.4868,-2.64718 -2.9466,-2.74916 -5.3362,-1.18352 -3.0449,1.99511 -8.7664,0.82923 -13.3522,-2.72081 -2.4465,-1.89385 -2.6166,-2.50415 -1.355,-4.86166 1.0766,-2.01153 1.1123,-3.42172 0.1404,-5.5548 -0.7165,-1.57236 -1.3027,-3.89681 -1.3027,-5.16542 0,-2.86159 -1.8577,-2.99812 -3.3959,-0.24954 -0.6332,1.13138 -1.4896,1.71866 -1.903,1.3051 -0.4137,-0.41356 0.9541,-2.69522 3.0396,-5.07034 5.1321,-5.84509 3.1292,-7.432 -3.6498,-2.8919 -2.9211,1.9563 -5.5002,4.09349 -5.7315,4.74929 -0.2312,0.65581 -1.6351,-1.36826 -3.1196,-4.49795 -1.6096,-3.39364 -4.3896,-6.80403 -6.8877,-8.44963 -3.7531,-2.4724 -5.0251,-2.67603 -12.2344,-1.9585 -10.57248,1.05226 -20.77269,3.65919 -27.44905,7.01533 -3.03488,1.52561 -8.95689,3.08736 -13.52386,3.56655 -4.4687,0.46886 -11.57568,2.15137 -15.79329,3.73888 -6.44995,2.42775 -8.28581,2.68265 -11.55372,1.60415 -4.38378,-1.44677 -6.20452,-4.42876 -3.36865,-5.51699 1.02671,-0.39398 2.89032,-3.10425 4.14131,-6.02279 2.00263,-4.67182 2.11329,-6.12647 0.92573,-12.16266 -0.98254,-4.99413 -1.00982,-9.72286 -0.1004,-17.41141 0.68644,-5.80538 0.94911,-11.69821 0.58381,-13.09518 -0.36531,-1.39696 0.20539,-4.81699 1.26823,-7.60005 1.87401,-4.90694 2.32801,-5.22762 14.99867,-10.59435 7.18646,-3.04383 14.5423,-5.53424 16.3465,-5.53424 4.88172,0 10.92669,-4.64469 14.2592,-10.95621 2.05967,-3.90088 3.48841,-5.38502 4.72428,-4.9074 3.4498,1.33326 4.1308,1.07143 3.86506,-1.48603 -0.17102,-1.6451 0.53573,-2.84159 1.94192,-3.28791 1.21591,-0.38592 3.46278,-2.5365 4.9931,-4.77908 1.56657,-2.29584 4.78771,-4.88259 7.37213,-5.92018 4.31163,-1.7311 4.74103,-1.70524 7.08643,0.42657 4.3271,3.9333 7.3936,5.08151 8.8582,3.31684 0.7121,-0.85811 0.957,-1.898 0.5442,-2.31086 -1.3521,-1.352 4.8339,-9.11374 7.8575,-9.85931 1.624,-0.40043 4.9582,-1.73275 7.4094,-2.9607 3.8224,-1.91492 5.1669,-2.04189 9.4486,-0.89233 9.2335,2.47912 9.5401,2.88458 6.1055,8.07445 -4.4169,6.67441 -3.2457,9.28429 7.5881,16.90995 5.0019,3.52063 9.7238,6.19132 10.4932,5.93486 0.7693,-0.25646 3.202,-2.95216 5.4058,-5.99045 3.0035,-4.14046 4.168,-7.1513 4.6495,-12.02008 0.6838,-6.91621 3.9919,-16.535 5.6866,-16.535 0.561,0 1.8468,2.84445 2.8575,6.32098 1.0106,3.47654 3.1284,7.53377 4.7063,9.01607 3.6873,3.46411 5.8293,13.15055 4.1735,18.87377 -1.0971,3.79215 -0.8854,4.40075 2.8747,8.2675 2.2323,2.29571 5.7628,7.89439 7.8455,12.44151 2.0827,4.54713 5.8379,10.98093 8.3449,14.29735 l 4.5583,6.02983 -1.2958,9.31601 c -0.94,6.75846 -2.3954,11.26368 -5.3013,16.41052 -4.4515,7.88405 -11.107,15.40716 -14.6154,16.52073 -1.2617,0.4004 -4.1844,3.3595 -6.495,6.57581 -2.3108,3.21629 -4.7213,5.8478 -5.3569,5.8478 -0.6355,0 -3.3373,2.76013 -6.0038,6.13363 -4.4475,5.62631 -5.2662,6.14148 -9.9,6.22857 -3.5563,0.0669 -6.2791,1.03126 -9.1991,3.25848 l -4.1476,3.16354 -2.7214,-2.89679 z M 472.83867,918.21411 c -2.50124,-2.50123 -2.91916,-3.78062 -2.36018,-7.22521 0.52607,-3.24181 0.025,-5.14854 -2.22169,-8.45491 -1.59552,-2.34801 -2.90095,-4.84698 -2.90095,-5.55325 0,-0.70627 -2.08854,-4.08341 -4.6412,-7.50475 -3.9453,-5.28789 -4.75595,-7.40067 -5.40655,-14.09089 -1.14797,-11.8048 -4.91723,-24.58213 -9.9837,-33.84353 -2.49062,-4.55281 -4.88322,-10.46423 -5.31689,-13.13648 -0.92275,-5.68599 1.3862,-14.14894 6.65781,-24.40254 l 3.50673,-6.82082 -1.97045,-5.9325 c -1.10231,-3.31873 -1.64084,-7.24581 -1.22231,-8.91334 0.48985,-1.95175 -0.0366,-4.27667 -1.5249,-6.73436 -1.25016,-2.06444 -3.10669,-6.67668 -4.12561,-10.24942 -1.36098,-4.77214 -3.25821,-7.87498 -7.14956,-11.69285 -7.48538,-7.34405 -8.45862,-10.23523 -6.13546,-18.22661 4.72923,-16.26798 -0.37987,-25.75607 -12.86114,-23.88438 -4.85942,0.72871 -5.04539,0.63801 -5.73205,-2.79533 -0.52682,-2.63404 -1.95432,-4.18344 -5.53938,-6.0124 -4.65834,-2.3765 -6.65213,-2.38549 -12.37232,-0.0557 -1.29917,0.52912 -6.614,2.36288 -11.81071,4.07502 -7.81395,2.57443 -10.16015,2.90661 -13.56165,1.9201 -3.22216,-0.9345 -5.93625,-0.69271 -12.53014,1.1163 -6.81364,1.86929 -9.28341,2.06997 -12.9649,1.05346 -7.682,-2.1211 -20.88003,-14.01688 -22.75734,-20.51187 -1.45274,-5.02611 -10.48773,-16.73988 -13.5626,-17.58379 -1.95406,-0.5363 -2.19443,-0.9515 -0.99792,-1.72372 1.20343,-0.77666 0.99393,-1.16949 -0.88581,-1.66105 -2.98478,-0.78055 -3.28178,-3.21995 -0.3951,-3.2452 1.76635,-0.0155 1.80928,-0.18455 0.29527,-1.16299 -1.11581,-0.72109 -1.23986,-1.15159 -0.33511,-1.16299 0.93797,-0.0118 0.58096,-1.46813 -1.02867,-4.19624 -2.2654,-3.83957 -2.31255,-4.3468 -0.58179,-6.25927 5.28404,-5.83879 6.44181,-18.4102 2.42495,-26.33077 -1.91759,-3.78116 -0.68451,-9.00432 3.40764,-14.43446 1.5407,-2.04445 4.54879,-7.01913 6.68464,-11.05485 3.73616,-7.05955 12.06431,-16.87434 14.31836,-16.87434 2.49437,0 10.54213,-8.65204 10.54213,-11.33372 0,-6.05422 3.61985,-12.09065 9.5213,-15.87759 3.17106,-2.03487 6.88696,-5.51423 8.25757,-7.73191 2.80347,-4.53612 3.20051,-4.68403 6.46556,-2.40857 1.28132,0.89296 4.46516,1.9818 7.07519,2.41965 3.98079,0.6678 5.88406,0.18718 11.81071,-2.98247 10.19801,-5.45404 16.50011,-6.81609 28.16887,-6.08811 7.69599,0.48013 11.16045,0.17315 14.891,-1.31952 5.49361,-2.19811 10.24305,-0.89724 8.95729,2.4534 -0.38639,1.0069 -0.15044,2.49594 0.52431,3.30897 0.84914,1.02314 0.84252,2.4891 -0.0215,4.76155 -1.08539,2.85481 -0.84466,3.70462 1.8446,6.51161 1.70109,1.77555 4.747,3.55911 6.76866,3.96344 9.49197,1.89839 12.1909,3.1278 14.15103,6.44605 1.43587,2.43072 3.31848,3.67856 6.43065,4.26242 2.42024,0.45404 5.93462,1.61887 7.80972,2.58853 3.18429,1.64666 3.59691,1.58673 6.25242,-0.90798 1.78521,-1.67713 2.59497,-3.45288 2.17618,-4.77233 -0.36682,-1.15574 -0.0873,-3.18438 0.62112,-4.5081 1.82731,-3.41435 7.01536,-3.07929 15.11622,0.97626 8.82561,4.41838 25.56217,7.57092 31.49568,5.93259 2.85404,-0.78803 5.59779,-0.79839 8.09607,-0.0306 8.16096,2.50825 12.34027,0.54497 13.45436,-6.3203 0.37002,-2.2802 1.00185,-4.14582 1.40404,-4.14582 0.76335,0 1.163,-3.42847 1.27351,-10.92491 0.0359,-2.43596 0.61165,-4.42902 1.27942,-4.42902 0.79542,0 0.75625,-0.85554 -0.1135,-2.48078 -1.45253,-2.71407 -4.39795,-2.6521 -11.44753,0.24084 -3.34323,1.37198 -4.27373,1.31367 -7.26865,-0.45548 -3.88344,-2.294 -7.86902,-2.63813 -9.01824,-0.77865 -0.85455,1.38268 -6.89346,0.4135 -10.16883,-1.63201 -2.35316,-1.46953 -4.55186,-5.84359 -4.55186,-9.05535 0,-1.23178 -1.19583,-3.08195 -2.65741,-4.11148 -2.26205,-1.59338 -2.39383,-2.04438 -0.8858,-3.03139 0.97438,-0.63775 2.97866,-0.87557 4.45395,-0.52849 1.88169,0.44269 3.61177,-0.29839 5.79621,-2.48283 2.05569,-2.05569 4.55574,-3.19041 7.35677,-3.33907 2.33359,-0.12386 5.71379,-1.19446 7.51155,-2.37911 3.90282,-2.5718 12.76363,-1.85713 19.63831,1.58393 9.27057,4.6403 17.50378,4.36739 20.81753,-0.69004 1.72401,-2.63117 1.7335,-3.18386 0.0974,-5.68079 -0.99681,-1.52133 -5.78514,-5.02637 -10.64071,-7.78899 l -8.82835,-5.02295 1.65405,-3.19857 c 0.90973,-1.75921 1.35628,-3.49634 0.99235,-3.86027 -0.36394,-0.36393 -0.22481,-1.36142 0.30915,-2.21662 0.53398,-0.8552 1.07487,-2.24118 1.20199,-3.07994 0.27112,-1.78896 -1.63353,-1.29515 -11.02608,2.85868 -5.45256,2.41138 -6.26284,3.15019 -5.0533,4.6076 0.79229,0.95463 2.57128,1.7592 3.95331,1.78791 1.93847,0.0403 1.47942,0.59743 -2.00834,2.43762 -4.23469,2.23429 -4.70738,2.26339 -7.46074,0.45932 -2.35432,-1.54261 -2.66223,-2.26031 -1.54647,-3.60472 1.10756,-1.33452 0.94219,-1.84804 -0.80677,-2.5052 -1.20993,-0.45462 -2.76989,-1.58631 -3.46657,-2.51487 -3.38303,-4.50903 -14.1159,7.35271 -17.2374,19.05043 -1.46516,5.49064 -1.41637,5.7763 1.34192,7.85689 l 2.86236,2.15908 -5.25135,1.08297 c -2.88824,0.59564 -6.78081,0.66517 -8.65015,0.15452 -3.44973,-0.94235 -7.82138,0.47785 -7.82138,2.5409 0,0.60635 -0.80399,0.79393 -1.78664,0.41684 -0.98267,-0.37708 -2.54273,-0.0581 -3.46681,0.70881 -1.43325,1.18948 -1.27098,2.16397 1.10412,6.63095 2.57287,4.83889 2.65242,5.5009 1.04759,8.71786 -2.01087,4.03089 -3.88094,3.73105 -6.72154,-1.07769 -1.9803,-3.35239 -1.96706,-3.42952 0.65304,-3.80145 3.30672,-0.46939 3.51958,-2.57427 0.3122,-3.08712 -7.31757,-1.17003 -11.22018,-5.02605 -11.22018,-11.08627 0,-4.7291 -4.38384,-9.94231 -9.69997,-11.53507 -2.76257,-0.82768 -5.76579,-2.56558 -6.67384,-3.86198 -0.90803,-1.29642 -3.56587,-3.15721 -5.90629,-4.1351 -2.34042,-0.97789 -4.95983,-2.7838 -5.82089,-4.01314 -1.23586,-1.76444 -2.04831,-1.97681 -3.85783,-1.00837 -1.26074,0.67472 -2.29225,1.9869 -2.29225,2.91596 0,3.06652 15.05404,16.93946 22.41233,20.65392 7.80206,3.93847 9.02081,5.34482 3.60006,4.15423 -4.83276,-1.06146 -6.1492,0.001 -4.49618,3.62912 1.16112,2.54836 0.97111,3.32361 -1.36466,5.56792 l -2.7136,2.60734 0.6175,-3.51832 c 0.9802,-5.58484 -6.38335,-13.60722 -12.48974,-13.60722 -2.23836,0 -10.83824,-8.34211 -13.09115,-12.69876 -2.40728,-4.65517 -5.086,-5.55448 -8.88071,-2.98148 -5.7164,3.87601 -10.00251,5.18641 -14.48615,4.42891 -5.9565,-1.00635 -9.70395,1.07073 -8.75478,4.85249 0.49553,1.97434 0.21972,2.85563 -0.89369,2.85563 -0.88572,0 -3.15464,1.32805 -5.04206,2.95124 -1.88741,1.62318 -3.83807,2.95188 -4.33481,2.95268 -1.46111,0.002 -5.58351,7.46388 -5.58831,10.11485 -0.005,2.5354 -4.62338,7.53082 -9.08008,9.82049 -1.41887,0.72897 -4.72194,1.32539 -7.34014,1.32539 -3.60223,0 -5.07808,0.59361 -6.06622,2.43998 -1.29406,2.41798 -1.33339,2.41243 -4.36029,-0.61446 -2.83969,-2.8397 -4.47455,-3.55047 -10.20542,-4.43696 -3.01103,-0.46575 -3.51942,-7.2817 -1.26743,-16.99213 0.96271,-4.15109 1.43529,-8.80281 1.05019,-10.33716 -1.11914,-4.45903 2.38423,-7.08848 8.24495,-6.18822 13.53311,2.07879 21.4491,2.19363 23.30465,0.33808 2.54946,-2.54946 3.69948,-10.9579 2.14354,-15.67247 -1.01484,-3.07496 -2.41048,-4.33211 -6.57505,-5.92257 -6.12495,-2.33914 -6.25404,-4.60187 -0.26597,-4.66202 2.28141,-0.0229 5.57262,-0.9751 7.3138,-2.11597 1.74117,-1.14085 3.66664,-1.76474 4.2788,-1.3864 1.66961,1.03187 7.99184,-2.61223 10.09148,-5.81668 1.01468,-1.54862 3.01274,-3.11339 4.44013,-3.47726 1.42739,-0.36388 5.25266,-3.13698 8.50061,-6.16243 4.60459,-4.28917 7.02071,-5.63398 10.96901,-6.10531 4.89159,-0.58393 9.81058,-4.60649 7.50125,-6.13423 -1.43532,-0.94954 -2.63445,-6.66852 -1.83503,-8.75178 0.37875,-0.98703 2.0508,-2.68712 3.71564,-3.77797 l 3.02699,-1.98336 -0.77711,4.85977 c -0.67448,4.21795 -0.50242,4.81386 1.30286,4.51217 1.14398,-0.19118 3.28369,-1.0089 4.7549,-1.81713 2.24016,-1.23068 2.78954,-1.17086 3.38007,0.36806 1.01215,2.63759 -1.80189,5.73901 -3.74442,4.12685 -1.07299,-0.8905 -1.75372,-0.85824 -2.35307,0.11149 -0.61827,1.00037 -1.10198,0.94601 -1.81254,-0.20371 -0.53307,-0.86252 -1.24034,-1.29711 -1.5717,-0.96574 -0.33138,0.33138 0.61281,2.12663 2.09817,3.98945 2.50386,3.14014 2.98117,3.28918 6.54963,2.0452 3.05624,-1.06541 4.52387,-0.99275 7.12588,0.35281 2.9375,1.51904 3.92927,1.44669 9.57521,-0.6986 4.94673,-1.8796 6.89648,-2.12061 9.08583,-1.12308 2.01407,0.91767 3.50616,0.89876 5.37745,-0.0681 5.31239,-2.74503 6.78402,-4.81493 6.1245,-8.61432 -0.97759,-5.63164 0.81278,-7.47633 5.52854,-5.69632 3.20883,1.2112 4.14641,1.16308 5.59669,-0.2872 1.53548,-1.53548 1.40343,-2.10269 -1.11306,-4.78137 -2.42109,-2.57714 -2.59055,-3.21779 -1.11456,-4.21365 0.95737,-0.64593 4.54513,-0.87736 7.97283,-0.5143 6.27301,0.66444 14.09026,-1.78608 12.72818,-3.98997 -1.19282,-1.93002 -8.39291,-2.48773 -14.49289,-1.12261 -5.40985,1.21067 -6.82973,1.11275 -10.97604,-0.75698 -6.43981,-2.90394 -7.19839,-6.30151 -2.78142,-12.45759 5.68534,-7.92385 6.72498,-10.449 5.10543,-12.40042 -2.39807,-2.8895 -4.75399,-1.94745 -10.23234,4.09157 -2.89482,3.19107 -6.83949,6.45483 -8.76595,7.25279 -1.92644,0.79796 -4.30939,3.01093 -5.29542,4.91769 -1.60582,3.10533 -1.6033,3.75604 0.0242,6.23996 0.99935,1.52521 2.89413,3.11498 4.21061,3.53281 3.623,1.1499 2.9063,3.30824 -2.27595,6.85402 -1.59388,1.09056 -3.71981,4.17584 -4.72428,6.8562 -1.2587,3.35866 -3.17247,5.65054 -6.15733,7.37379 -4.20794,2.42938 -4.39899,2.43888 -6.72422,0.33457 -1.31627,-1.19122 -2.71278,-3.62075 -3.10335,-5.39899 -0.39056,-1.77823 -2.16434,-4.97507 -3.94172,-7.10408 l -3.23161,-3.87095 -4.09745,2.49785 c -2.2536,1.37383 -5.16042,2.48803 -6.4596,2.47602 -3.74789,-0.0346 -8.08677,-4.08315 -8.37721,-7.81651 -0.14433,-1.85515 -0.62641,-4.28294 -1.07132,-5.39509 -1.05826,-2.64536 4.23065,-7.60665 9.72671,-9.12418 5.51604,-1.52305 16.7039,-9.36389 18.61052,-13.0429 0.84812,-1.63651 3.72153,-4.92965 6.38534,-7.31808 2.66383,-2.38843 4.84331,-4.86901 4.84331,-5.51241 0,-0.64339 2.52454,-2.06942 5.61009,-3.16895 3.08555,-1.09953 8.2675,-3.09452 11.51545,-4.43331 3.98756,-1.64366 8.97383,-2.51266 15.35393,-2.67587 11.1478,-0.28516 18.43842,1.19251 24.45389,4.95634 3.01834,1.88855 5.40063,2.53284 7.67981,2.077 4.07783,-0.81556 25.81494,5.92197 26.72065,8.2822 0.91032,2.37227 -5.32396,4.61159 -10.68793,3.83904 -2.45672,-0.35383 -7.53754,-1.30004 -11.29072,-2.10269 -5.05249,-1.08051 -7.16867,-1.11462 -8.15191,-0.1314 -0.98321,0.98323 -0.49182,1.70892 1.89298,2.79551 1.77151,0.80715 3.98925,2.95331 4.92829,4.76924 2.39102,4.62372 10.04911,8.393 14.00015,6.89081 3.7962,-1.44331 3.76988,-1.89854 -0.23547,-4.07147 -3.70458,-2.00978 -1.99468,-2.44427 2.65786,-0.67538 3.71476,1.41235 7.92339,-0.34472 6.94331,-2.89876 -0.45905,-1.19627 0.83172,-2.05995 4.473,-2.99298 7.79225,-1.99666 8.36253,-2.2821 7.71624,-3.86222 -2.44464,-5.97689 -2.47893,-5.80512 1.07801,-5.399 1.8981,0.21672 3.2847,1.02843 3.12691,1.83047 -0.15592,0.7926 0.83316,2.0387 2.19799,2.76913 2.05015,1.09721 3.66751,0.70636 9.30469,-2.24857 8.26617,-4.33301 14.70171,-5.74569 17.10154,-3.754 1.33816,1.11057 3.55676,1.11837 9.97912,0.0351 4.54213,-0.76613 8.77435,-1.0741 9.40492,-0.68438 0.63058,0.38972 1.49473,0.14514 1.92033,-0.5435 0.93072,-1.50594 -1.64316,-4.923 -3.05225,-4.05214 -1.70102,1.05129 -7.28701,-0.83201 -6.0719,-2.04712 1.22357,-1.22357 34.09221,6.43545 36.05926,8.40251 1.32605,1.32605 5.5243,-0.44289 5.5243,-2.32768 0,-0.63517 -2.34408,-2.29371 -5.20906,-3.68562 -8.88313,-4.31575 -9.45346,-11.22778 -1.09947,-13.3245 4.84848,-1.2169 6.94519,0.18688 13.6512,9.13969 8.70634,11.62334 8.48439,11.03199 5.6399,15.0267 -2.10633,2.95808 -2.23322,3.65036 -0.77182,4.21115 2.769,1.06256 8.69522,-2.65556 9.52927,-5.97869 0.97727,-3.89378 -0.84749,-7.21221 -5.20502,-9.46557 -3.42576,-1.77153 -5.90536,-5.0176 -5.90536,-7.73076 0,-0.92483 1.28488,-1.15548 3.83848,-0.68905 3.82867,0.69933 6.99563,-0.68918 15.66593,-6.86849 1.98285,-1.41318 5.33497,-2.34443 8.71486,-2.42108 6.85583,-0.15549 9.07481,-1.30642 7.10193,-3.6836 -0.7737,-0.93225 -1.16083,-1.94091 -0.86027,-2.24146 1.50838,-1.50838 20.95241,-4.22639 25.4306,-3.55485 4.30871,0.64614 5.64266,0.29662 9.18773,-2.40733 2.28095,-1.73977 4.14718,-3.63161 4.14718,-4.20411 0,-1.44367 -10.32099,-1.31473 -11.22018,0.14019 -1.23724,2.0019 -2.84097,1.30531 -2.3897,-1.03797 0.38103,-1.97852 -0.61845,-2.30047 -9.22112,-2.97027 -23.49127,-1.82903 -25.40056,-2.25822 -22.58243,-5.07636 2.47772,-2.47772 8.5548,-2.42968 13.64135,0.10782 2.08411,1.03969 5.53644,1.89035 7.67187,1.89035 2.13542,0 4.21106,0.53148 4.61253,1.18107 0.40147,0.64959 2.47012,1.18107 4.59701,1.18107 5.89063,0 17.2796,2.54437 16.56493,3.70071 -0.34793,0.56297 0.75387,1.02358 2.44844,1.02358 1.69457,0 4.78196,0.91527 6.86087,2.03393 2.79576,1.5044 6.70096,2.04563 15.00001,2.07887 8.92075,0.0357 11.88581,0.49389 14.46812,2.23565 1.78638,1.2049 3.2403,2.5282 3.23093,2.94069 -0.009,0.41248 -2.73508,2.24952 -6.05716,4.08232 -8.02308,4.42635 -6.32672,6.35538 3.37749,3.84076 6.28559,-1.62876 7.72992,-1.63923 12.9341,-0.0937 4.26974,1.26798 6.93576,1.43076 9.83145,0.60029 2.89077,-0.82906 5.85803,-0.65103 10.89257,0.65355 5.25305,1.36121 7.97569,1.49968 11.30519,0.57498 7.59807,-2.11021 16.94558,-1.51422 22.36852,1.42619 2.69555,1.46158 7.66644,4.16592 11.04643,6.00964 5.99142,3.26822 6.25225,3.30434 10.40792,1.4413 3.47839,-1.55942 5.41897,-1.68985 10.54929,-0.70905 5.09937,0.97488 6.95553,0.85607 9.82741,-0.62904 2.80964,-1.45292 3.26163,-2.16709 2.18927,-3.4592 -2.07374,-2.49871 5.28416,-3.42758 14.32458,-1.80836 4.1406,0.74162 9.38856,1.48191 11.66213,1.64509 2.27356,0.16318 6.71557,1.4588 9.87116,2.87916 4.81227,2.16611 8.44371,2.6568 22.52433,3.04354 13.36052,0.36697 17.61368,0.90163 20.8367,2.61936 3.27157,1.74354 7.00022,2.18704 19.40371,2.30796 11.41093,0.11125 16.52355,0.65239 19.90838,2.10721 5.46402,2.3484 7.64992,1.48711 4.67572,-1.84233 -2.13925,-2.39495 -2.12649,-2.39824 6.1238,-1.57864 13.8249,1.3734 30.4085,4.39865 36.0226,6.57136 2.9232,1.13129 8.4946,2.44588 12.3808,2.9213 3.8861,0.47543 9.5568,2.1267 12.6014,3.66949 4.6211,2.34169 6.1228,2.60038 9.0901,1.56595 4.0578,-1.41458 6.6904,-0.39593 12.8874,4.98661 l 3.8505,3.34449 -2.902,0.72836 c -2.912,0.73088 -10.6453,-1.18356 -13.3101,-3.29506 -0.7835,-0.62085 -1.8821,-0.84602 -2.4415,-0.50036 -0.5592,0.34565 -3.3216,-0.1656 -6.1385,-1.13611 -6.5976,-2.27305 -9.5271,-1.41925 -6.5223,1.90093 2.0521,2.2676 2.0077,2.31524 -1.9062,2.04225 -7.324,-0.51084 -5.3108,1.65194 5.4413,5.84571 5.8464,2.28028 10.8801,4.38839 11.186,4.68469 1.1082,1.07301 -2.5461,2.40316 -5.2054,1.8948 -2.9196,-0.55812 -10.1143,2.57544 -10.1143,4.40516 0,0.6076 -1.1368,2.16385 -2.5263,3.45833 -2.3211,2.16241 -2.8008,2.21166 -5.9054,0.60622 -2.9053,-1.50241 -3.8343,-1.518 -6.627,-0.1112 -1.7863,0.8999 -4.8394,2.01924 -6.7845,2.48742 -1.9451,0.46818 -4.1984,1.4004 -5.0071,2.07159 -2.3769,1.97269 1.8143,7.71459 7.7171,10.57202 3.2147,1.55627 5.5425,3.64149 6.2345,5.585 0.6073,1.70582 1.8949,4.5073 2.8612,6.22554 1.5751,2.80033 1.5615,3.19911 -0.1306,3.84844 -1.2402,0.47594 -1.6057,1.42984 -1.0654,2.7813 0.4522,1.1313 0.9634,3.38563 1.1358,5.0096 0.1724,1.62397 0.6932,3.83476 1.1572,4.91286 0.6043,1.40353 0.1051,2.19453 -1.7565,2.78548 -2.0723,0.65771 -3.4687,-0.13467 -6.8765,-3.90195 -2.352,-2.6 -6.2749,-6.17958 -8.7176,-7.95464 -2.4428,-1.77504 -6.8195,-6.39089 -9.726,-10.25744 -5.1271,-6.8204 -5.2323,-7.13121 -3.531,-10.4214 0.9646,-1.86523 1.7726,-4.61355 1.7956,-6.10739 0.024,-1.49383 0.7726,-4.03603 1.6656,-5.64933 1.7057,-3.08142 1.0484,-5.54164 -2.5984,-9.72525 -2.3944,-2.7469 -6.6545,-0.68778 -5.5802,2.69716 0.9897,3.11843 -2.047,4.12896 -5.5394,1.8433 -1.514,-0.99092 -4.9997,-2.16029 -7.7458,-2.5986 -4.7148,-0.75253 -5.0651,-0.60779 -6.28658,2.59772 -0.71148,1.86706 -1.00994,4.81857 -0.66329,6.55892 0.53999,2.71169 0.16464,3.26652 -2.62505,3.87922 -1.89834,0.41696 -5.14888,-0.0763 -7.79838,-1.18332 -2.91004,-1.21588 -5.6506,-1.58346 -7.62346,-1.02251 -1.69413,0.48168 -7.42209,0.91896 -12.72877,0.97174 -8.40639,0.0836 -10.02588,0.45055 -12.58077,2.8505 -1.61275,1.51501 -3.55042,5.23538 -4.30607,8.2675 -0.75553,3.03213 -2.14022,6.69602 -3.07705,8.14197 -1.61913,2.49915 -1.46264,2.75172 3.16587,5.113 5.0238,2.56297 10.50126,3.23816 14.65367,1.80632 3.20283,-1.10444 12.97372,6.51322 16.02443,12.49319 1.24969,2.44949 3.31526,5.01191 4.59023,5.69426 4.82421,2.58182 5.80414,19.52156 1.76995,30.59637 -2.79311,7.66789 -5.91882,10.17506 -10.50917,8.42978 -1.75401,-0.66684 -3.36653,-1.21245 -3.58337,-1.21245 -0.21697,0 -1.53091,2.18041 -2.91997,4.84535 -1.82404,3.49939 -2.17955,5.26225 -1.27992,6.34619 1.72117,2.07391 0.44727,4.77135 -2.9939,6.33924 -1.58831,0.72365 -2.88772,1.83032 -2.88772,2.45926 0,0.62896 3.69522,3.68658 8.21152,6.79475 5.74567,3.95423 8.81575,6.99132 10.22383,10.114 1.1069,2.45454 1.79641,4.6578 1.53244,4.89612 -0.26409,0.23832 -2.6782,1.54143 -5.36479,2.8958 l -4.88455,2.46249 -2.93898,-6.74633 c -3.2894,-7.55057 -6.1111,-10.58704 -11.08164,-11.9248 -2.50293,-0.67365 -3.3748,-1.62868 -3.3748,-3.69681 0,-1.89574 -1.2256,-3.50664 -3.8282,-5.03154 -3.7916,-2.22161 -3.86707,-2.21899 -7.9022,0.27488 -4.03868,2.49601 -4.08497,2.49758 -5.32522,0.18035 -0.68797,-1.28567 -1.25099,-3.15105 -1.25099,-4.14528 0,-0.99423 -0.99269,-2.33899 -2.20612,-2.98836 -1.80456,-0.96579 -2.94382,-0.38229 -6.26039,3.2064 -2.22998,2.41287 -5.08687,4.97413 -6.34861,5.69169 -1.95775,1.11334 -2.06215,1.5841 -0.71254,3.21037 0.86997,1.04815 3.8732,3.1865 6.674,4.75191 4.45476,2.48978 5.30749,2.63117 6.80946,1.12909 1.42804,-1.42794 2.58998,-1.48018 6.90018,-0.31027 l 5.18313,1.40684 -2.88855,1.93067 c -5.35745,3.58083 -7.04662,5.46056 -7.81137,8.6922 -0.6275,2.65214 -0.2531,3.44993 2.12782,4.53479 1.58913,0.72405 4.0049,3.61267 5.36844,6.41916 1.36343,2.80647 4.08698,6.05252 6.05229,7.21343 4.3226,2.55341 5.57643,5.26639 3.07976,6.66358 -2.32742,1.30252 -1.21591,3.24913 1.85535,3.24913 3.67833,0 3.69958,2.19414 0.14432,14.85848 -4.30559,15.33719 -8.1925,20.45459 -18.36212,24.17484 -4.00513,1.46514 -8.87646,2.75216 -10.82523,2.86002 -4.52988,0.25075 -8.04274,2.16892 -11.1075,6.06503 l -2.43254,3.09258 -1.13454,-2.98405 c -1.48012,-3.89301 -4.87428,-4.87186 -9.74596,-2.81073 -4.46449,1.88886 -7.40777,4.90087 -8.59504,8.79575 -1.0624,3.48527 2.69939,9.6156 8.9273,14.5482 5.1133,4.04983 10.84977,14.21145 12.19702,21.60576 1.17174,6.43132 -0.90423,10.65273 -6.47369,13.16422 -2.5372,1.1441 -4.91142,3.02025 -5.2761,4.16922 -0.87574,2.75924 -6.11996,6.19453 -7.08146,4.6388 -0.40059,-0.64819 -0.41625,-2.16186 -0.0348,-3.36371 0.38145,-1.20186 0.36263,-3.04755 -0.0418,-4.10155 -0.58195,-1.51655 -1.22708,-1.65321 -3.09216,-0.65505 -1.94232,1.0395 -2.69147,0.77606 -4.25985,-1.49796 -3.85453,-5.58879 -15.02621,-14.57001 -18.12351,-14.57001 -1.09066,0 -1.51126,1.3121 -1.32508,4.13375 0.15001,2.27356 -0.31312,6.70623 -1.02917,9.85036 -1.16666,5.12277 -1.04705,6.06132 1.15136,9.03482 1.34929,1.82503 2.78856,4.65414 3.19837,6.28695 0.41619,1.65824 3.83221,5.44481 7.73845,8.5779 6.51035,5.22177 7.19662,6.25268 9.93677,14.92679 1.61889,5.12469 2.94344,9.82167 2.94344,10.43773 0,2.00329 -2.46732,1.19135 -7.61625,-2.50633 -5.32293,-3.82266 -8.72264,-9.87031 -11.55757,-20.55956 -1.23096,-4.64136 -2.5809,-6.63095 -6.41088,-9.44858 -4.69705,-3.45551 -4.83913,-3.75727 -4.46057,-9.47454 0.21506,-3.24795 0.7474,-7.85168 1.18296,-10.23052 0.61319,-3.34884 0.10606,-5.74826 -2.24654,-10.62964 -1.67115,-3.46747 -3.6473,-8.79289 -4.39141,-11.83427 -1.66236,-6.79448 -4.0101,-7.93238 -8.16105,-3.95553 -1.71615,1.64419 -3.45184,2.98941 -3.85709,2.98941 -1.87971,0 -4.46249,-4.00144 -3.84287,-5.95368 1.12518,-3.54515 -5.79412,-15.90306 -9.84337,-17.58031 -2.21543,-0.91767 -4.24096,-3.14328 -5.59652,-6.1494 -2.35515,-5.2228 -4.99723,-7.2213 -7.63685,-5.7766 -0.95761,0.52411 -4.79111,1.57844 -8.51889,2.34295 -6.83381,1.40151 -9.28557,3.47105 -8.35009,7.04832 0.34446,1.31724 -0.85126,2.58954 -3.71889,3.95701 -2.32462,1.10854 -4.82918,3.33806 -5.56567,4.95449 -0.73649,1.61642 -2.35806,3.26237 -3.60347,3.65765 -1.24543,0.39528 -3.16695,2.20281 -4.27007,4.01674 -1.10311,1.81394 -4.3882,5.12904 -7.30021,7.36691 -3.98555,3.0629 -5.22949,4.77645 -5.03143,6.93088 1.15785,12.59484 -0.61892,23.13241 -4.95559,29.39023 -4.22995,6.10381 -4.52708,6.27401 -8.10597,4.64337 -1.97005,-0.89762 -3.1826,-2.65053 -3.68465,-5.32672 -0.41158,-2.19385 -2.79044,-8.37495 -5.28638,-13.73578 -15.10179,-32.43598 -17.33465,-38.62495 -16.04817,-44.4822 0.86933,-3.95808 -1.21639,-9.93028 -3.23185,-9.25398 -0.808,0.27111 -1.48312,1.24441 -1.5003,2.16287 -0.10074,5.39096 -6.1571,6.21862 -10.8878,1.48791 l -3.13469,-3.13468 2.69675,-0.99759 c 3.0343,-1.12247 2.75583,-4.1496 -0.3307,-3.59476 -1.09672,0.19715 -3.6069,-0.99869 -5.57818,-2.65741 -1.97128,-1.65873 -4.03904,-3.01587 -4.59502,-3.01587 -0.55597,0 -1.35008,-1.0688 -1.76468,-2.3751 -1.08858,-3.42982 -7.35393,-6.41382 -10.49398,-4.99796 -2.82571,1.27412 -28.46239,1.00802 -32.75342,-0.33997 -1.54565,-0.48555 -4.40473,-2.70766 -6.3535,-4.93799 -3.5215,-4.03032 -3.5758,-4.04639 -8.85812,-2.62249 -5.00505,1.34915 -5.7323,1.22197 -12.47421,-2.18133 -5.82565,-2.94078 -7.57099,-4.52697 -9.36931,-8.51493 -2.29455,-5.0884 -7.39031,-8.77277 -10.48888,-7.58374 -0.97584,0.37446 -2.11556,2.23481 -2.53272,4.13412 -0.59915,2.72793 0.0118,4.50033 2.90753,8.43825 2.0163,2.74174 4.21318,7.01704 4.88195,9.50067 1.43648,5.33465 4.27307,6.92152 6.62439,3.70589 1.41907,-1.94069 1.80206,-2.00822 2.76269,-0.48717 0.61338,0.97122 0.94425,2.29734 0.73526,2.94693 -0.65687,2.04171 6.15879,5.40123 9.33864,4.60313 1.60715,-0.40337 5.04092,-3.14049 7.63057,-6.08249 4.08035,-4.63553 5.50503,-4.9484 4.80755,-1.05574 -0.46943,2.61988 1.59199,5.69081 5.00417,7.45476 5.2704,2.72458 12.61281,8.794 12.61281,10.42606 0,0.75244 -1.38042,2.65654 -3.06762,4.23136 -1.68718,1.5748 -4.11548,4.90695 -5.3962,7.40475 -3.11172,6.06888 -12.131,14.94621 -15.18518,14.94621 -3.52962,0 -8.78081,2.98079 -10.87098,6.1708 -0.99042,1.51157 -3.5939,3.64347 -5.78548,4.73757 -11.22579,5.60416 -24.74162,11.28565 -28.5453,11.99922 -4.06672,0.76292 -4.3961,0.57838 -6.55065,-3.67043 -1.24774,-2.46058 -2.66328,-7.39691 -3.14563,-10.96965 -0.62736,-4.64672 -1.84405,-7.60029 -4.27411,-10.37548 -1.86839,-2.13376 -3.39708,-4.39196 -3.39708,-5.0182 0,-0.62624 -2.13132,-3.33481 -4.73628,-6.01905 -3.2443,-3.34301 -5.34068,-6.97098 -6.65486,-11.5168 -1.05521,-3.65 -3.2025,-8.23082 -4.77175,-10.17959 -10.83923,-13.46061 -14.04901,-18.20685 -15.66474,-23.16313 -2.14151,-6.56911 -3.95253,-7.62989 -4.78831,-2.80469 l -0.59327,3.42504 -3.99553,-5.04479 c -6.15661,-7.77334 -6.9324,-4.23985 -1.15265,5.24991 2.73502,4.49064 7.09489,12.41666 9.68861,17.61337 2.5937,5.19672 5.95617,11.0932 7.47213,13.10327 1.56091,2.06968 2.75629,5.30475 2.75629,7.45935 0,4.45057 1.32778,7.22814 6.54357,13.68846 2.0978,2.59836 4.17023,6.39194 4.60538,8.43018 0.55813,2.61415 2.83805,5.3476 7.73914,9.27863 7.44832,5.97409 12.27458,12.20969 13.47245,17.40659 0.45,1.9523 2.15449,3.95602 4.31614,5.07385 3.29376,1.70328 4.45314,1.65658 14.86209,-0.5986 6.20929,-1.3453 12.78688,-3.22025 14.61686,-4.16658 l 3.32723,-1.72057 0.78983,4.67499 c 0.71776,4.24836 -0.0546,6.29443 -8.46258,22.4206 -9.04037,17.33889 -9.46326,17.91205 -18.45213,25.00844 -5.05985,3.99456 -10.35478,8.88498 -11.76653,10.86759 -1.41175,1.98262 -5.92848,7.33723 -10.0372,11.89915 -11.9908,13.31343 -13.62078,25.02236 -5.66801,40.71639 2.01997,3.98623 2.80904,7.00388 2.33025,8.91157 -0.39818,1.58644 -0.14293,5.59365 0.56722,8.90492 1.11807,5.21338 0.99155,6.60754 -0.94363,10.39921 -2.79266,5.47171 -5.01419,7.43851 -12.82052,11.35037 -3.41035,1.70896 -6.20063,3.612 -6.20063,4.22897 0,0.61695 -2.39167,3.81463 -5.31482,7.10595 -2.92315,3.29132 -5.31482,6.51913 -5.31482,7.17291 0,0.65378 1.09574,3.33651 2.43496,5.96162 4.01503,7.87012 1.31708,13.5731 -8.307,17.55954 -4.05728,1.68057 -5.38937,5.11169 -4.38572,11.29642 0.52587,3.24062 0.19137,4.31883 -1.64473,5.30149 -1.26767,0.67844 -3.55941,3.20372 -5.09274,5.61176 -4.84152,7.60338 -18.75859,21.05732 -25.08106,24.24643 -5.27567,2.6611 -6.62517,2.89568 -10.5014,1.82539 -3.4174,-0.94358 -6.17541,-0.79413 -11.9052,0.64515 -9.28089,2.33128 -8.29632,2.42784 -11.89038,-1.16622 z M 628.40239,541.50869 c 3.04886,-1.57662 3.48456,-2.44461 3.48456,-6.94182 0,-3.22411 -0.68934,-5.71198 -1.84949,-6.6748 -1.01721,-0.84422 -2.66537,-3.1127 -3.66257,-5.04107 -1.6496,-3.18999 -1.64259,-3.4407 0.0778,-2.78049 2.27176,0.87175 5.43418,-0.17675 5.43418,-1.80169 0,-0.64221 -1.09881,-2.7108 -2.4418,-4.59685 -2.02282,-2.8408 -2.83343,-3.21959 -4.72429,-2.20764 -1.52887,0.81823 -2.28248,0.8258 -2.28248,0.0229 0,-0.65926 -2.10815,-2.27413 -4.68479,-3.58863 -5.70174,-2.90882 -7.73075,-6.13174 -5.95232,-9.45478 1.34594,-2.5149 6.15444,-4.27718 8.20784,-3.00811 2.76851,1.71104 3.58448,-0.81126 1.30023,-4.0192 -5.53941,-7.77937 -13.25231,-7.26733 -22.8179,1.51484 -6.17284,5.66728 -6.70881,7.17336 -3.21771,9.04174 1.29918,0.6953 2.36215,2.05458 2.36215,3.02063 0,0.96603 2.10079,4.03553 4.66844,6.8211 5.9137,6.4156 6.99816,9.34713 6.26654,16.93986 l -0.589,6.11284 8.11406,4.16345 c 4.46274,2.2899 8.27334,4.1896 8.46799,4.22154 0.19465,0.032 1.92197,-0.75279 3.83848,-1.74385 z m -32.53812,329.90962 c -3.33484,-1.89107 -3.80868,-2.8895 -4.67967,-9.86077 -0.69605,-5.57094 -0.40551,-6.78174 2.927,-12.19774 3.38702,-5.50461 3.63077,-6.56496 2.88372,-12.54417 -1.07864,-8.63313 0.75728,-13.1699 5.77498,-14.27065 4.72749,-1.03709 14.95624,-10.06739 17.40722,-15.36771 l 1.8729,-4.05019 1.30179,2.85714 c 3.27537,7.18865 2.94207,10.34638 -2.7563,26.11365 -3.04893,8.4363 -6.31998,18.52761 -7.26899,22.42515 -3.0372,12.47352 -4.76278,15.48109 -9.73737,16.97152 -5.29633,1.58682 -4.78364,1.59188 -7.72528,-0.0762 z m 581.79623,-20.53369 c -3.7683,-4.12324 -6.0238,-7.66098 -6.0238,-9.44857 0,-3.96297 0.6363,-3.61704 4.0446,2.19863 1.6297,2.78087 4.5752,6.60068 6.5457,8.48847 1.9704,1.88779 3.5825,3.86438 3.5825,4.39244 0,2.27173 -2.5141,0.53447 -8.149,-5.63097 z m -526.8764,-1.67643 c 0,-0.64959 0.53148,-1.18107 1.18107,-1.18107 0.64959,0 1.18107,0.53148 1.18107,1.18107 0,0.64959 -0.53148,1.18108 -1.18107,1.18108 -0.64959,0 -1.18107,-0.53149 -1.18107,-1.18108 z m 621.9626,-2.15444 c -0.4166,-0.67405 -0.1819,-1.58124 0.5214,-2.01597 1.7552,-1.08476 2.3766,-0.22204 1.2052,1.6733 -0.6275,1.0154 -1.2362,1.1362 -1.7266,0.34267 z m -613.6951,-1.9096 c 0,-0.28646 0.53148,-0.84931 1.18107,-1.25078 0.64959,-0.40147 1.18107,-0.1671 1.18107,0.52083 0,0.68793 -0.53148,1.25078 -1.18107,1.25078 -0.64959,0 -1.18107,-0.23437 -1.18107,-0.52083 z m 582.9813,-11.987 c -1.1503,-2.99787 0.3099,-4.04858 3.5653,-2.56533 2.8099,1.28025 2.8714,1.47625 0.9132,2.90814 -2.7388,2.00264 -3.6038,1.93642 -4.4785,-0.34281 z m 7.4831,-5.25242 c -2.3079,-1.42632 -0.7094,-2.56555 2.9627,-2.11157 2.8772,0.3557 2.943,0.48541 0.8881,1.75209 -1.3131,0.8094 -2.8854,0.95618 -3.8508,0.35948 z m -55.1437,-4.33426 c -2.4254,-5.22271 -1.5754,-7.22904 0.9328,-2.20184 2.6104,5.2316 2.6558,5.40275 1.4294,5.38999 -0.4872,-0.005 -1.5502,-1.43974 -2.3622,-3.18815 z m 4.5222,-0.83797 c -0.051,-1.24504 0.228,-1.94261 0.6204,-1.55016 0.3925,0.39246 0.4344,1.41114 0.093,2.26373 -0.377,0.94217 -0.6569,0.66232 -0.7136,-0.71357 z m 96.1511,-11.33982 c -1.0807,-1.74849 -0.056,-2.64224 2.4667,-2.15006 1.8451,0.36008 1.8647,0.55158 0.1976,1.93337 -1.3282,1.10086 -2.0801,1.16202 -2.6643,0.21669 z m -698.00026,-5.88414 c -0.40147,-0.64959 -0.1671,-1.18107 0.52083,-1.18107 0.68792,0 1.25078,0.53148 1.25078,1.18107 0,0.64959 -0.23438,1.18107 -0.52083,1.18107 -0.28646,0 -0.84931,-0.53148 -1.25078,-1.18107 z m 518.49046,-11.09631 c -7.4742,-2.35687 -10.8632,-4.5462 -13.8047,-8.91805 -3.3604,-4.99448 -9.51,-8.77533 -12.6513,-7.7783 -1.2698,0.40302 -3.4069,2.59408 -4.7492,4.86904 -2.2849,3.87262 -2.7233,4.08604 -6.8769,3.34781 -2.4401,-0.43368 -5.8482,-2.10448 -7.5735,-3.7129 -2.1933,-2.0445 -3.8741,-2.69052 -5.5864,-2.14707 -1.347,0.42752 -3.2987,0.30186 -4.3371,-0.27927 -1.6231,-0.90825 -1.464,-1.33448 1.1327,-3.03591 3.0081,-1.97097 3.0124,-1.99723 0.9943,-6.22919 -1.6209,-3.39906 -3.8571,-5.17019 -11.1695,-8.84683 -5.0287,-2.52833 -10.7134,-4.59696 -12.6328,-4.59696 -4.3922,0 -6.2058,-4.04847 -2.8974,-6.46765 1.968,-1.43904 1.6801,-1.79673 -3.454,-4.29111 -5.452,-2.64873 -5.5298,-2.76076 -2.9257,-4.20687 1.4714,-0.81711 3.8411,-1.50451 5.2658,-1.52751 2.7671,-0.0448 6.2676,3.94762 6.2676,7.14809 0,1.06704 1.1485,3.40016 2.5523,5.18472 2.5154,3.19774 2.5794,3.21078 4.429,0.90185 1.0322,-1.28855 4.3269,-3.74682 7.3215,-5.46284 l 5.4448,-3.12004 7.547,3.4047 c 4.1509,1.87257 10.0432,4.30426 13.0941,5.40374 3.0509,1.09949 9.1533,4.36769 13.561,7.26268 8.4174,5.52856 12.0741,10.18957 9.9768,12.71673 -1.7095,2.05979 5.006,11.44295 11.9574,16.70737 7.6406,5.78637 7.5115,6.32171 -0.8858,3.67377 z m 51.4003,-0.0953 c -0.9316,-1.12249 -1.0212,-1.80017 -0.2381,-1.80017 1.4275,0 3.0916,2.24073 2.2725,3.05981 -0.2972,0.29727 -1.2127,-0.26957 -2.0344,-1.25965 z M 968.49059,789.5093 c -1.71078,-0.9468 -2.20636,-1.64311 -1.1793,-1.65688 2.10963,-0.0284 5.48289,1.9373 4.68827,2.73188 -0.30696,0.30696 -1.88594,-0.1768 -3.50897,-1.075 z m 19.96897,-1.56084 c 3.34917,-4.7036 8.59123,-6.71672 13.43744,-5.16042 3.531,1.13396 3.5862,1.22859 0.7824,1.34065 -1.6591,0.0664 -5.53093,1.71502 -8.60372,3.66379 -7.01214,4.44693 -8.70509,4.49395 -5.61612,0.15598 z m 171.36644,1.61561 c -1.596,-1.92303 -1.2143,-2.16341 1.675,-1.0547 1.0275,0.39428 1.8682,1.19151 1.8682,1.7716 0,1.6337 -1.9137,1.24649 -3.5432,-0.7169 z m 5.5315,-1.04211 c -0.4439,-1.15706 -0.7736,-2.99038 -0.7324,-4.07404 0.05,-1.30494 0.4598,-1.00737 1.2148,0.88121 0.627,1.56831 0.9566,3.40163 0.7325,4.07404 -0.2242,0.67239 -0.7708,0.27586 -1.2149,-0.88121 z m 91.3163,1.11182 c 0,-0.28646 0.5315,-0.84931 1.1811,-1.25078 0.6496,-0.40147 1.1811,-0.1671 1.1811,0.52083 0,0.68793 -0.5315,1.25078 -1.1811,1.25078 -0.6496,0 -1.1811,-0.23437 -1.1811,-0.52083 z m -302.06635,-4.9605 c -0.81612,-0.34418 -1.18332,-1.11187 -0.81612,-1.70597 0.90222,-1.45981 8.47195,-1.37846 9.38621,0.10086 0.40145,0.64959 0.0342,1.18832 -0.81612,1.19719 -0.85025,0.009 -2.60899,0.24509 -3.90816,0.52491 -1.29918,0.27983 -3.02981,0.22717 -3.84581,-0.11705 z m 17.53431,-0.88658 c -2.14613,-2.58601 0.32704,-3.37308 5.89118,-1.87482 5.60537,1.50938 5.58647,1.74512 -0.22369,2.79406 -3.01729,0.54471 -4.67575,0.27571 -5.66749,-0.91924 z m 177.32874,-0.71852 c -0.8172,-1.30849 -0.9625,-2.36214 -0.3258,-2.36214 0.6324,0 1.7185,1.06296 2.4138,2.36214 0.6953,1.29918 0.8418,2.36214 0.3256,2.36214 -0.5161,0 -1.6024,-1.06296 -2.4136,-2.36214 z m 7.3963,-1.18831 c -3.1576,-3.48905 -1.4673,-4.03778 1.7825,-0.57864 1.5232,1.62141 2.2277,2.94802 1.5656,2.94802 -0.6621,0 -2.1688,-1.06622 -3.3481,-2.36938 z m -221.44444,-0.20485 c -4.22233,-0.58537 -10.17552,-1.88414 -13.22942,-2.88615 -3.05378,-1.00199 -6.65191,-1.47284 -7.99586,-1.04632 -2.70406,0.85825 -14.20687,-2.52315 -14.20687,-4.1763 0,-3.77535 10.58807,-4.0621 16.21446,-0.43914 2.10042,1.35254 3.75628,1.44296 8.19758,0.44766 4.91987,-1.10256 5.94481,-0.96681 8.83548,1.17041 1.79854,1.3297 3.80506,2.41764 4.4589,2.41764 2.33498,0 9.42389,3.95095 8.82568,4.91892 -0.33531,0.54255 -1.24273,0.91245 -2.01633,0.82202 -0.77372,-0.0905 -4.86129,-0.64336 -9.08362,-1.22874 z m 212.00234,-5.69327 c -1.1757,-1.29918 -1.6062,-2.36214 -0.9567,-2.36214 0.6496,0 2.1431,1.06296 3.3189,2.36214 1.1757,1.29918 1.6062,2.36214 0.9566,2.36214 -0.6496,0 -2.143,-1.06296 -3.3188,-2.36214 z m -7.4482,-1.49594 c -0.6709,-0.80848 -1.5619,-3.06143 -1.9799,-5.00656 -0.6734,-3.13317 -0.598,-3.26715 0.6609,-1.17447 0.7815,1.29918 2.1784,3.23948 3.1041,4.31177 0.9812,1.13646 1.2144,2.2394 0.559,2.6444 -0.6183,0.38214 -1.6731,0.0333 -2.3441,-0.77514 z m -25.0129,-3.75526 -2.9344,-1.62427 4.5488,-0.85337 c 2.5018,-0.46936 6.3469,-2.43206 8.5444,-4.36158 2.399,-2.1063 3.9885,-2.86936 3.9776,-1.90952 -0.027,2.40169 -1.4798,4.25234 -5.8945,7.50933 -4.6112,3.40214 -4.3939,3.36945 -8.2419,1.23941 z m -221.55131,-4.59872 c -4.33932,-2.47199 -12.16551,-12.036 -14.71348,-17.9806 -1.37437,-3.20652 -4.52413,-8.48743 -6.99948,-11.73538 -2.47534,-3.24795 -5.3167,-7.49981 -6.31413,-9.44857 -0.99744,-1.94877 -4.02706,-5.66915 -6.7325,-8.26751 -5.70421,-5.47843 -9.21236,-11.2354 -6.82149,-11.19424 3.09881,0.0534 11.07673,4.48908 14.49846,8.06114 9.43944,9.85418 11.37352,11.60788 15.82947,14.35329 4.30043,2.64958 6.33657,5.40701 6.54095,8.85803 0.0385,0.64959 1.26148,2.50978 2.7178,4.13375 1.45633,1.62398 4.204,4.67828 6.10595,6.78734 1.90194,2.10905 3.80181,5.39965 4.22193,7.31242 1.37511,6.26084 -3.66679,11.77881 -8.33348,9.12033 z m -237.90391,-0.77972 c 0,-0.64959 0.53149,-1.18108 1.18107,-1.18108 0.64959,0 1.18108,0.53149 1.18108,1.18108 0,0.64958 -0.53149,1.18107 -1.18108,1.18107 -0.64958,0 -1.18107,-0.53149 -1.18107,-1.18107 z m 312.38695,-0.0106 c -0.4051,-0.6554 -0.40829,-2.22563 -0.0118,-3.48939 0.40157,-1.26535 -0.0862,-3.54255 -1.08611,-5.06827 -1.64476,-2.51034 -1.62917,-3.03626 0.16665,-5.60012 1.09001,-1.55628 2.3762,-5.7353 2.85819,-9.28672 0.59455,-4.3818 1.76877,-7.34968 3.65329,-9.2342 2.57757,-2.57757 3.22551,-2.69202 9.01996,-1.59313 4.97515,0.94353 6.93289,0.82709 9.64121,-0.57345 4.53532,-2.34532 4.86625,-2.24045 3.36015,1.06507 -1.91452,4.20179 -5.73965,5.5447 -9.77337,3.43119 -7.20241,-3.77372 -16.7587,1.83472 -11.71694,6.87647 1.8531,1.85318 2.87863,2.02169 6.31141,1.03718 5.88363,-1.68742 8.20337,-1.37755 4.54961,0.60774 -4.13576,2.24712 -4.92058,4.74087 -2.7891,8.86258 0.96978,1.87535 1.76322,4.78354 1.76322,6.46262 0,2.68774 -0.28275,2.90156 -2.36403,1.78767 -1.30036,-0.69588 -3.17614,-3.20868 -4.1686,-5.584 -1.79085,-4.28596 -1.82215,-4.30123 -4.11402,-2.00929 -2.01007,2.01006 -2.14566,2.90298 -1.0456,6.88689 0.9941,3.60033 0.92725,4.79078 -0.31311,5.57701 -2.08648,1.3226 -3.05555,1.28432 -3.9456,-0.15585 z m 162.04377,-6.29947 c -1.1134,-1.69917 -3.6631,-3.93686 -5.6661,-4.97266 -2.0031,-1.0358 -3.3762,-2.14901 -3.0514,-2.4738 1.8365,-1.83652 12.0853,6.5048 11.2119,9.12515 -0.2683,0.805 -1.3393,0.0842 -2.4944,-1.67869 z m -185.47139,-3.93092 c -1.78176,-0.93354 -4.18229,-1.39812 -5.33466,-1.03238 -2.93803,0.93249 -14.60997,-1.44291 -15.76613,-3.20862 -0.92005,-1.40499 -3.62553,-10.05848 -5.07293,-16.22591 -0.39803,-1.69584 0,-3.89612 0.9295,-5.16909 1.35197,-1.84687 2.05081,-1.98717 4.1915,-0.8415 2.25951,1.20922 2.73879,1.00233 3.97774,-1.7168 0.77478,-1.70044 3.35377,-4.08404 5.73115,-5.29688 2.5178,-1.28449 4.93711,-3.68903 5.79469,-5.7593 0.98855,-2.38676 2.79406,-3.99043 5.49694,-4.88243 2.21357,-0.73057 5.41061,-3.14533 7.1045,-5.36616 1.69389,-2.22081 3.70975,-4.03784 4.47957,-4.03784 0.76994,0 3.10031,1.75448 5.17864,3.89884 l 3.77896,3.89886 -3.02921,4.07338 c -3.44117,4.62752 -3.26082,8.60754 0.63825,14.08333 l 2.36073,3.31527 -2.94158,1.92739 c -1.61783,1.06006 -2.93933,2.57949 -2.93674,3.3765 0.0118,2.70534 -7.55791,18.29787 -9.45483,19.48249 -1.32067,0.82482 -2.85819,0.6691 -5.12609,-0.51915 z m 68.61009,-0.0217 c -2.4441,-0.63868 -2.7833,-2.72904 -0.4429,-2.72904 0.8933,0 3.3929,0.35378 5.5548,0.78617 3.3286,0.66572 3.5775,0.92441 1.624,1.68859 -2.5646,1.00326 -3.7051,1.04632 -6.7359,0.2543 z m 188.0857,-15.06059 c 0,-0.28646 0.5315,-0.84931 1.181,-1.25078 0.6496,-0.40147 1.1811,-0.1671 1.1811,0.52083 0,0.68793 -0.5315,1.25078 -1.1811,1.25078 -0.6495,0 -1.181,-0.23437 -1.181,-0.52083 z m -192.2232,-3.20332 c -0.9442,-0.94418 -0.9999,-2.03864 -0.1817,-3.56762 0.6493,-1.21309 0.8656,-2.71513 0.4807,-3.33787 -1.0651,-1.72342 1.6031,-5.90536 3.7679,-5.90536 1.7364,0 1.7296,0.2028 -0.076,2.19697 -1.5607,1.72444 -1.7342,2.86532 -0.8068,5.30456 1.8747,4.93076 -0.1644,8.32989 -3.185,5.30932 z m -593.18946,-3.88311 c 0,-0.28646 0.53148,-0.84931 1.18107,-1.25078 0.64959,-0.40147 1.18108,-0.1671 1.18108,0.52083 0,0.68793 -0.53149,1.25078 -1.18108,1.25078 -0.64959,0 -1.18107,-0.23437 -1.18107,-0.52083 z m 819.07316,-3.02238 c -0.4014,-0.64959 -0.1671,-1.18108 0.5209,-1.18108 0.6878,0 1.2507,0.53149 1.2507,1.18108 0,0.64958 -0.2343,1.18107 -0.5208,1.18107 -0.2864,0 -0.8493,-0.53149 -1.2508,-1.18107 z M 422.83727,718.76948 c 0,-0.28646 0.53148,-0.84931 1.18107,-1.25078 0.64959,-0.40147 1.18108,-0.1671 1.18108,0.52083 0,0.68793 -0.53149,1.25078 -1.18108,1.25078 -0.64959,0 -1.18107,-0.23437 -1.18107,-0.52083 z m 568.1075,-17.75764 c -2.25254,-5.25503 -2.55324,-5.49132 -6.0198,-4.72994 -3.45582,0.75903 -3.57652,0.6663 -2.2816,-1.75322 1.07218,-2.00347 2.06617,-2.4011 4.60701,-1.84305 2.44931,0.53796 4.01423,-0.006 6.41369,-2.22994 1.74574,-1.61784 3.18571,-3.897 3.2,-5.06479 0.0366,-2.98102 4.42283,7.01615 5.42363,12.3611 0.7599,4.05833 0.665,4.27924 -1.1806,2.75027 -2.73976,-2.26952 -5.37733,0.0849 -3.12952,2.79352 0.89703,1.08075 1.01194,1.82166 0.28275,1.82166 -0.67593,0 -2.06499,0.32079 -3.08673,0.71288 -1.37111,0.52611 -2.47895,-0.73627 -4.22883,-4.81849 z m -215.34322,2.08678 c -1.32039,-2.14468 -2.07118,-11.76913 -1.11734,-14.32304 1.01153,-2.70837 1.08753,-2.6755 4.09658,1.7716 3.60625,5.32968 4.76054,8.7476 3.57056,10.5726 -1.13907,1.74693 -5.82161,3.16162 -6.5498,1.97884 z m 263.75515,-6.10927 c 0,-0.64959 0.5314,-1.50954 1.181,-1.91101 0.6496,-0.40147 1.1811,-0.19845 1.1811,0.45113 0,0.64959 -0.5315,1.50954 -1.1811,1.91101 -0.6496,0.40147 -1.181,0.19846 -1.181,-0.45113 z m 185.4282,-0.1394 c 0,-0.64959 0.2343,-1.18107 0.5209,-1.18107 0.2864,0 0.8493,0.53148 1.2507,1.18107 0.4015,0.64959 0.1671,1.18107 -0.5208,1.18107 -0.6879,0 -1.2508,-0.53148 -1.2508,-1.18107 z m -268.10325,-6.8235 c 0,-0.50498 2.36781,-3.561 5.26191,-6.79116 4.24064,-4.73311 5.27218,-5.40204 5.31482,-3.44642 0.0295,1.33464 -1.7461,4.39066 -3.9449,6.79116 -3.7284,4.07052 -6.63183,5.57935 -6.63183,3.44642 z m 25.58107,-3.15141 c -0.43027,-1.12135 -0.34299,-2.82395 0.19405,-3.78355 0.83218,-1.48698 1.17847,-1.50129 2.34407,-0.0969 1.04383,1.25781 0.99789,2.15339 -0.19405,3.78354 -1.46394,2.00211 -1.61063,2.00817 -2.34407,0.0969 z M 77.809495,682.27315 c 0.723489,-0.87175 0.965727,-1.93471 0.538309,-2.36214 -0.42743,-0.42742 0.324653,-0.77714 1.671275,-0.77714 1.866944,0 2.30172,0.56099 1.830708,2.36215 -0.358715,1.37173 -1.611005,2.36214 -2.986729,2.36214 -1.847917,0 -2.079655,-0.34864 -1.053563,-1.58501 z m 912.378325,-0.31282 c -0.44018,-1.22975 -1.0156,-2.63453 -1.27851,-3.12172 -0.26302,-0.4872 0.0224,-0.88581 0.63495,-0.88581 1.178,0 2.83764,4.84984 1.95999,5.72756 -0.28382,0.28374 -0.87612,-0.49027 -1.31643,-1.72003 z m -11.96839,-3.08141 c -1.65893,-1.99892 -0.0425,-4.84399 2.43821,-4.29027 1.55571,0.34729 1.61263,0.83845 0.36471,3.14881 -1.2041,2.22929 -1.72424,2.44114 -2.80292,1.14146 z m 13.96358,-4.0591 c -1.3554,-1.72315 -2.2673,-3.3301 -2.02637,-3.57102 0.95974,-0.95976 4.28115,1.1551 6.04733,3.8505 2.71599,4.14526 -0.72884,3.90582 -4.02096,-0.27948 z m -19.41635,-4.57211 c -1.05162,-1.05172 -1.91215,-2.52383 -1.91215,-3.27138 0,-0.74754 1.16631,-0.19285 2.59174,1.23263 1.42556,1.42548 2.28608,2.89761 1.91227,3.27138 -0.3738,0.37377 -1.54011,-0.1809 -2.59186,-1.23263 z M 45.681736,670.07899 c -0.433063,-0.43306 -0.787385,-1.33657 -0.787385,-2.00783 0,-0.74005 0.550108,-0.67032 1.397598,0.17717 0.768688,0.76868 1.12301,1.6722 0.787385,2.00782 -0.335625,0.33562 -0.964546,0.2559 -1.397598,-0.17716 z m -6.692743,-1.57476 c 0,-0.64959 0.234372,-1.18107 0.520829,-1.18107 0.286457,0 0.849309,0.53148 1.250779,1.18107 0.40147,0.64959 0.167098,1.18107 -0.520829,1.18107 -0.687927,0 -1.250779,-0.53148 -1.250779,-1.18107 z m 55.510367,-2.36215 c 0,-0.64958 0.234372,-1.18107 0.520829,-1.18107 0.286457,0 0.849308,0.53149 1.250778,1.18107 0.40147,0.64959 0.167098,1.18108 -0.520829,1.18108 -0.687927,0 -1.250778,-0.53149 -1.250778,-1.18108 z m 890.14723,-0.17999 c -1.18391,-0.66781 -3.42853,-0.89394 -4.98814,-0.5025 -2.28655,0.57388 -3.86364,-0.34599 -8.14455,-4.75064 -6.04756,-6.22238 -7.2232,-8.84587 -5.44911,-12.16069 0.68561,-1.281 1.2465,-3.92712 1.2465,-5.88026 0,-6.41097 4.29414,-6.15183 7.44194,0.4491 1.74385,3.65702 1.75483,4.44216 0.11574,8.36467 -1.76452,4.22297 -1.7298,4.41119 1.41764,7.6964 2.27345,2.37298 3.97927,3.17858 5.7758,2.72767 1.51862,-0.38114 3.15629,0.0912 4.04989,1.16793 2.12687,2.56271 1.19879,4.39146 -1.46583,2.88832 z M 87.41293,658.53483 c 0,-0.28646 0.531482,-0.84931 1.181072,-1.25078 0.649589,-0.40147 1.181071,-0.1671 1.181071,0.52083 0,0.68792 -0.531482,1.25077 -1.181071,1.25077 -0.64959,0 -1.181072,-0.23437 -1.181072,-0.52082 z m 185.42825,-4.20346 c 0,-0.64959 0.53148,-1.18107 1.18107,-1.18107 0.64959,0 1.18107,0.53148 1.18107,1.18107 0,0.64959 -0.53148,1.18107 -1.18107,1.18107 -0.64959,0 -1.18107,-0.53148 -1.18107,-1.18107 z M 83.869715,649.74648 c 0,-0.64959 0.531482,-1.50954 1.181072,-1.91101 0.649589,-0.40147 1.181071,-0.19845 1.181071,0.45114 0,0.64959 -0.531482,1.50954 -1.181071,1.91101 -0.64959,0.40147 -1.181072,0.19845 -1.181072,-0.45114 z m -10.030747,-4.85016 c -0.413776,-0.6695 0.06035,-0.8675 1.111365,-0.46417 2.046112,0.78516 2.420476,1.63172 0.721588,1.63172 -0.611252,0 -1.436089,-0.5254 -1.832953,-1.16755 z M 261.621,644.88279 c -0.40147,-0.64958 -0.1671,-1.18107 0.52082,-1.18107 0.68793,0 1.25078,0.53149 1.25078,1.18107 0,0.64959 -0.23437,1.18108 -0.52083,1.18108 -0.28645,0 -0.8493,-0.53149 -1.25077,-1.18108 z M 78.554893,642.52065 c -0.40147,-0.64959 -0.167098,-1.18107 0.520829,-1.18107 0.687927,0 1.250778,0.53148 1.250778,1.18107 0,0.64959 -0.234372,1.18107 -0.520829,1.18107 -0.286457,0 -0.849308,-0.53148 -1.250778,-1.18107 z m 5.314822,0 c 0,-0.64959 0.234372,-1.18107 0.520829,-1.18107 0.286457,0 0.849309,0.53148 1.250779,1.18107 0.401469,0.64959 0.167098,1.18107 -0.520829,1.18107 -0.687927,0 -1.250779,-0.53148 -1.250779,-1.18107 z M 2.6710406,639.37631 c -0.8119867,-0.32764 -1.4763395,-1.08291 -1.4763395,-1.67836 0,-1.70287 5.21351,-1.26447 7.7464953,0.65139 2.1780146,1.64737 2.1154996,1.73126 -1.2506014,1.67836 -1.9487681,-0.0306 -4.2075676,-0.32375 -5.0195544,-0.65139 z m 29.8861084,-0.67004 c -1.059233,-0.59278 -3.399349,-0.75415 -5.200259,-0.3586 -1.800898,0.39555 -4.570889,0.20055 -6.155509,-0.4333 -2.547867,-1.01917 -2.322329,-1.13943 1.949867,-1.03955 6.279344,0.14679 7.955604,-0.87583 6.350811,-3.87442 -1.139049,-2.12833 -0.796586,-2.29047 4.83787,-2.29047 5.450327,0 13.313335,2.49977 14.646091,4.6562 0.886005,1.43358 -14.313737,4.52383 -16.428871,3.34014 z m 22.655091,0.74678 c -1.399652,-1.39964 0.339901,-2.83776 3.432561,-2.83776 1.857046,0 2.798041,0.55676 2.495202,1.47634 -0.544533,1.65344 -4.684838,2.60435 -5.927763,1.36142 z m 854.47752,-1.87814 c -3.12736,-3.12737 -0.0319,-6.86498 5.68544,-6.86498 2.53447,0 2.53647,0.0206 0.36212,3.74367 -2.5347,4.33994 -4.04789,5.12096 -6.04756,3.12131 z M 64.972569,637.33219 c 0,-0.2553 0.797223,-0.77009 1.771607,-1.14401 0.974385,-0.3739 1.771608,-0.16502 1.771608,0.46418 0,0.6292 -0.797223,1.144 -1.771608,1.144 -0.974384,0 -1.771607,-0.20888 -1.771607,-0.46417 z m -51.055234,-8.46617 c -0.364562,-0.36457 -2.857745,-0.69315 -5.5404074,-0.73016 -3.7009588,-0.0511 -4.5889239,-0.4151 -3.6810578,-1.50902 0.8774418,-1.05725 -0.3824192,-2.4648 -4.72455813,-5.27841 -8.51329427,-5.51642 -13.26681267,-6.5945 -18.98626967,-4.30603 -5.363152,2.14591 -5.773917,2.20675 -5.773917,0.85512 0,-2.47211 9.399807,-5.19074 16.1682213,-4.67622 6.4732646,0.49209 10.0975837,1.86973 22.8071427,8.66919 10.446897,5.58898 10.458389,5.59962 7.08643,6.56103 -3.829046,1.09175 -6.52633,1.24374 -7.355584,0.4145 z m 8.536655,-9.9668 c 2.289815,-1.47979 3.543215,-1.47979 3.543215,0 0,0.64959 -1.195835,1.17293 -2.657411,1.16299 -2.148889,-0.0146 -2.318396,-0.23719 -0.885804,-1.16299 z m 940.60509,-2.09461 c -0.71478,-0.47194 -1.94369,-2.08091 -2.73111,-3.57549 -1.18686,-2.25301 -1.06379,-3.34697 0.71986,-6.40108 2.75474,-4.71683 4.61504,-5.30537 5.50923,-1.74294 0.94061,3.74751 -1.77787,12.85529 -3.49798,11.71951 z M 30.20847,615.23057 c 0.78853,-1.27586 5.237651,-1.42016 5.23647,-0.16983 -4.49e-4,0.48719 -1.325647,0.96223 -2.944861,1.05564 -1.619213,0.0934 -2.650442,-0.3052 -2.291609,-0.88581 z M 6.8532389,603.84779 C 4.9644691,601.67994 5.2391628,598.821 7.3362263,598.821 c 0.6712266,0 0.9490974,1.03748 0.6174997,2.30551 -0.3315977,1.26803 0.00472,2.52397 0.7480553,2.79099 0.743024,0.26701 1.0376659,0.82724 0.6547625,1.24495 -0.3829152,0.4177 -1.5093977,-0.17389 -2.5033049,-1.31466 z m 6.8608211,-9.27865 c -0.420331,-1.09537 -0.498506,-2.25733 -0.173712,-2.58213 0.324795,-0.32479 0.934452,0.30569 1.354784,1.40106 0.420332,1.09537 0.498507,2.25733 0.173712,2.58213 -0.324795,0.32479 -0.934452,-0.30569 -1.354784,-1.40106 z m -7.4013858,-1.06296 c 0,-0.97439 1.0123556,-1.77161 2.2496698,-1.77161 1.999696,0 2.052809,0.19685 0.4780506,1.77161 -0.9743841,0.97438 -1.9867397,1.7716 -2.249658,1.7716 -0.2629302,0 -0.4780624,-0.79722 -0.4780624,-1.7716 z M 996.83808,567.61322 c 0,-0.92455 -1.2902,-3.21429 -2.86705,-5.08834 -3.74329,-4.44866 -2.41741,-7.4178 2.0155,-4.51326 3.18665,2.08794 4.85217,6.35399 3.6768,9.41713 -0.89148,2.32312 -2.82525,2.44939 -2.82525,0.18447 z M 80.3265,560.50588 c 0,-0.28646 0.531482,-0.84931 1.181072,-1.25078 0.649589,-0.40147 1.181071,-0.1671 1.181071,0.52083 0,0.68792 -0.531482,1.25078 -1.181071,1.25078 -0.64959,0 -1.181072,-0.23438 -1.181072,-0.52083 z m 923.0938,-1.45162 c -0.7657,-1.99551 1.0421,-3.88163 3.7522,-3.91483 1.8768,-0.023 1.9118,2.6173 0.059,4.46999 -1.9257,1.92578 -2.9144,1.78178 -3.8112,-0.55516 z m 10.791,-4.31123 c -2.2931,-3.49965 -5.5323,-3.98013 -12.948,-1.92067 -3.01525,0.83739 -5.09252,0.84677 -6.49587,0.0293 -1.13466,-0.66095 -1.43949,-1.21789 -0.67735,-1.23764 0.76215,-0.0197 2.98693,-1.38327 4.94397,-3.03005 2.52485,-2.12447 4.37505,-2.78917 6.36985,-2.28848 2.1139,0.53055 4.3957,-0.4846 9.1951,-4.09078 9.3436,-7.02069 10.1886,-9.2346 6.387,-16.73645 -3.6485,-7.20019 -2.6316,-9.51829 2.7747,-6.3247 3.9349,2.32434 7.6426,8.98237 6.5654,11.78946 -0.3877,1.01035 0.1904,4.18109 1.2845,7.0461 1.5483,4.05417 1.6951,5.75889 0.6621,7.68896 -1.5171,2.83468 -5.7383,4.72896 -10.5381,4.72896 -2.6899,0 -3.4935,0.69018 -4.3726,3.75543 l -1.077,3.75543 -2.0737,-3.1649 z m -478.46385,-4.03128 c -1.40962,-1.40964 -0.65974,-2.67683 1.58406,-2.67683 1.26084,0 2.62092,-0.53148 3.02239,-1.18107 1.09788,-1.77641 2.97012,-1.41973 2.2601,0.43056 -0.72864,1.8988 -5.84255,4.45134 -6.86655,3.42734 z m -40.27427,-2.04365 -3.54322,-1.6224 4.72429,-0.0798 c 5.88404,-0.0993 10.21861,1.00415 9.36559,2.38437 -0.95017,1.53741 -6.4805,1.1797 -10.54666,-0.68216 z m -47.71115,-11.78171 c -4.7269,-2.41993 -4.94947,-2.72192 -2.48181,-3.36722 2.95529,-0.77282 9.49652,0.18871 9.36297,1.37633 -0.0456,0.40599 -0.44426,1.61816 -0.8858,2.6937 -0.72584,1.76809 -1.30052,1.70072 -5.99536,-0.70281 z m -23.67305,-12.77793 c -1.02217,-2.93222 -0.94155,-4.05452 0.3867,-5.38277 2.40122,-2.40122 4.26695,-0.71364 4.26695,3.85953 0,5.40147 -2.96353,6.37149 -4.65365,1.52324 z m -27.69531,0.98136 c 0.83784,-2.18338 4.43158,-2.55266 3.70853,-0.38107 -0.27036,0.81199 -1.37575,1.64782 -2.45643,1.85741 -1.37018,0.26575 -1.74914,-0.18108 -1.2521,-1.47634 z m 617.11273,-13.48087 c -2.162,-3.03629 -2.2216,-3.59593 -0.625,-5.87526 1.5682,-2.2391 1.5624,-2.91023 -0.053,-6.03397 -2.6571,-5.13807 -2.2838,-5.44892 2.3238,-1.9346 2.2777,1.73733 6.7725,3.94015 9.9884,4.89515 6.6451,1.97343 8.2489,3.52269 4.7845,4.62223 -1.3086,0.41534 -2.3793,1.52669 -2.3793,2.46968 0,1.28449 -0.8147,1.50607 -3.2479,0.88342 -6.2315,-1.59453 -8.0027,-1.205 -7.6027,1.6719 0.4901,3.52509 -0.3056,3.35079 -3.1889,-0.69855 z m -587.5196,1.3875 c -1.36988,-1.36986 -0.85365,-3.65874 0.98422,-4.36401 1.27992,-0.49115 1.77161,0.12936 1.77161,2.23578 0,2.83506 -1.15616,3.72791 -2.75583,2.12823 z m 580.025,-24.90092 c -1.0021,-1.13678 -3.4173,-5.25678 -5.367,-9.15556 -1.94972,-3.89878 -7.1045,-11.05843 -11.4551,-15.91036 -4.8607,-5.4207 -7.33056,-9.01488 -6.4066,-9.32286 0.82698,-0.27566 2.60036,0.95934 3.94076,2.74445 3.24936,4.3271 7.25072,8.08444 13.56474,12.73737 5.2335,3.85674 7.8216,7.4266 4.4446,6.13073 -3.894,-1.49426 -2.9221,2.0526 2.1173,7.72657 2.9378,3.30787 5.3415,6.26231 5.3415,6.56542 0,1.43639 -4.5647,0.31685 -6.1802,-1.51576 z m -864.26958,-2.06688 c 0,-0.97438 0.51481,-1.7716 1.14401,-1.7716 0.6292,0 0.83808,0.79722 0.46418,1.7716 -0.37392,0.97439 -0.88871,1.77161 -1.14401,1.77161 -0.25529,0 -0.46418,-0.79722 -0.46418,-1.77161 z m -6.17158,-3.81131 -4.39997,-0.46157 8.27967,-8.19793 c 4.55381,-4.50886 8.87498,-8.19794 9.60258,-8.19794 0.76772,0 0.53762,0.86773 -0.54826,2.06762 -2.4588,2.71695 -0.7822,5.76924 3.7111,6.75613 1.96153,0.43082 3.91672,1.93412 4.67229,3.59241 1.21269,2.66157 1.00714,2.93271 -3.0848,4.06916 -4.29282,1.19224 -9.41739,1.29684 -18.23261,0.37212 z m -287.79034,-8.47326 c -4.09123,-3.82178 -4.54758,-5.43183 -1.83463,-6.47289 2.4295,-0.93229 6.91427,2.10706 8.61411,5.83782 1.78365,3.91468 1.75204,4.06161 -0.87412,4.06161 -1.23049,0 -3.8879,-1.54194 -5.90536,-3.42654 z m 520.13714,-6.00067 c 1.29918,-0.64079 3.8557,-1.70397 5.68116,-2.36262 4.02217,-1.45125 3.35536,-2.99693 -1.7318,-4.01435 -3.48965,-0.69793 -3.61248,-0.87547 -1.61574,-2.33552 1.18855,-0.8691 1.81471,-2.14051 1.39143,-2.82536 -0.43239,-0.69964 0.78224,-1.78616 2.77225,-2.47989 1.94799,-0.67907 3.54181,-1.7592 3.54181,-2.4003 0,-2.72803 -2.4619,-7.31704 -3.82971,-7.13861 -3.15289,0.41128 -4.61364,-0.14468 -4.10527,-1.56249 0.29114,-0.81199 0.051,-2.40643 -0.53367,-3.54321 -1.52027,-2.95592 1.97325,-9.06892 5.2207,-9.13523 0.4872,-0.009 0.75294,0.63366 0.59054,1.43022 -0.1624,0.79656 0.95213,1.63751 2.47674,1.86876 l 2.77201,0.42048 -2.64867,2.81938 -2.64867,2.81938 2.98578,1.1352 c 3.20476,1.21844 6.29362,5.18799 9.43902,12.13026 1.50701,3.32613 2.49782,4.1956 4.25689,3.73559 3.60933,-0.94386 4.03748,1.50204 0.6513,3.72074 -2.29406,1.50314 -2.72945,2.35009 -1.72464,3.3549 1.00479,1.0048 -0.97595,1.67897 -7.84598,2.67045 -5.05456,0.72947 -11.05031,1.67078 -13.32387,2.0918 -3.16225,0.58559 -3.5786,0.49168 -1.77161,-0.39958 z m -19.91745,-6.52419 c -0.40402,-1.05287 0.0569,-3.44493 1.02433,-5.31568 1.10999,-2.14648 1.32478,-3.66969 0.58218,-4.12864 -2.04675,-1.26497 -1.27935,-2.87924 1.72749,-3.63391 1.59733,-0.40091 3.52259,-1.47401 4.27837,-2.38465 1.57345,-1.89589 8.84895,-2.24478 9.94166,-0.47672 0.40076,0.64844 -0.0993,2.36115 -1.11137,3.806 -1.01202,1.44486 -1.84003,4.0402 -1.84003,5.76743 0,2.63391 -0.80958,3.42144 -5.01955,4.88278 -2.76076,0.95829 -5.88107,2.11481 -6.93403,2.57002 -1.2347,0.53379 -2.17529,0.14796 -2.64905,-1.08663 z m 21.68906,-11.73408 c 0,-0.28646 0.53148,-0.84931 1.18107,-1.25078 0.64959,-0.40147 1.18107,-0.1671 1.18107,0.52083 0,0.68793 -0.53148,1.25078 -1.18107,1.25078 -0.64959,0 -1.18107,-0.23437 -1.18107,-0.52083 z m -524.1598,-5.6907 c -1.15699,-1.39409 -1.0833,-2.04375 0.3685,-3.24864 2.40025,-1.99202 3.59075,-0.6407 2.19374,2.4901 -0.96338,2.15902 -1.31384,2.26277 -2.56224,0.75854 z m -1.84697,-8.88248 c -0.39884,-0.64534 0.0662,-1.83012 1.03343,-2.63286 1.92031,-1.59372 2.32133,-0.34385 0.70709,2.20376 -0.61677,0.97338 -1.30003,1.14183 -1.74052,0.4291 z m -76.33976,-0.75333 c 0,-0.83076 3.58126,-2.28397 8.66173,-3.51475 1.92593,-0.46657 3.06461,-0.35404 2.68199,0.26506 -0.36571,0.59171 -2.13756,1.37303 -3.93745,1.73623 -1.79988,0.36321 -4.20261,1.0202 -5.3394,1.45998 -1.13678,0.43979 -2.06687,0.46385 -2.06687,0.0535 z m 701.85181,-13.28058 c -2.17894,-0.87923 -1.79335,-2.23446 0.68896,-2.42145 1.19092,-0.0897 2.1653,0.59441 2.1653,1.52027 0,1.75852 -0.40928,1.88774 -2.85426,0.90118 z M 209.65384,414.8415 c -7.47396,-4.07577 -11.04668,-10.33776 -8.88105,-15.56605 1.02493,-2.47439 1.05625,-4.03031 0.11645,-5.78627 -1.95578,-3.65441 0.59596,-7.93703 7.12159,-11.95229 3.09946,-1.90712 6.19408,-4.51143 6.87694,-5.78735 1.89188,-3.53501 0.20692,-9.59287 -3.08546,-11.09297 -1.66631,-0.75922 -2.57313,-1.95976 -2.20498,-2.91913 0.83844,-2.18497 -3.09376,-9.64739 -7.01016,-13.30363 -2.88247,-2.69101 -4.12254,-2.95897 -13.99253,-3.02361 -13.4405,-0.088 -15.94423,-0.83518 -15.72194,-4.69169 0.0924,-1.60197 0.44758,-2.91306 0.7894,-2.91352 0.34184,-4.5e-4 5.12518,-0.5548 10.62965,-1.23188 7.02831,-0.86452 13.32951,-2.64742 21.16344,-5.98813 12.12901,-5.17229 13.05292,-5.27334 41.99291,-4.59312 9.13853,0.2148 17.54563,-0.46153 28.34572,-2.28032 10.05763,-1.69377 17.45829,-2.33227 21.45445,-1.85102 3.39546,0.4089 8.31178,0.13923 11.0874,-0.60816 6.44105,-1.7344 23.17598,0.3519 29.75812,3.70985 3.89129,1.98519 5.95011,2.24733 12.51622,1.59363 7.09248,-0.70611 7.62848,-0.61323 5.49668,0.95248 -1.29918,0.95418 -5.2853,2.11977 -8.85804,2.59019 -7.75267,1.0208 -14.87637,6.5464 -12.98821,10.07448 0.81451,1.5219 0.2304,2.8209 -2.40284,5.3437 -1.91341,1.83315 -3.75897,4.21539 -4.10126,5.29385 -0.82231,2.59086 -11.26374,7.41275 -16.44107,7.59254 -5.75018,0.19968 -6.35154,1.42208 -1.90456,3.87144 2.10072,1.15706 5.16726,3.12858 6.81451,4.38114 l 2.99501,2.27739 -2.70771,1.00165 c -2.07567,0.76783 -3.75943,0.27281 -7.21326,-2.1207 -4.68699,-3.24808 -9.72976,-3.26441 -7.03946,-0.0228 1.04917,1.26416 0.7966,1.75521 -1.16688,2.26867 -4.38907,1.14777 -1.28448,3.4174 3.55597,2.59962 3.08079,-0.5205 4.81342,-0.24618 5.77678,0.91461 1.14626,1.38115 -0.34881,2.02067 -8.9509,3.82874 -5.67982,1.19384 -13.25014,2.21429 -16.82288,2.26767 -6.63709,0.0992 -11.42016,2.00453 -18.45614,7.35219 -2.29437,1.74382 -7.17018,3.47199 -12.87568,4.56363 -11.92478,2.28159 -15.95452,4.92021 -23.13971,15.15154 -5.77115,8.21783 -9.25109,11.28074 -12.84955,11.30971 -0.97438,0.008 -4.42902,-1.4349 -7.67697,-3.20609 z m -83.74343,-7.89921 c -2.5364,-1.55844 -5.64461,-4.46501 -6.90714,-6.45904 -2.46481,-3.89288 -4.73729,-4.38743 -11.39139,-2.47906 -2.25259,0.64603 -4.78038,0.70829 -5.79115,0.14263 -3.497415,-1.95725 2.81978,-3.88222 9.8555,-3.00317 5.35087,0.66855 6.5398,0.47802 7.16376,-1.14799 1.2537,-3.26707 6.99158,-5.60844 10.18199,-4.15479 1.96401,0.89487 3.74947,0.86991 6.25782,-0.0875 3.37473,-1.28807 3.42154,-1.40437 1.21713,-3.02298 -1.26093,-0.92586 -2.7001,-1.68338 -3.19816,-1.68338 -0.49805,0 -2.29601,-2.37265 -3.99546,-5.27254 -1.69946,-2.8999 -4.88458,-6.38171 -7.07808,-7.73737 -3.72783,-2.30392 -4.22101,-2.34441 -7.55534,-0.62015 -2.91505,1.50743 -4.59905,1.61297 -9.21145,0.5773 -3.10434,-0.69705 -7.438695,-0.93181 -9.63191,-0.5217 -3.80474,0.71147 -10.775743,-1.15042 -10.775743,-2.8781 0,-3.17377 10.002684,-10.29652 15.944463,-11.35379 l 4.72429,-0.84063 -3.37697,3.59787 c -4.65838,4.96311 -2.906532,7.24717 2.15199,2.80574 2.14578,-1.88403 5.85436,-3.79187 8.24127,-4.23966 3.64717,-0.68422 5.20962,-0.23805 9.78918,2.79532 6.09317,4.03595 6.56268,4.14419 9.99892,2.30518 2.06923,-1.10742 2.83665,-0.80327 5.08373,2.01484 1.55428,1.94925 5.02535,4.07181 8.41014,5.14279 5.3945,1.70688 5.76353,2.07817 5.76353,5.7988 0,2.79004 0.80466,4.55061 2.69899,5.90536 7.92618,5.66848 7.75334,5.43433 6.03829,8.18057 -2.35155,3.76544 -4.20846,4.0383 -9.41292,1.38318 -3.62062,-1.84711 -5.20241,-2.10041 -7.02504,-1.12496 -2.23037,1.19366 -2.25414,1.44866 -0.45875,4.92056 1.47347,2.84938 1.60806,4.28816 0.60676,6.48578 -1.23385,2.708 -1.43039,2.74983 -4.78062,1.01736 -6.58616,-3.40584 -11.02124,-1.16468 -4.87731,2.46463 1.9249,1.13707 3.23162,2.50136 2.90381,3.03176 -1.14391,1.8509 -6.98751,0.86912 -11.56413,-1.94288 z m 242.59757,1.52932 c 0,-0.54132 0.79722,-0.98422 1.77161,-0.98422 0.97438,0 1.7716,0.4429 1.7716,0.98422 0,0.54133 -0.79722,0.98423 -1.7716,0.98423 -0.97439,0 -1.77161,-0.4429 -1.77161,-0.98423 z M 81.378445,402.11986 c -2.328423,-1.22415 -4.136857,-1.32893 -7.397571,-0.4286 -5.543974,1.53076 -7.482679,0.41057 -4.669438,-2.69802 3.601478,-3.97959 6.044016,-4.76227 10.387892,-3.32866 4.889093,1.61355 7.058946,4.01176 5.740019,6.34411 -0.840816,1.48688 -1.414333,1.50258 -4.060902,0.11117 z m 234.571845,-0.53783 c -1.94877,-1.28135 -4.42927,-2.04944 -5.5122,-1.70688 -1.49147,0.4718 -1.82242,0.0623 -1.36459,-1.68842 0.70267,-2.68702 11.07991,-6.56529 14.58787,-5.45191 1.22304,0.38818 4.34903,0.069 6.94663,-0.70924 4.0779,-1.22177 5.15894,-1.12932 7.91568,0.67697 l 3.19277,2.09198 -2.84397,2.21635 c -2.40041,1.87067 -6.85256,3.49377 -17.60737,6.41901 -0.97438,0.26503 -3.36605,-0.56651 -5.31482,-1.84786 z M -4.7106571,379.5344 c -1.6239734,-0.25666 -5.5800079,-1.64585 -8.7911769,-3.0871 l -5.838497,-2.62045 8.20064,-0.59054 c 4.5103477,-0.32479 8.2006414,-1.12202 8.2006414,-1.77161 0,-0.64959 -3.1888934,-1.46593 -7.0864294,-1.8141 -5.146,-0.4597 -6.116215,-0.7831 -3.543215,-1.18107 4.308053,-0.66634 4.6184859,-2.53213 0.590536,-3.54938 -2.900571,-0.73254 -2.879382,-0.77728 1.200689,-2.53522 7.0710284,-3.04663 14.6026985,-3.63026 21.2755761,-1.64863 5.4786719,1.627 6.3345949,1.62005 8.9175869,-0.0724 1.826704,-1.19691 2.910467,-1.39717 3.004859,-0.55523 0.08114,0.7243 0.214069,1.93697 0.295268,2.69483 0.274138,2.55867 2.630045,2.22758 5.441138,-0.76469 2.602385,-2.77011 7.113334,-4.09709 7.10333,-2.08957 -0.0024,0.48719 -1.053137,2.60581 -2.334907,4.70804 l -2.330479,3.82224 3.811235,1.98836 3.811248,1.98836 -6.257837,2.85625 c -5.64694,2.57742 -6.805394,2.72489 -11.866995,1.51063 -4.907825,-1.17737 -6.315828,-1.04271 -11.2608918,1.07699 -5.5853231,2.39416 -6.7632177,2.54764 -12.5423193,1.63428 z m 47.3683541,-0.83206 c -1.066791,-1.2854 -0.626346,-1.91799 2.130464,-3.0599 1.918923,-0.79485 4.671575,-1.05981 6.14658,-0.59166 2.558024,0.81188 2.499101,0.93956 -1.389271,3.01039 -4.960914,2.64205 -5.208088,2.66506 -6.887773,0.64117 z m 325.850283,-5.46603 c 2.28981,-1.47979 3.54321,-1.47979 3.54321,0 0,0.64959 -1.19583,1.17293 -2.65741,1.16299 -2.14889,-0.0146 -2.3184,-0.23718 -0.8858,-1.16299 z m 216.72664,-3.27668 c -6.03843,-2.38512 -5.91442,-2.25472 -4.15744,-4.37174 0.82169,-0.99009 1.03031,-1.81706 0.46357,-1.83771 -0.56673,-0.0207 0.0326,-0.84077 1.33173,-1.82245 1.29918,-0.98169 2.37103,-2.16062 2.3819,-2.61985 0.0413,-1.74689 4.84986,-6.35372 8.24774,-7.90181 1.94877,-0.88786 6.99785,-1.88857 11.22018,-2.22378 4.22233,-0.33522 9.87791,-0.94937 12.56794,-1.36478 2.86301,-0.44213 5.19627,-0.26135 5.62724,0.436 0.8374,1.35494 -0.76071,1.93087 -9.92768,3.57777 -9.09636,1.63421 -14.56401,4.18082 -18.16525,8.46065 -3.79373,4.50858 -3.92074,7.3553 -0.43662,9.78569 l 2.65741,1.85372 -3.54322,-0.0528 c -1.94877,-0.029 -5.66914,-0.89255 -8.2675,-1.91888 z m -618.580595,-3.42445 c -1.904773,-1.90477 -1.470529,-2.31943 7.667966,-7.32219 10.707312,-5.86158 16.0877073,-6.63972 25.69163846,-3.71566 l 5.31482234,1.61818 -7.0864298,1.40513 c -5.7955303,1.14917 -18.077352,5.25621 -27.77623,9.28838 -0.989384,0.41132 -2.697414,-0.15948 -3.811767,-1.27384 z m 85.326756,-1.52865 c 0,-0.62884 -1.461576,-1.98225 -3.247947,-3.00757 l -3.247947,-1.86422 4.3488,0.68389 c 3.089967,0.48594 4.628431,0.19647 5.314823,-0.99999 0.816333,-1.42295 8.333452,-4.27027 11.330728,-4.29182 0.503869,-0.004 0.0926,1.58604 -0.914043,3.53258 -2.370824,4.58467 -13.584414,9.49387 -13.584414,5.94713 z M 70.369228,361.558 c -1.692122,-2.7379 9.8647,-6.97604 14.773907,-5.41792 3.577879,1.13558 1.186587,3.08693 -5.054172,4.12432 -2.792502,0.46419 -5.953617,1.21733 -7.024695,1.67364 -1.071079,0.45632 -2.28385,0.2853 -2.69504,-0.38004 z m 37.712452,-8.69707 c -7.79507,-0.62005 -14.318234,-1.26225 -14.495926,-1.42713 -1.056079,-0.9799 1.577805,-4.16961 4.412649,-5.34384 2.787127,-1.15447 4.071577,-1.00126 7.887357,0.94078 3.71918,1.89287 6.1165,2.2075 13.02577,1.70955 4.65725,-0.33565 9.97207,-0.2295 11.81072,0.2359 l 3.34301,0.84617 -4.13375,2.2089 c -2.27356,1.21489 -4.93098,2.15222 -5.90536,2.08296 -0.97438,-0.0693 -8.14939,-0.63325 -15.94447,-1.25329 z m 339.88625,-4.82691 c -5.80187,-2.97022 -6.36159,-4.31721 -1.80449,-4.34259 1.78637,-0.01 4.04517,-0.59156 5.01955,-1.29248 1.53153,-1.1017 1.51102,-1.19178 -0.15134,-0.66475 -1.05763,0.33531 -2.54134,-0.009 -3.29714,-0.76452 -1.04485,-1.04484 -1.58913,-1.02634 -2.27118,0.0772 -0.63146,1.02174 -1.928,1.14264 -4.37984,0.40841 -6.22812,-1.86511 -7.61657,-2.69315 -7.61657,-4.54237 0,-1.56638 1.56131,-1.70982 11.22018,-1.03087 7.35613,0.51708 11.22018,0.37374 11.22018,-0.41621 0,-2.32497 3.27696,-1.17691 4.14594,1.4525 l 0.87822,2.65741 0.52274,-2.65741 c 0.28751,-1.46158 1.283,-2.65741 2.21221,-2.65741 0.92921,0 1.68946,-0.63778 1.68946,-1.41729 0,-1.10233 0.31496,-1.10233 1.41729,0 0.82443,0.82443 4.77677,1.41729 9.44857,1.41729 8.44405,0 10.42716,1.50969 4.79564,3.6508 -2.92661,1.11269 -8.0164,0.79794 -13.59462,-0.84069 -1.13678,-0.33393 -2.06351,-0.17272 -2.05941,0.35824 0.008,1.08995 6.64446,5.09915 8.44011,5.09915 0.64334,0 1.91532,0.7456 2.82661,1.65689 1.42181,1.42181 1.40985,1.7517 -0.0843,2.32508 -0.95768,0.3675 -1.74125,0.0942 -1.74125,-0.60727 0,-0.82463 -1.50219,-0.99363 -4.25,-0.47814 -2.97571,0.55825 -4.00762,0.40508 -3.44155,-0.51083 0.44466,-0.71947 0.16616,-2.08208 -0.61888,-3.02801 -1.51454,-1.82485 -5.86247,-2.38358 -5.86247,-0.75334 0,0.53159 -1.72731,2.87623 -3.83848,5.2103 l -3.83848,4.24378 -4.98667,-2.55289 z M 134.6558,345.43575 c -2.0475,-1.20193 -4.94409,-1.55009 -9.44858,-1.1357 -4.21032,0.38734 -7.44753,0.0534 -9.20056,-0.94911 -2.4168,-1.3821 -1.82606,-1.5396 5.55034,-1.47987 9.22382,0.0747 13.27477,-1.89985 8.27946,-4.03561 -2.37307,-1.01461 -2.02703,-1.10672 2.04071,-0.54321 5.31036,0.73566 7.37479,-0.68714 4.48133,-3.08849 -3.08529,-2.56056 0.30716,-3.35546 11.28498,-2.64424 6.79316,0.44011 11.06191,0.19325 12.80685,-0.74062 3.34284,-1.78903 2.03119,-4.06638 -1.78973,-3.10739 -2.64074,0.66278 -20.96748,-0.4248 -20.19389,-1.19839 0.55285,-0.55284 26.51722,-2.95752 43.56587,-4.03484 8.84312,-0.5588 18.67554,-1.33831 21.84983,-1.73224 l 5.77143,-0.71625 -9.52743,4.57642 c -8.93265,4.2907 -23.45882,8.47366 -29.42655,8.47366 -1.45285,0 -5.62947,1.59445 -9.28138,3.54322 -3.65191,1.94877 -7.37221,3.54321 -8.26732,3.54321 -0.89512,0 -4.7584,1.58772 -8.58509,3.52826 -3.82668,1.94054 -6.9576,3.51615 -6.9576,3.50136 0,-0.0148 -1.3287,-0.80687 -2.95267,-1.76017 z m -23.0309,-10.79043 c -5.72405,-1.26658 -5.93386,-1.74304 -1.7275,-3.92313 6.13131,-3.17778 11.93333,-3.99225 14.57119,-2.04546 2.08844,1.54131 1.96736,1.77956 -2.13438,4.19965 -4.27494,2.52227 -6.00978,2.80883 -10.70931,1.76894 z"
       id="path2830" />
  </g>
</svg>
