<?xml version="1.0" encoding="UTF-8"?>
<svg width="500" height="500" viewBox="0 0 500 500" version="1.1" xmlns="http://www.w3.org/2000/svg">
    <g stroke="none" stroke-width="1" fill="none" fill-rule="evenodd">
        <path d="M420,130 C431.045695,130 440,138.954305 440,150 C440,160.813552 431.418118,169.622698 420.693594,169.988198 L396.257834,206.641006 L395.990021,207.035907 C390.486551,215.014057 381.464457,219.842536 371.773458,219.996218 L371.296325,220 L341.67846,219.998476 C344.453051,226.348546 346.587227,233.042463 347.999351,239.998587 L410.975822,240 L411.298664,239.994802 C414.412114,239.894496 417.302428,238.347646 419.11292,235.812739 L419.296325,235.547002 L442.825045,200.253933 C441.031068,197.255546 440,193.748183 440,190 C440,178.954305 448.954305,170 460,170 C471.045695,170 480,178.954305 480,190 C480,200.922943 471.24361,209.800721 460.367472,209.996692 L435.937331,246.641006 L435.669518,247.035907 C430.166048,255.014057 421.143954,259.842536 411.452955,259.996218 L410.975822,260 L349.999497,259.999 C350,266.849816 349.311294,273.538776 347.999351,280.001413 L410.975822,280 C420.847202,280 430.075827,284.855153 435.669518,292.964093 L435.937331,293.358994 L460.367472,330.003308 C471.24361,330.199279 480,339.077057 480,350 C480,361.045695 471.045695,370 460,370 C448.954305,370 440,361.045695 440,350 C440,346.251817 441.031068,342.744454 442.825045,339.746067 L419.296325,304.452998 C417.501495,301.760753 414.519474,300.108963 411.298664,300.005198 L410.975822,300 L341.67846,300.001524 C338.558617,307.14176 334.629064,313.847252 330.005868,320.001937 L370.975822,320 C380.847202,320 390.075827,324.855153 395.669518,332.964093 L395.937331,333.358994 L420.367472,370.003308 C431.24361,370.199279 440,379.077057 440,390 C440,401.045695 431.045695,410 420,410 C408.954305,410 400,401.045695 400,390 C400,386.251817 401.031068,382.744454 402.825045,379.746067 L379.296325,344.452998 C377.501495,341.760753 374.519474,340.108963 371.298664,340.005198 L370.975822,340 L310.006921,340.002125 C293.292525,352.55905 272.515226,360 250,360 C227.484774,360 206.707475,352.55905 189.993079,340.002125 L129.703675,340 L129.380833,340.005198 C126.267383,340.105504 123.377069,341.652354 121.566577,344.187261 L121.383172,344.452998 L97.8550506,379.747068 C99.6486585,382.745234 100.679497,386.252234 100.679497,390 C100.679497,401.045695 91.7251921,410 80.6794971,410 C69.6338021,410 60.6794971,401.045695 60.6794971,390 C60.6794971,379.076744 69.4363891,370.19877 80.3129597,370.003291 L104.742166,333.358994 L105.009979,332.964093 C110.513449,324.985943 119.535543,320.157464 129.226542,320.003782 L129.703675,320 L169.994132,320.001937 C165.370936,313.847252 161.441383,307.14176 158.32154,300.001524 L89.7036752,300 L89.3808333,300.005198 C86.2673832,300.105504 83.377069,301.652354 81.5665774,304.187261 L81.3831722,304.452998 L57.8550506,339.747068 C59.6486585,342.745234 60.6794971,346.252234 60.6794971,350 C60.6794971,361.045695 51.7251921,370 40.6794971,370 C29.6338021,370 20.6794971,361.045695 20.6794971,350 C20.6794971,339.076744 29.4363891,330.19877 40.3129597,330.003291 L64.7421663,293.358994 L65.0099794,292.964093 C70.5134493,284.985943 79.5355434,280.157464 89.2265419,280.003782 L89.7036752,280 L152.000649,280.001413 C150.765879,273.918931 150.083181,267.635969 150.007136,261.207108 L150,259.998998 L89.7036752,260 C79.8322953,260 70.6036701,255.144847 65.0099794,247.035907 L64.7421663,246.641006 L40.3129597,209.996709 C29.4363891,209.80123 20.6794971,200.923256 20.6794971,190 C20.6794971,178.954305 29.6338021,170 40.6794971,170 C51.7251921,170 60.6794971,178.954305 60.6794971,190 C60.6794971,193.747766 59.6486585,197.254766 57.8550506,200.252932 L81.3831722,235.547002 C83.1780023,238.239247 86.1600228,239.891037 89.3808333,239.994802 L89.7036752,240 L152.000649,239.998587 C153.412773,233.042463 155.546949,226.348546 158.32154,219.998476 L129.383172,220 C119.511792,220 110.283167,215.144847 104.689476,207.035907 L104.421663,206.641006 L79.9859202,169.988199 C69.2613881,169.622707 60.6794971,160.813558 60.6794971,150 C60.6794971,138.954305 69.6338021,130 80.6794971,130 C91.7251921,130 100.679497,138.954305 100.679497,150 C100.679497,153.853228 99.5898268,157.451949 97.7018285,160.504822 L121.062669,195.547002 C122.857499,198.239247 125.83952,199.891037 129.06033,199.994802 L129.383172,200 L169.994132,199.998063 C188.238347,175.710231 217.284513,160 250,160 C282.715487,160 311.761653,175.710231 330.005868,199.998063 L371.296325,200 L371.619167,199.994802 C374.732617,199.894496 377.622931,198.347646 379.433423,195.812739 L379.616828,195.547002 L402.977669,160.504822 C401.08967,157.451949 400,153.853228 400,150 C400,138.954305 408.954305,130 420,130 Z M250,180 C205.81722,180 170,215.81722 170,260 C170,304.18278 205.81722,340 250,340 C294.18278,340 330,304.18278 330,260 C330,215.81722 294.18278,180 250,180 Z M250,200 C283.137085,200 310,226.862915 310,260 C310,293.137085 283.137085,320 250,320 C216.862915,320 190,293.137085 190,260 C190,226.862915 216.862915,200 250,200 Z M320,80 L320.661473,80.0053589 C342.447771,80.3585905 360,98.1295239 360,120 C360,142.09139 342.09139,160 320,160 C297.90861,160 280,142.09139 280,120 C280,109.144748 284.324099,99.2994434 291.343791,92.0925917 L291.715729,91.7157288 L320,120 L320,80 Z M180,80 L180,120 L208.284271,91.7157288 C215.522847,98.954305 220,108.954305 220,120 C220,142.09139 202.09139,160 180,160 C157.90861,160 140,142.09139 140,120 C140,98.1295239 157.552229,80.3585905 179.338527,80.0053589 L180,80 Z" fill="currentColor"></path>
    </g>
</svg>