<svg height='300px' width='300px' xmlnsDc="http://purl.org/dc/elements/1.1/" xmlnsCc="http://creativecommons.org/ns#" xmlnsRdf="http://www.w3.org/1999/02/22-rdf-syntax-ns#" xmlnsSvg="http://www.w3.org/2000/svg" xmlns="http://www.w3.org/2000/svg" xmlnsSodipodi="http://sodipodi.sourceforge.net/DTD/sodipodi-0.dtd" xmlnsInkscape="http://www.inkscape.org/namespaces/inkscape" version="1.1" x="0px" y="0px" viewBox="0 0 100 100"><g transform="translate(0,-952.36218)"><path style="text-indent:0;text-transform:none;direction:ltr;block-progression:tb;baseline-shift:baseline;enable-background:accumulate;" d="m 49.625002,958.37952 a 3.0003,3.0003 0 0 0 -0.7188,0.1875 l -37,14.71875 a 3.0003,3.0003 0 0 0 -1.9062,2.8125 l 0,52.56253 a 3.0003,3.0003 0 0 0 1.9062,2.7812 l 37,14.7188 a 3.0003,3.0003 0 0 0 2.1876,0 l 36.999997,-14.7188 a 3.0003,3.0003 0 0 0 1.9062,-2.7812 l 0,-52.56253 a 3.0003,3.0003 0 0 0 -1.9062,-2.8125 L 51.093802,958.56702 a 3.0003,3.0003 0 0 0 -1.4688,-0.1875 z m 0.375,6.21875 28.875,11.5 -28.875,11.46873 -28.875,-11.46873 28.875,-11.5 z m -34,15.90623 31,12.3438 0,46.0937 -31,-12.3437 0,-46.0938 z m 68,0 0,46.0938 -31,12.3437 0,-46.0937 31,-12.3438 z" fill-opacity="1" stroke="none" marker="none" visibility="visible" display="inline" overflow="visible"></path></g></svg>
