<?xml version="1.0" encoding="UTF-8"?>
<svg width="512" height="512" viewBox="0 0 512 512" version="1.1" xmlns="http://www.w3.org/2000/svg">
    <g stroke="none" stroke-width="1" fill="none" fill-rule="evenodd">
        <path d="M113.288481,145 C128.136677,145 140.174312,157.023943 140.174312,171.856735 C140.174312,183.469807 132.793886,193.362319 122.463232,197.108867 L122.464671,336.232914 C141.696857,335.384773 159.580699,331.869555 175.47006,326.043141 L175.46949,219.38341 C165.138836,215.636862 157.75841,205.744351 157.75841,194.131279 C157.75841,179.298487 169.796045,167.274543 184.644241,167.274543 C199.492436,167.274543 211.530071,179.298487 211.530071,194.131279 C211.530071,205.744351 204.149645,215.636862 193.818991,219.38341 L193.819851,317.813403 C211.486095,308.273137 225.639172,295.360902 235.02445,279.767728 C228.656572,274.035269 224.654434,265.734349 224.654434,256.5 C224.654434,239.206326 238.688237,225.188356 256,225.188356 C257.421586,225.188356 258.821069,225.282882 260.192492,225.465984 C284.066647,183.99976 335.257967,158.88464 396.335714,158.249774 L398.711519,158.237443 L496.825688,158.237443 C501.892521,158.237443 506,162.340477 506,167.401826 C506,172.282413 502.180673,176.271914 497.364749,176.550653 L496.825688,176.56621 L479.24159,176.56621 L479.242252,315.890998 C489.573026,319.637265 496.953109,329.529235 496.953109,341.143265 C496.953109,355.974833 484.914915,368 470.067278,368 C455.219642,368 443.181448,355.974833 443.181448,341.143265 C443.181448,329.528083 450.562994,319.635304 460.895378,315.889884 L460.892966,176.56621 L407.883792,176.56621 L407.886493,315.890998 C418.217267,319.637265 425.59735,329.529235 425.59735,341.143265 C425.59735,355.974833 413.559155,368 398.711519,368 C383.863882,368 371.825688,355.974833 371.825688,341.143265 C371.825688,329.529235 379.205771,319.637265 389.536545,315.890998 L389.535329,176.767086 C370.303143,177.615227 352.419301,181.130445 336.52994,186.956859 L336.530733,293.616455 C346.861507,297.362722 354.24159,307.254692 354.24159,318.868721 C354.24159,333.70029 342.203396,345.725457 327.355759,345.725457 C312.508123,345.725457 300.469929,333.70029 300.469929,318.868721 C300.469929,307.254692 307.850012,297.362722 318.180786,293.616455 L318.180149,195.186597 C300.513905,204.726863 286.360828,217.639098 276.97555,233.232272 C283.34359,238.964127 287.345566,247.265003 287.345566,256.5 C287.345566,273.79246 273.311194,287.811644 256,287.811644 C254.57846,287.811644 253.179017,287.71711 251.807626,287.533993 C227.933663,329.000088 176.742218,354.115358 115.664286,354.750226 L113.288481,354.762557 L15.1743119,354.762557 C10.1074794,354.762557 6,350.659523 6,345.598174 C6,340.717587 9.81932711,336.728086 14.6352514,336.449347 L15.1743119,336.43379 L32.7584098,336.432772 L32.7584368,197.109036 C22.4275387,193.362616 15.0468909,183.469982 15.0468909,171.856735 C15.0468909,157.023943 27.0845259,145 41.9327217,145 C56.7809176,145 68.8185525,157.023943 68.8185525,171.856735 C68.8185525,183.468835 61.439362,193.360663 51.1100663,197.107926 L51.1070336,336.432772 L104.11315,336.432772 L104.113731,197.108867 C93.7830763,193.362319 86.4026504,183.469807 86.4026504,171.856735 C86.4026504,157.023943 98.4402853,145 113.288481,145 Z" fill="currentColor"></path>
    </g>
</svg>