<svg id="Layer_1" data-name="Layer 1" xmlns="http://www.w3.org/2000/svg" viewBox="0 0 109.57 122.88"><title>distribute</title><path d="M51.83,29.77V21.89a11.12,11.12,0,0,1-5-18.62h0a11.09,11.09,0,0,1,15.71,0h0A11.13,11.13,0,0,1,57.17,22v7.47L57,29.39a6.51,6.51,0,0,0-.92-.18,10.81,10.81,0,0,0-1.24,0h-.14a6.82,6.82,0,0,0-1,.07c-.23,0-.51.1-.82.18a6.71,6.71,0,0,0-1,.31l-.08,0Zm-18,17.51L54.1,35.93l.25-.1a2.05,2.05,0,0,1,.65-.1,2.1,2.1,0,0,1,.56.07A1.09,1.09,0,0,1,56,36L76.06,47.61a2.08,2.08,0,0,1,1.11,1,2.65,2.65,0,0,1,.3,1.3V73.32a2.26,2.26,0,0,1-1.19,1.85L56.13,86.88a2,2,0,0,1-.46.18,2.15,2.15,0,0,1-1.23,0,2.18,2.18,0,0,1-.56-.25l-20.61-12A2.26,2.26,0,0,1,32.1,73V49.46a2.26,2.26,0,0,1,1.7-2.18Zm19,33.81V62.77L36.6,53.12V71.56l16.21,9.53ZM73,53.4,57.31,62.78V81.11L73,71.86V53.4ZM55,40.47,39.69,49.61l15.38,9.26,14.92-9L55,40.47ZM57.32,101a11.18,11.18,0,0,1,5.21,2.94h0a11.09,11.09,0,0,1,0,15.71h0a11.09,11.09,0,0,1-15.71,0h0a11.09,11.09,0,0,1,0-15.71h0A11.09,11.09,0,0,1,52,101v-7.8a6.6,6.6,0,0,0,.66.23v0l.38.1a4.9,4.9,0,0,0,.78.16,8.48,8.48,0,0,0,1.26.11,8.37,8.37,0,0,0,1.26-.11,6.44,6.44,0,0,0,1-.22V101Zm1.44,6.7a5.82,5.82,0,0,0-8.18,0h0a5.83,5.83,0,0,0,0,8.19h0a5.82,5.82,0,0,0,8.18,0h0a5.81,5.81,0,0,0,0-8.19ZM58.76,7a5.82,5.82,0,0,0-8.18,0h0a5.83,5.83,0,0,0,0,8.19,5.83,5.83,0,0,0,4.1,1.69A5.79,5.79,0,0,0,58.77,7ZM98.44,75.44a11.12,11.12,0,0,1,7.86,3.26h0a11.09,11.09,0,0,1,0,15.71h0A11.12,11.12,0,0,1,87.79,83.34l-6.51-3.76a8.36,8.36,0,0,0,1.45-1.8,9.85,9.85,0,0,0,.51-1,6.45,6.45,0,0,0,.39-1,8.06,8.06,0,0,0,.23-.91l6.65,3.84.06-.07a11.13,11.13,0,0,1,7.87-3.26Zm4.09,7a5.79,5.79,0,1,0,0,8.21h0a5.81,5.81,0,0,0,0-8.19Zm-91.4-7a11.1,11.1,0,0,1,7.74,3.14l6.84-4,.06.24.16.61a7.15,7.15,0,0,0,.47,1.17,4.79,4.79,0,0,0,.4.78,8.91,8.91,0,0,0,1.44,1.79l.06.06-6.6,3.81A11.12,11.12,0,0,1,3.27,94.43h0a11.13,11.13,0,0,1,7.87-19Zm4.09,7a5.81,5.81,0,0,0-8.19,0,5.82,5.82,0,0,0,0,8.19H7a5.83,5.83,0,0,0,8.19,0,5.82,5.82,0,0,0,0-8.2ZM98.44,25.13a11.12,11.12,0,0,1,7.87,19h0a11.12,11.12,0,0,1-15.73,0L90.43,44,83.82,47.8a8.6,8.6,0,0,0-.92-2.41,8.87,8.87,0,0,0-1.72-2.22l6.58-3.8a11.07,11.07,0,0,1,2.81-11h0a11.08,11.08,0,0,1,7.86-3.26Zm4.09,7a5.81,5.81,0,0,0-8.18,0h0a5.79,5.79,0,0,0,8.19,8.2h0a5.79,5.79,0,0,0,0-8.19Zm-91.4-7A11,11,0,0,1,19,28.39h0a11,11,0,0,1,3.26,7.85,11.32,11.32,0,0,1-.31,2.62l6.58,4a7.31,7.31,0,0,0-.83.84,8.46,8.46,0,0,0-1.33,2.06l-.27.6c-.12.35-.23.69-.32,1l-6.29-3.82a6.15,6.15,0,0,1-.49.53A11.12,11.12,0,1,1,3.26,28.4h0a11.08,11.08,0,0,1,7.86-3.26Zm4.09,7a5.83,5.83,0,0,0-8.19,0H7a5.83,5.83,0,0,0,0,8.19,5.79,5.79,0,0,0,9.89-4.1,5.77,5.77,0,0,0-1.68-4.09Z"/></svg>