<svg width="101" height="26" viewBox="0 0 101 26" fill="none" xmlns="http://www.w3.org/2000/svg">
  <path d="M80.3579 12.2261C80.3579 12.1906 80.3579 12.1552 80.3579 12.102C80.3579 12.0311 80.3401 11.9779 80.3401 11.907C80.3401 11.8893 80.3401 11.8715 80.3401 11.8538C80.3224 11.6056 80.287 11.3397 80.2515 11.0915C80.1629 10.542 80.0388 9.99244 79.897 9.44288C79.7374 8.91106 79.5601 8.39697 79.3297 7.88287C79.117 7.3865 78.8688 6.92559 78.6029 6.46468C78.5851 6.44695 78.5851 6.42922 78.5674 6.41149C78.5319 6.34058 78.4788 6.26968 78.4433 6.19877C78.4256 6.16331 78.3901 6.11013 78.3724 6.07467C78.3369 6.02149 78.3192 5.98604 78.2838 5.93285C78.2483 5.86194 78.1951 5.80876 78.1597 5.73785C78.1419 5.72012 78.1242 5.7024 78.1242 5.66694C77.8228 5.24148 77.5037 4.81603 77.1492 4.42602C76.7947 4.01829 76.4046 3.64601 75.9969 3.27374C75.5537 2.88373 75.0928 2.52919 74.5964 2.19236C74.2951 1.99736 73.9937 1.80236 73.6746 1.62508C73.2669 1.39463 72.8237 1.1819 72.3805 1.00463C72.3273 0.986898 72.2564 0.951442 72.2032 0.933714C71.6182 0.703258 70.9978 0.508256 70.3773 0.366437C70.3419 0.348709 70.3064 0.34871 70.2532 0.330983C70.2 0.313255 70.1646 0.313256 70.1114 0.295528C69.491 0.153709 68.8528 0.0650715 68.2146 0.0296166C68.1437 0.0296166 68.0905 0.0296155 68.0196 0.0118881C67.5409 -0.00583936 67.0623 -0.00583828 66.5837 0.0296166C66.2291 0.047344 65.8568 0.0827973 65.5023 0.13598C65.4491 0.13598 65.3959 0.153708 65.3427 0.153708C65.3073 0.153708 65.2718 0.171437 65.2364 0.171437C64.74 0.260074 64.2613 0.366437 63.7827 0.508257C63.2686 0.667804 62.7545 0.845079 62.2582 1.05781C61.6731 1.30599 61.0881 1.60736 60.5563 1.96191C60.5386 1.97964 60.5209 1.99736 60.4854 1.99736C60.4322 2.03282 60.3968 2.05054 60.3436 2.086C60.2727 2.12145 60.2195 2.17464 60.1486 2.21009C60.1486 2.21009 60.1486 2.21009 60.1309 2.21009C59.6699 2.52919 59.2268 2.86601 58.8013 3.23828C58.3936 3.59283 58.0213 3.98283 57.649 4.39056C57.3299 4.76284 57.0108 5.15285 56.7272 5.56058C56.7095 5.5783 56.6917 5.59603 56.6917 5.63149C56.6563 5.68467 56.6208 5.73785 56.5854 5.79103C56.5322 5.87967 56.4613 5.96831 56.4081 6.05694C56.4081 6.05694 56.4081 6.05694 56.4081 6.07467C56.284 6.2874 56.1599 6.50013 56.0358 6.71286C55.8054 7.12059 55.5926 7.56378 55.4154 8.00696C55.3976 8.06014 55.3622 8.13105 55.3445 8.18424C55.114 8.76924 54.919 9.38971 54.7772 10.0279C54.7772 10.0633 54.7594 10.0988 54.7594 10.1343C54.7417 10.1874 54.7417 10.2406 54.724 10.2938C54.7063 10.3824 54.6885 10.4534 54.6708 10.542V10.5597C54.5644 11.0915 54.4935 11.6234 54.4581 12.1729C54.4581 12.2438 54.4581 12.297 54.4404 12.3679C54.4226 12.8466 54.4226 13.3252 54.4581 13.8038C54.4758 14.1584 54.5113 14.5129 54.5645 14.8675C54.6531 15.4525 54.7772 16.0375 54.9367 16.6048C55.0963 17.1189 55.2736 17.633 55.4863 18.1293C55.6458 18.5193 55.8408 18.8916 56.0535 19.2639C56.1067 19.3525 56.1599 19.4412 56.1954 19.5298C56.2131 19.5475 56.2308 19.583 56.2308 19.6007C56.2663 19.6716 56.3017 19.7248 56.3549 19.7957C56.3904 19.8489 56.4081 19.8843 56.4436 19.9375C56.4613 19.973 56.4967 20.0262 56.5145 20.0616C56.5499 20.1325 56.6031 20.2034 56.6563 20.2566C56.674 20.2743 56.674 20.2921 56.6917 20.3098C56.9931 20.753 57.3122 21.1607 57.6668 21.5685C58.0213 21.9762 58.4113 22.3662 58.819 22.7207C59.2622 23.1107 59.7231 23.4653 60.2195 23.8021C60.5209 23.9971 60.8222 24.1921 61.1413 24.3694C61.5491 24.5998 61.9922 24.8126 62.4354 24.9899C62.8963 25.1849 63.3573 25.3444 63.8182 25.4685C64.0486 25.5394 64.2968 25.5926 64.5273 25.6458C64.545 25.6458 64.5805 25.6635 64.5982 25.6635C65.2541 25.8053 65.91 25.9117 66.5837 25.9471C66.8496 25.9649 67.1332 25.9649 67.3991 25.9649V22.1889C67.08 22.1889 66.7432 22.1712 66.4241 22.1357C66.0696 22.1003 65.7327 22.0471 65.3959 21.9762C65.1832 21.923 64.9882 21.8698 64.7755 21.8166C64.7577 21.8166 64.74 21.7989 64.7223 21.7989C64.6514 21.7812 64.5805 21.7635 64.5273 21.728C64.3145 21.6571 64.0841 21.5685 63.8713 21.4798C63.5523 21.338 63.2332 21.1962 62.9318 21.0366C62.7368 20.9303 62.5595 20.8239 62.3645 20.6998C61.9922 20.4516 61.6377 20.1857 61.3186 19.9021C60.8045 19.4412 60.3259 18.9271 59.9359 18.3775C59.8118 18.2002 59.6877 18.023 59.5636 17.828C59.4927 17.7039 59.4218 17.5798 59.3509 17.4557C59.014 16.853 58.7481 16.2148 58.5531 15.5411C58.4999 15.3638 58.4468 15.1866 58.4113 14.9916C58.3936 14.9561 58.3936 14.9029 58.3759 14.8675H60.0422C60.8045 17.8811 63.3927 20.1857 66.5659 20.5225C66.6014 20.5225 66.6368 20.5225 66.6723 20.5403C66.7077 20.5403 66.7432 20.5403 66.7786 20.558C66.7964 20.558 66.8318 20.558 66.8496 20.558C66.9027 20.558 66.9382 20.558 66.9736 20.5757C66.9914 20.5757 67.0268 20.5757 67.0446 20.5757C67.0623 20.5757 67.0623 20.5757 67.08 20.5757C67.1155 20.5757 67.1509 20.5757 67.1864 20.5757C67.2573 20.5757 67.3105 20.5757 67.3814 20.5757V18.6789V12.9884H71.0687V11.0915H69.2782V7.65241C71.4764 8.43242 73.0542 10.5243 73.0542 13.0061C73.0542 15.8602 70.9446 18.218 68.1968 18.6257V20.5225C71.3701 20.1857 73.9405 17.8989 74.7206 14.8675H76.3869H77.9647H80.2338C80.3224 14.247 80.3756 13.6266 80.3756 12.9706C80.3756 12.7579 80.3756 12.492 80.3579 12.2261ZM74.7383 11.1093C73.9583 8.13105 71.3878 5.86194 68.2323 5.52512C68.1969 5.52512 68.1791 5.52512 68.1437 5.52512C68.1082 5.52512 68.0728 5.52512 68.0196 5.5074C68.0018 5.5074 67.9664 5.5074 67.9487 5.5074C67.9132 5.5074 67.86 5.5074 67.8246 5.5074C67.8068 5.5074 67.7714 5.5074 67.7537 5.5074H67.7359C67.7005 5.5074 67.665 5.5074 67.6296 5.5074C67.5587 5.5074 67.5055 5.5074 67.4346 5.5074V13.0416H63.7473V14.9384H65.5377V18.413C63.3395 17.633 61.7618 15.5411 61.7618 13.0593C61.7618 10.2052 63.8713 7.84742 66.6191 7.43969V5.54285C64.7223 5.73785 63.0382 6.64195 61.8327 7.98924L61.8504 7.97151C61.8327 7.98924 61.7972 8.02469 61.7795 8.04242C61.7972 8.02469 61.7972 8.02469 61.815 8.00696C61.035 8.89333 60.4322 9.93925 60.1309 11.127H58.4645C58.4822 11.0206 58.4999 10.932 58.5354 10.8256C58.5531 10.7724 58.5709 10.7015 58.5886 10.6484C58.6063 10.6129 58.6063 10.5774 58.624 10.542C58.7127 10.2052 58.8368 9.86834 58.9786 9.54925C59.1559 9.12379 59.3509 8.71606 59.5813 8.34379C59.599 8.30833 59.6345 8.25515 59.6522 8.21969C59.6877 8.16651 59.7231 8.11333 59.7409 8.07788C59.7763 8.02469 59.8118 7.95378 59.8649 7.9006C59.8827 7.86515 59.9004 7.82969 59.9359 7.81196C59.989 7.74105 60.0422 7.67014 60.0954 7.59923C60.1131 7.5815 60.1131 7.56378 60.1309 7.54605C60.2018 7.45742 60.255 7.3865 60.3259 7.29786L60.3436 7.28014C60.9109 6.58877 61.5668 5.98604 62.3113 5.47194C62.3468 5.45421 62.3645 5.43649 62.4 5.40103C62.4354 5.3833 62.4709 5.34785 62.5063 5.33012C63.6409 4.6033 64.935 4.12465 66.2645 3.94738C66.3 3.94738 66.3177 3.94738 66.3532 3.92965C66.4241 3.92965 66.4773 3.91193 66.5482 3.91193C66.6546 3.8942 66.7609 3.8942 66.8673 3.8942C67.2041 3.87647 67.5587 3.87647 67.8955 3.8942C68.25 3.91193 68.5868 3.94738 68.9237 4.00056C69.0655 4.01829 69.2073 4.05375 69.3491 4.07147C69.5619 4.12466 69.7746 4.17784 69.9873 4.23102C70.3064 4.31966 70.6432 4.44375 70.9623 4.56784C71.2814 4.70966 71.6005 4.85148 71.9019 5.01103C72.026 5.08193 72.1678 5.15285 72.2919 5.24149C72.7351 5.5074 73.1428 5.80876 73.5151 6.14558C74.0292 6.60649 74.5078 7.12059 74.8978 7.67014C75.0219 7.84742 75.1283 8.00696 75.2524 8.18424C75.341 8.30833 75.4119 8.45015 75.4828 8.59197C75.8196 9.1947 76.0856 9.83289 76.2806 10.5065C76.3337 10.7015 76.3869 10.9143 76.4401 11.1093H74.7383Z" fill="#DFDDCD"/>
  <path d="M12.551 11.7115V16.3206H20.2093C18.9506 19.0861 16.1851 21.0007 12.9588 21.0007C8.56235 21.0007 4.99913 17.4374 4.99913 13.041C4.99913 8.64463 8.56235 5.08141 12.9588 5.08141C16.0079 5.08141 18.667 6.80098 19.9965 9.31827L24.6411 7.43916C22.5493 3.09594 18.0997 0.0822754 12.9588 0.0822754C5.79687 0.0822754 0 5.87915 0 13.041C0 20.2029 5.79687 25.9998 12.9588 25.9998C16.8588 25.9821 19.6065 24.4575 21.3084 21.9757L21.6452 25.5743H25.5275V11.7292H12.551V11.7115Z" fill="#DFDDCD"/>
  <path d="M94.4341 25.5573L88.3181 16.9773L82.2021 25.5573H76.4053L84.9499 13.2368L76.5648 0.632568H82.6453L88.3181 9.2481L93.9554 0.632568H100.036L91.6509 13.2368L100.231 25.5573H94.4341Z" fill="#DFDDCD"/>
  <path d="M39.7805 11.7115V16.3206H47.4388C46.1801 19.0861 43.4146 21.0007 40.1882 21.0007C35.7918 21.0007 32.2286 17.4374 32.2286 13.041C32.2286 8.64463 35.7918 5.08141 40.1882 5.08141C43.2374 5.08141 45.8965 6.80098 47.226 9.31827L51.8706 7.43916C49.7788 3.09594 45.3292 0.0822754 40.1882 0.0822754C33.0264 0.0822754 27.2295 5.87915 27.2295 13.041C27.2295 20.2029 33.0264 25.9998 40.1882 25.9998C44.0883 25.9821 46.836 24.4575 48.5379 21.9757L48.8747 25.5743H52.757V11.7292H39.7805V11.7115Z" fill="#DFDDCD"/>
</svg>
