<svg xmlns="http://www.w3.org/2000/svg" viewBox="0 0 100 100">
	<path d="M46.5 64.9h5.9c-.9 1.7-1.8 3.2-2.9 5.1-1-1.9-1.9-3.3-3-5.1zm-14.2-5h5.8c-1-1.7-1.8-3.2-3-5.1-1 1.9-1.9 3.4-2.8 5.1zm5.2-19.2c.1-.1-.2-.7-.3-.7H32c1.2 1.8 2 3.3 3 5.1.9-1.6 1.7-3 2.5-4.4zm9.8-5.7h4.6c.1-.1.1-.2.2-.3-.8-1.5-1.7-2.9-2.8-4.7-.9 1.6-1.7 3-2.5 4.5 0 0 .3.5.5.5zm8.4 5.9c-.3-.7-.9-.9-1.7-.9-1.5.1-3.1 0-4.6 0h-4.6c-.9 0-1.4.2-1.8 1-1.5 2.8-3.1 5.5-4.7 8.3-.2.5-.2 1.1 0 1.6 1.6 2.8 3.2 5.5 4.8 8.3.3.7.9.9 1.6.9 3.1 0 6.3 0 9.4-.1.6 0 1.4-.5 1.6-.9 1.6-2.8 3.2-5.5 4.7-8.3.2-.3.2-1 .1-1.4-1.4-2.9-3.2-5.8-4.8-8.5zm44.3 9.2c-.5 29.3-23.9 50.2-50.7 49.8C20.6 99.5-.2 76.3 0 49.9.2 20.9 23.7-.5 50.7 0 79.2.6 99.9 23.5 100 50.1zM87 64.2c1-1.5 2-3.1 3-4.9h-1.4c-1.7.1-11.7.6-15 .6-.8 0-1.3-.2-1.6-.9-1.6-2.6-3.1-5.3-4.7-7.9-.6-.9-.6-1.5 0-2.4 1.5-2.3 2.8-4.7 4.1-7.1.5-1 .9-1.7 2.4-1.7 3.6.1 7-.1 10.6-.1h5.1c-1-1.6-1.8-3-2.6-4.4-.2-.2-.6-.3-.9-.3H75.3c.3-.8.6-1.4.9-1.8 1.4-2.3 2.8-4.6 4-7 .2-.5.5-1.1.3-1.5-.8-1.5-1.7-3-2.5-4.4-1 1.6-2 3.1-2.9 4.7-1.7 3-3.6 6.1-5.2 9.1-.5.7-.8 1-1.6 1h-9.5c-.5 0-1.2-.3-1.4-.7-1.7-2.8-3.3-5.6-4.9-8.5-.2-.3-.3-.8-.2-1.1.5-1.3 1-2.3 1.6-3.4 1.5-2.8 3.1-5.5 4.6-8.4.5-.8.8-1.7 1.3-2.6-1.3 0-2.3.1-3.3 0s-1.7.2-2.2 1.1c-1.4 2.5-2.9 4.9-4.3 7.5-.1.3-.5.7-.8 1.1-.3-.6-.7-.9-.9-1.4-1.5-2.4-2.9-4.8-4.3-7.2-.2-.3-.7-.9-1-.9-1.5-.1-3 0-4.9.1 1.2 2 2.1 3.4 3 5.1 1.6 3 3.1 5.9 4.8 8.7.5.7.3 1.1 0 1.8-1.5 2.8-3 5.5-4.6 8.2-.2.3-.8.8-1.3.8-3.2.1-6.6.1-9.8.1-.6 0-1.2-.3-1.5-.8-.8-1.1-1.5-2.4-2.2-3.6-2-3.1-4-6.2-6.2-9.7-.9 1.4-1.6 2.3-2.1 3.3-.2.3-.2 1.1 0 1.5 1.2 2.3 2.5 4.5 3.8 6.7.5.7.9 1.5 1.4 2.4-.6.1-1 .1-1.4.1h-9.1c-.5 0-1 .1-1.2.3-.8 1.3-1.6 2.6-2.4 4.1.6.1.8.1 1 .1h5.9c3.1.1 6.1.2 9.2.3.5 0 1 .3 1.3.7 1.6 2.6 3.2 5.4 4.8 8.2.6.8.5 1.4 0 2.2-1.5 2.5-3 4.9-4.4 7.6-.5.8-1.1 1.1-2.1 1.1-2.8 0-13.9-.2-15.9-.2.3.8.7 1.5 1 2.1 1.8 3.2 1.8 3.2 5.6 3.1h7.6c-.2.5-.3.8-.5 1-1.3 2.3-2.5 4.6-3.9 6.8s-1.6 1.7-.1 4c1 1.4 1.4 2.2 2.2 3.6 2.1-4.1 6.4-12.5 7.7-14.7.2-.5.9-.8 1.4-.8 3.3-.1 6.6 0 9.8-.1.8 0 1.2.3 1.5.9 1.5 2.8 3.2 5.5 4.7 8.3.2.5.2 1.3 0 1.6-2.2 3.1-8.1 12.5-9 14.1h6.3c.2 0 .6-.2.5-.2.9-1.7 2-3.3 2.9-5.1.8-1.4 1.6-2.8 2.5-4.3.3.5.5.6.6.8 1.6 2.8 3.1 5.4 4.7 8 .1.3.5.9.8.9 1.4.1 2.8 0 4.3 0-.1-.3-.1-.6-.2-.7-2.3-4.5-4.6-9-6.9-13.3-.3-.7-.3-1.1 0-1.7 1.6-2.9 3.2-5.6 4.8-8.4.2-.5.9-.9 1.5-.9 3.2-.1 6.4 0 9.7 0 .3 0 .9.2 1.2.6 2 3.2 3.8 6.5 5.8 9.8.8 1.5 1.7 2.9 2.6 4.5 1-1.7 1.8-3.1 2.6-4.6.2-.2 0-.7-.1-1-1.5-2.6-3.1-5.3-4.6-7.9-.2-.3-.3-.7-.6-1.3.7-.1 1-.1 1.4-.1 3-.1 6-.1 9-.1.3-.1.9-.3 1.1-.5zm-24.3-7.5c-.6.9-1.2 2-1.7 3.1h5.8c-.7-1.3-1.3-2.3-1.8-3.2-1.1-1.7-1.2-1.7-2.3.1zm4-16.8h-5.8c1 1.7 1.8 3.2 2.9 4.9 1.1-1.6 1.9-3.1 2.9-4.9z"/>
</svg>