<svg xmlns="http://www.w3.org/2000/svg" viewBox="0 0 200 169.3"><style type="text/css">
	.st0{fill:currentColor;}
</style><polygon class="st0" points="93.4 88 105.9 88.2 105.9 80 93.6 79.8 "/><path class="st0" d="M182.2 21.7c-11.7-11.9-28.9-18-49.9-18 -14 0-21.8 4.1-28.9 12.3 -7 8.2-8.8 19-8.8 26.6l-0.3 21.6 11.9 0.3 0.3-21.6c0-5.6 2-10.8 5-14.9 3.2-4.1 7.8-6.4 12.8-6.4h0.3c5.8 0 10.2 1.5 13.1 3.8 3.2 2.6 5 6.7 4.7 11.9 0 5.2-2.4 10.2-6.1 14 -3.8 3.8-8.8 5.8-14.3 5.6l-11.7-0.3v7.6l11.7 0.3c0.3 0 0.3 0 0.6 0 14.9 0 27.2-11.9 27.4-26.8 0-3.5-0.6-7.3-2-10.5l-0.6-1.1 0.9 1.1c3.8 4.7 5.8 10.8 5.8 16.9 -0.3 14-11.7 25.3-25.9 25.3 -0.3 0-0.3 0-0.6 0L106 69.1l-12.3-0.3 -33.5-0.7c-0.3 0-0.6 0-0.9 0 -11.7 0-22.7 4.3-31.3 12.5 -8.8 8.4-13.8 19.6-13.8 31.8 0 7 1.1 13.8 4.3 19.9l-0.3 0.3C12.6 125 9.8 116 10 106.3c0.3-11.7 5-22.5 13.4-30.6s19.2-12.5 30.9-12.3L89.7 64v-7.6l-35.4-0.6c-0.3 0-0.6 0-0.9 0 -13.4 0-25.7 5-35.4 14.3C8.3 79.6 2.7 92.4 2.3 106.2c-0.3 16.9 5 31.8 14.9 42.1 10.8 11.1 26.6 16.6 46.9 16.6 13.8 0 24.2-4.1 31.5-12.5 5.6-6.7 8.8-16 9.1-26.3l0.3-21.6L93.5 104l-0.3 21.6c0 5.6-2 10.8-5 14.9 -3.5 4.3-7.8 6.4-13.1 6.4 -5.8 0-10.2-1.5-13.1-3.8 -3.2-2.6-5-6.7-4.7-11.9 0.3-10.8 9.1-19.6 19.9-19.6h0.3l11.7 0.3v-7.6L77.5 104c-0.3 0-0.3 0-0.6 0 -14.9 0-27.2 12-27.4 26.9 0 3.5 0.6 7.3 2 10.5l0.6 1.1 -0.9-1.1c-3.8-4.7-5.8-10.8-5.8-16.9 0.3-14 11.7-25.3 25.9-25.3 0.3 0 0.3 0 0.6 0l21.6 0.3 12.3 0.3 33.5 0.6c0.3 0 0.6 0 0.9 0 24.6 0 44.7-19.9 45.2-44.3 0-7-1.1-13.8-4.3-19.9l0.3-0.3c5.6 7.6 8.4 16.6 8.2 26.3 -0.3 11.7-5 22.5-13.4 30.6 -8.4 8.2-19.6 12.5-30.9 12.3l-35.4-0.6v7.6l35.4 0.6c0.3 0 0.6 0 0.9 0 13.4 0 26.8-5.2 37.1-14.3 11.1-9.7 14.3-22.5 14.6-35.9C198 46.5 192.4 32.3 182.2 21.7zM139.9 92.9c-0.3 0-0.6 0-0.6 0l-33.5-0.6L93.5 92l-21.6-0.3c-0.3 0-0.3 0-0.6 0 -8.8 0-16.9 3.2-23.1 9.3 -6.4 6.1-9.9 14.6-10.2 23.3 0 4.7 0.9 9.3 2.6 13.8l0.6 1.5 -1.1-1.5c-4.3-5.8-6.7-12.5-6.7-19.9C33.7 101 48 86.9 65.2 86.9c0.3 0 0.3 0 0.6 0l23.3 0.3v-7.6l-23.3-0.3c-0.3 0-0.6 0-0.6 0 -21.3 0-38.8 17.2-39.1 38.5 0 5.8 1.1 11.4 3.5 16.9l0.9 1.7 -1.1-1.7c-5-6.7-7.6-14.6-7.3-23.1 0.3-20.5 17.2-37.1 37.6-37.1 0.3 0 0.6 0 0.6 0l33.9 0.6 11.9 0.3h0.3l21.6 0.3c0.3 0 0.3 0 0.6 0 8.8 0 16.9-3.2 23.1-9.3 6.4-6.1 9.9-14.6 10.2-23.3 0-4.7-0.9-9.3-2.6-13.8l-0.6-1.5 1.1 1.5c4.3 5.8 6.7 12.5 6.7 19.9 0 8.4-3.5 16.4-9.7 22.2 -5.8 5.8-13.8 9.1-22.2 9.1 -0.3 0-0.3 0-0.6 0l-23.3-0.3v7.6l23.3 0.3c0.3 0 0.6 0 0.6 0 10.2 0 19.9-3.8 27.2-11.1 7.6-7.3 11.7-16.9 11.9-27.4 0-5.8-1.1-11.4-3.5-16.9l-0.9-1.7 1.1 1.7c5 6.7 7.6 14.6 7.3 23.1C177.2 76.3 160.3 92.9 139.9 92.9z"/></svg>