<?xml version="1.0" encoding="iso-8859-1" standalone="yes"?><svg xmlns="http://www.w3.org/2000/svg" x="0" y="0" viewBox="0 0 512 512"><circle style="fill:currentColor;opacity:0.25" cx="256" cy="256" r="200"></circle><rect stroke="currentColor" height="400" x="80" stroke-width="0" width="400" y="48" fill="none" transform=""></rect><path style="fill:currentColor;" d="M391.05,232.97 c-7.125,-20.664 -36.341,-20.664 -42.04,-3.563 c-5.7,17.101 13.539,27.076 43.466,37.053 c29.927,9.976 48.454,36.341 44.891,59.854 s-13.539,54.154 -72.68,54.154 c-36.963,0 -57.505,-23.103 -67.714,-40.429 l33.511,-20.138 c0,0 11.401,24.227 32.777,24.227 c21.377,0 29.927,-7.125 29.927,-23.514 c0,-19.951 -69.118,-27.076 -79.806,-61.279 s3.563,-82.656 53.441,-79.094 c31.175,2.227 48.71,17.535 57.478,28.703 L391.05,232.97  z " visibility="visible"></path><path style="fill:currentColor;" d="M235.714,183.805 c0,0 0,120.421 0,136.81 c0,16.388 -14.251,24.94 -28.502,22.089 c-14.251,-2.85 -20.664,-19.951 -20.664,-19.951 l-32.777,22.089 c0,0 7.125,32.777 52.016,35.628 c44.891,2.85 70.542,-24.227 70.542,-47.029 s0,-149.636 0,-149.636 L235.714,183.805 L235.714,183.805  z " visibility="visible"></path><circle style="fill:currentColor;" cx="90" cy="180" r="64"></circle></svg>
