<?xml version="1.0" encoding="utf-8"?><svg version="1.1" id="Layer_1" xmlns="http://www.w3.org/2000/svg" xmlns:xlink="http://www.w3.org/1999/xlink" x="0px" y="0px" viewBox="0 0 102.85 122.88" style="enable-background:new 0 0 102.85 122.88" xml:space="preserve"><style type="text/css">.st0{fill-rule:evenodd;clip-rule:evenodd;}</style><g><path class="st0" d="M56.91,20.32C67.15,21.4,76.5,25.5,84.05,31.7l5.21-5.44c1.06-1.11,2.84-1.13,3.95-0.06l3.5,3.4 c1.1,1.07,1.12,2.84,0.06,3.94l-5.35,5.58c7.15,8.83,11.44,20.08,11.44,32.32c0,28.4-23.03,51.43-51.43,51.43 C23.03,122.88,0,99.85,0,71.45C0,58.63,4.7,46.9,12.46,37.89l-6.02-5.66c-1.12-1.05-1.15-2.83-0.09-3.94l3.37-3.53 c1.06-1.11,2.83-1.14,3.94-0.09l6.41,6.03c7.81-6.02,17.39-9.84,27.83-10.54V9h-9.9c-1.32,0-2.4-1.08-2.4-2.4V2.4 c0-1.32,1.08-2.4,2.4-2.4h28.8c1.32,0,2.4,1.08,2.4,2.4v4.2c0,1.32-1.08,2.4-2.4,2.4h-9.9V20.32L56.91,20.32z M47.24,52.63h4.39 c0.8,0,1.46,0.66,1.46,1.46v18.35h13.51c0.8,0,1.46,0.66,1.46,1.46v4.39c0,0.8-0.66,1.46-1.46,1.46H45.78V77.6v-5.16V54.09 C45.78,53.28,46.44,52.63,47.24,52.63L47.24,52.63z M51.43,29.69c23.06,0,41.76,18.7,41.76,41.76c0,23.06-18.7,41.76-41.76,41.76 c-23.06,0-41.76-18.7-41.76-41.76C9.67,48.39,28.37,29.69,51.43,29.69L51.43,29.69z"/></g></svg>