<svg version="1.0" xmlns="http://www.w3.org/2000/svg"
 width="120.000000pt" height="120.000000pt" viewBox="0 0 120.000000 120.000000"
 preserveAspectRatio="xMidYMid meet">
<g transform="translate(0.000000,120.000000) scale(0.100000,-0.100000)"
fill="currentColor" stroke="none">
<path d="M546 1175 c-15 -23 -15 -27 0 -50 23 -35 75 -35 98 0 16 24 16 27 -1
50 -26 35 -46 31 -24 -4 13 -20 -5 -51 -29 -51 -22 0 -37 37 -21 53 6 6 11 15
11 19 0 16 -18 7 -34 -17z"/>
<path d="M284 1045 c-15 -23 -15 -27 0 -50 25 -38 79 -35 96 4 9 23 9 33 -2
50 -19 31 -73 29 -94 -4z m76 -10 c10 -12 10 -18 0 -30 -17 -21 -47 -19 -59 3
-19 35 33 58 59 27z"/>
<path d="M797 1047 c-13 -21 -13 -26 1 -50 23 -37 73 -38 96 -2 15 23 15 27 0
50 -22 34 -75 35 -97 2z m79 -9 c11 -12 -7 -48 -25 -48 -26 0 -42 20 -31 40 9
16 43 21 56 8z"/>
<path d="M1006 930 c-14 -22 -26 -43 -26 -46 0 -4 12 -26 28 -50 26 -43 28
-44 80 -44 51 0 53 1 81 46 l30 46 -27 44 c-27 44 -27 44 -83 44 -55 0 -57 -1
-83 -40z m145 -11 c22 -31 22 -32 4 -65 -17 -31 -22 -34 -66 -34 -42 0 -49 3
-67 32 l-20 31 21 33 c19 29 27 34 64 34 35 0 45 -5 64 -31z"/>
<path d="M19 911 c-16 -27 -16 -31 2 -60 16 -26 25 -31 58 -31 33 0 42 5 59
32 21 32 21 32 1 60 -17 23 -28 28 -62 28 -36 0 -44 -4 -58 -29z m101 -6 c20
-24 -6 -65 -40 -65 -44 0 -66 40 -38 68 17 17 63 15 78 -3z"/>
<path d="M546 905 c-15 -23 -15 -27 0 -50 23 -36 73 -35 96 2 14 24 14 29 1
50 -22 33 -75 32 -97 -2z m80 -6 c7 -13 -15 -49 -30 -49 -19 0 -39 27 -33 44
6 15 54 19 63 5z"/>
<path d="M764 798 l-27 -42 25 -44 25 -44 58 0 c56 0 57 0 85 42 l28 42 -27
44 c-26 43 -26 43 -83 44 -57 0 -58 -1 -84 -42z m149 -15 c18 -31 18 -33 1
-63 -17 -27 -23 -30 -69 -30 -48 0 -52 2 -67 33 -15 32 -15 36 4 66 19 29 24
32 66 29 40 -3 49 -7 65 -35z"/>
<path d="M272 784 l-20 -31 20 -31 c17 -27 26 -32 58 -32 32 0 43 6 60 30 l22
30 -20 32 c-16 26 -26 31 -60 32 -34 1 -43 -3 -60 -30z m103 -13 c3 -11 0 -29
-7 -40 -28 -46 -103 -8 -78 39 15 28 76 28 85 1z"/>
<path d="M509 666 l-27 -43 26 -41 c25 -39 29 -41 84 -44 l58 -3 29 46 28 45
-29 42 c-28 41 -30 42 -86 42 -56 -1 -57 -1 -83 -44z m154 -14 c11 -19 16 -37
11 -40 -5 -4 -14 -16 -20 -27 -9 -16 -22 -20 -59 -20 -40 0 -51 4 -68 27 -20
27 -20 28 -1 63 18 35 21 36 68 33 45 -3 52 -7 69 -36z"/>
<path d="M1006 670 c-14 -22 -26 -43 -26 -47 0 -5 12 -25 26 -46 25 -38 26
-38 85 -35 58 3 60 4 84 43 l24 41 -27 42 c-26 41 -28 42 -83 42 -55 0 -57 -1
-83 -40z m148 -12 c18 -29 18 -33 2 -63 -15 -27 -23 -32 -63 -34 -33 -1 -49 3
-59 16 -32 40 -33 48 -12 81 18 29 25 32 67 32 42 0 49 -3 65 -32z"/>
<path d="M21 658 c-20 -32 -20 -33 -1 -63 15 -24 27 -31 58 -33 35 -3 42 1 60
29 19 31 19 32 1 64 -16 26 -26 32 -58 33 -34 2 -42 -2 -60 -30z m99 -13 c13
-16 5 -54 -13 -56 -7 -1 -19 -2 -27 -3 -41 -4 -65 35 -38 62 17 17 63 15 78
-3z"/>
<path d="M765 533 c-14 -21 -25 -42 -25 -48 0 -6 11 -27 25 -48 25 -35 28 -37
83 -37 56 0 58 1 83 41 l27 42 -27 43 c-26 44 -26 44 -83 44 -55 0 -58 -2 -83
-37z m144 -12 c12 -16 21 -32 21 -36 0 -4 -9 -20 -21 -36 -15 -22 -28 -29 -54
-29 -47 0 -64 8 -80 40 -12 24 -12 30 5 58 17 28 25 32 64 32 38 0 48 -4 65
-29z"/>
<path d="M273 518 c-19 -33 -19 -33 0 -66 17 -30 23 -33 59 -30 31 2 43 9 58
33 19 30 19 31 -1 63 -18 27 -27 32 -59 32 -32 0 -41 -5 -57 -32z m97 -13 c17
-20 3 -52 -25 -57 -27 -6 -65 16 -65 36 0 34 66 50 90 21z"/>
<path d="M509 398 l-25 -43 25 -42 c26 -42 27 -42 83 -43 56 0 58 1 86 42 l29
42 -26 43 c-26 42 -26 42 -86 43 l-60 0 -26 -42z m134 9 c35 -36 38 -44 26
-71 -7 -14 -16 -23 -20 -20 -5 3 -9 -2 -9 -10 0 -12 -11 -16 -47 -16 -43 0
-50 3 -65 31 -22 39 -22 41 3 73 16 20 29 26 60 26 22 0 46 -6 52 -13z"/>
<path d="M1005 400 c-14 -22 -25 -42 -25 -45 0 -3 12 -23 26 -45 26 -39 28
-40 83 -40 54 0 57 1 79 38 29 46 29 48 0 95 -22 36 -25 37 -80 37 -56 0 -58
-1 -83 -40z m149 -12 c18 -30 18 -32 1 -65 -18 -32 -21 -34 -69 -31 -41 2 -51
6 -50 20 1 10 -2 15 -7 13 -4 -3 -12 3 -18 13 -7 14 -5 27 9 50 18 29 25 32
68 32 43 0 50 -3 66 -32z"/>
<path d="M21 388 c-20 -32 -20 -33 -1 -63 15 -24 27 -31 58 -33 36 -3 42 0 59
30 19 33 19 33 0 66 -16 27 -25 32 -57 32 -32 0 -41 -5 -59 -32z m100 -14 c21
-26 -1 -49 -47 -49 -33 0 -39 3 -42 24 -2 13 2 28 10 32 21 14 65 10 79 -7z"/>
<path d="M760 267 l-26 -42 29 -42 c28 -42 30 -43 85 -43 57 0 57 0 83 44 l27
43 -27 42 c-26 40 -27 41 -86 41 -60 -1 -60 -1 -85 -43z m149 -3 c27 -34 26
-43 -3 -76 -18 -22 -32 -28 -65 -28 -30 0 -41 4 -41 15 0 8 -4 15 -10 15 -23
0 -29 37 -10 68 17 28 25 32 64 32 36 0 48 -5 65 -26z"/>
<path d="M272 258 l-20 -31 21 -34 c19 -29 26 -33 60 -31 30 2 42 9 57 33 19
30 19 31 -1 63 -18 27 -27 32 -59 32 -32 0 -41 -5 -58 -32z m100 -11 c5 -10 6
-27 3 -38 -5 -16 -14 -20 -42 -17 -48 4 -65 30 -35 56 26 23 61 22 74 -1z"/>
<path d="M510 131 l-29 -45 32 -45 c17 -25 32 -40 35 -33 2 6 -6 26 -18 43
-22 30 -22 31 -4 65 17 31 22 34 66 34 40 0 49 -4 68 -30 l21 -30 -26 -45
c-34 -57 -16 -59 23 -2 l29 42 -27 44 c-27 42 -29 43 -84 45 -57 1 -57 1 -86
-43z"/>
</g>
</svg>
