<?xml version="1.0" encoding="UTF-8"?>
<!DOCTYPE svg PUBLIC "-//W3C//DTD SVG 1.1//EN" "http://www.w3.org/Graphics/SVG/1.1/DTD/svg11.dtd">
<svg xmlns="http://www.w3.org/2000/svg" version="1.1" width="261px" height="262px" style="shape-rendering:geometricPrecision; text-rendering:geometricPrecision; image-rendering:optimizeQuality; fill-rule:evenodd; clip-rule:evenodd" xmlns:xlink="http://www.w3.org/1999/xlink">
<g><path style="opacity:0.996" fill="#000d76" d="M 197.5,34.5 C 207.433,50.1246 213.933,67.1246 217,85.5C 217.822,93.0118 217.655,100.345 216.5,107.5C 215.602,102.466 213.935,97.7994 211.5,93.5C 195.118,87.4011 178.118,85.4011 160.5,87.5C 151.582,85.8476 142.582,84.5143 133.5,83.5C 120.318,82.6203 107.652,84.6203 95.5,89.5C 92.3777,90.5612 89.3777,91.8946 86.5,93.5C 84.7697,94.0256 83.4363,95.0256 82.5,96.5C 80.326,96.7497 78.6594,97.7497 77.5,99.5C 72.5699,102.465 68.2366,106.131 64.5,110.5C 56.83,112.994 50.1633,116.994 44.5,122.5C 40.0931,124.81 38.4264,128.477 39.5,133.5C 39.6209,142.812 41.2875,151.812 44.5,160.5C 46.9272,168.231 50.5938,175.231 55.5,181.5C 59.413,188.082 64.413,193.749 70.5,198.5C 81.0156,207.76 93.0156,214.426 106.5,218.5C 88.8017,219.772 71.8017,216.939 55.5,210C 47.9555,206.396 40.6221,202.563 33.5,198.5C 10.0503,163.634 5.55032,126.301 20,86.5C 37.8024,46.3697 68.3024,22.203 111.5,14C 143.023,9.54902 171.69,16.3823 197.5,34.5 Z"/></g>
<g><path style="opacity:1" fill="#8a90c0" d="M 109.5,31.5 C 112.85,31.335 116.183,31.5017 119.5,32C 123.5,35 123.5,38 119.5,41C 110.293,42.7917 101.293,45.2917 92.5,48.5C 86.4259,47.27 85.0925,44.1033 88.5,39C 95.3421,35.7176 102.342,33.2176 109.5,31.5 Z"/></g>
<g><path style="opacity:0.991" fill="#111e80" d="M 197.5,34.5 C 232.783,60.4096 249.283,95.4096 247,139.5C 242.071,184.88 219.238,217.713 178.5,238C 124.88,258.468 78.3799,247.968 39,206.5C 36.946,203.953 35.1126,201.286 33.5,198.5C 40.6221,202.563 47.9555,206.396 55.5,210C 71.8017,216.939 88.8017,219.772 106.5,218.5C 107.833,218.5 109.167,218.5 110.5,218.5C 121.626,220.793 132.959,221.127 144.5,219.5C 152.106,217.964 159.439,215.631 166.5,212.5C 172.664,209.922 178.33,206.588 183.5,202.5C 189.129,198.539 194.129,193.873 198.5,188.5C 202.914,183.344 206.581,177.677 209.5,171.5C 212.014,167.129 214.014,162.463 215.5,157.5C 220.297,140.865 220.63,124.198 216.5,107.5C 217.655,100.345 217.822,93.0118 217,85.5C 213.933,67.1246 207.433,50.1246 197.5,34.5 Z"/></g>
<g><path style="opacity:1" fill="#8b91c1" d="M 73.5,46.5 C 81.2232,45.3041 83.7232,48.3041 81,55.5C 62.6599,68.1867 49.9932,85.1867 43,106.5C 35.836,109.328 32.836,106.995 34,99.5C 41.6468,77.691 54.8134,60.0243 73.5,46.5 Z"/></g>
<g><path style="opacity:1" fill="#018cf3" d="M 133.5,83.5 C 133.918,84.2216 134.584,84.7216 135.5,85C 125.238,94.9855 113.238,97.9855 99.5,94C 97.6675,93.2515 96.0009,92.2515 94.5,91C 95.056,90.6174 95.3893,90.1174 95.5,89.5C 107.652,84.6203 120.318,82.6203 133.5,83.5 Z"/></g>
<g><path style="opacity:1" fill="#0091f4" d="M 153.5,88.5 C 152.294,89.8804 152.627,91.0471 154.5,92C 156.56,93.6965 158.893,94.8631 161.5,95.5C 170.797,96.9641 180.13,97.9641 189.5,98.5C 190.167,98.1667 190.833,97.8333 191.5,97.5C 195.122,97.952 198.455,98.952 201.5,100.5C 199.167,102.5 196.833,104.5 194.5,106.5C 186.788,104.194 178.788,102.694 170.5,102C 168.122,101.026 168.456,100.359 171.5,100C 165.923,99.6058 160.59,98.2725 155.5,96C 152.706,94.4645 150.706,92.2978 149.5,89.5C 150.833,89.1667 152.167,88.8333 153.5,88.5 Z"/></g>
<g><path style="opacity:1" fill="#0198f6" d="M 211.5,93.5 C 207.846,95.3311 204.513,97.6644 201.5,100.5C 198.455,98.952 195.122,97.952 191.5,97.5C 190.833,97.8333 190.167,98.1667 189.5,98.5C 180.13,97.9641 170.797,96.9641 161.5,95.5C 158.893,94.8631 156.56,93.6965 154.5,92C 152.627,91.0471 152.294,89.8804 153.5,88.5C 156.059,88.8016 158.393,88.4682 160.5,87.5C 178.118,85.4011 195.118,87.4011 211.5,93.5 Z"/></g>
<g><path style="opacity:1" fill="#06a2fc" d="M 211.5,93.5 C 213.935,97.7994 215.602,102.466 216.5,107.5C 220.63,124.198 220.297,140.865 215.5,157.5C 212.52,156.171 209.52,154.838 206.5,153.5C 208.175,148.805 209.842,144.138 211.5,139.5C 213.386,134.606 214.719,129.439 215.5,124C 215.167,123.167 214.833,122.333 214.5,121.5C 205.489,119.83 197.822,115.83 191.5,109.5C 192.167,108.167 193.167,107.167 194.5,106.5C 196.833,104.5 199.167,102.5 201.5,100.5C 204.513,97.6644 207.846,95.3311 211.5,93.5 Z"/></g>
<g><path style="opacity:1" fill="#0368e5" d="M 86.5,93.5 C 93.4662,98.9166 101.466,101.583 110.5,101.5C 112.747,100.626 115.08,100.292 117.5,100.5C 116.167,101.5 114.833,102.5 113.5,103.5C 112.167,103.833 110.833,104.167 109.5,104.5C 101.792,104.321 94.1255,102.821 86.5,100C 84.9069,99.0513 83.5736,97.8846 82.5,96.5C 83.4363,95.0256 84.7697,94.0256 86.5,93.5 Z"/></g>
<g><path style="opacity:1" fill="#0278eb" d="M 133.5,83.5 C 142.582,84.5143 151.582,85.8476 160.5,87.5C 158.393,88.4682 156.059,88.8016 153.5,88.5C 152.167,88.8333 150.833,89.1667 149.5,89.5C 147.94,89.5191 146.44,89.8524 145,90.5C 143.743,90.8499 143.409,91.5165 144,92.5C 146.989,96.4906 150.822,99.324 155.5,101C 165.675,103.752 176.008,105.752 186.5,107C 188.437,107.122 189.77,107.955 190.5,109.5C 187.411,111.925 184.078,113.925 180.5,115.5C 172.747,113.233 164.747,111.567 156.5,110.5C 156.5,109.5 156.5,108.5 156.5,107.5C 147.541,106.188 140.208,102.021 134.5,95C 132.119,94.2615 130.119,94.7615 128.5,96.5C 125.759,96.7073 123.426,97.7073 121.5,99.5C 120.167,99.8333 118.833,100.167 117.5,100.5C 115.08,100.292 112.747,100.626 110.5,101.5C 101.466,101.583 93.4662,98.9166 86.5,93.5C 89.3777,91.8946 92.3777,90.5612 95.5,89.5C 95.3893,90.1174 95.056,90.6174 94.5,91C 96.0009,92.2515 97.6675,93.2515 99.5,94C 113.238,97.9855 125.238,94.9855 135.5,85C 134.584,84.7216 133.918,84.2216 133.5,83.5 Z"/></g>
<g><path style="opacity:1" fill="#0367e5" d="M 180.5,115.5 C 179.035,116.737 177.368,117.737 175.5,118.5C 175.167,118.5 174.833,118.5 174.5,118.5C 164.86,114.815 154.86,111.649 144.5,109C 137.787,106.438 132.454,102.271 128.5,96.5C 130.119,94.7615 132.119,94.2615 134.5,95C 140.208,102.021 147.541,106.188 156.5,107.5C 156.5,108.5 156.5,109.5 156.5,110.5C 164.747,111.567 172.747,113.233 180.5,115.5 Z"/></g>
<g><path style="opacity:1" fill="#0187f2" d="M 149.5,89.5 C 150.706,92.2978 152.706,94.4645 155.5,96C 160.59,98.2725 165.923,99.6058 171.5,100C 168.456,100.359 168.122,101.026 170.5,102C 178.788,102.694 186.788,104.194 194.5,106.5C 193.167,107.167 192.167,108.167 191.5,109.5C 191.167,109.5 190.833,109.5 190.5,109.5C 189.77,107.955 188.437,107.122 186.5,107C 176.008,105.752 165.675,103.752 155.5,101C 150.822,99.324 146.989,96.4906 144,92.5C 143.409,91.5165 143.743,90.8499 145,90.5C 146.44,89.8524 147.94,89.5191 149.5,89.5 Z"/></g>
<g><path style="opacity:1" fill="#0450db" d="M 121.5,99.5 C 128.191,106.856 136.525,111.689 146.5,114C 153.437,115.656 160.437,116.99 167.5,118C 169.119,118.236 170.119,119.069 170.5,120.5C 168.035,120.767 165.701,121.434 163.5,122.5C 163.389,121.883 163.056,121.383 162.5,121C 151.262,119.774 140.262,117.44 129.5,114C 123.559,111.212 118.226,107.712 113.5,103.5C 114.833,102.5 116.167,101.5 117.5,100.5C 118.833,100.167 120.167,99.8333 121.5,99.5 Z"/></g>
<g><path style="opacity:1" fill="#054fdb" d="M 77.5,99.5 C 79.428,101.474 81.7613,102.974 84.5,104C 91.3376,105.945 98.0043,107.112 104.5,107.5C 103.167,108.833 101.833,110.167 100.5,111.5C 99.5,111.5 98.5,111.5 97.5,111.5C 95.5242,109.989 93.1909,109.156 90.5,109C 84.8431,108.501 79.1764,108.334 73.5,108.5C 70.4021,108.756 67.4021,109.422 64.5,110.5C 68.2366,106.131 72.5699,102.465 77.5,99.5 Z"/></g>
<g><path style="opacity:1" fill="#045be0" d="M 82.5,96.5 C 83.5736,97.8846 84.9069,99.0513 86.5,100C 94.1255,102.821 101.792,104.321 109.5,104.5C 108.341,106.25 106.674,107.25 104.5,107.5C 98.0043,107.112 91.3376,105.945 84.5,104C 81.7613,102.974 79.428,101.474 77.5,99.5C 78.6594,97.7497 80.326,96.7497 82.5,96.5 Z"/></g>
<g><path style="opacity:1" fill="#0542d5" d="M 113.5,103.5 C 118.226,107.712 123.559,111.212 129.5,114C 140.262,117.44 151.262,119.774 162.5,121C 163.056,121.383 163.389,121.883 163.5,122.5C 161.784,122.629 160.117,122.962 158.5,123.5C 155.518,123.963 152.518,124.296 149.5,124.5C 144.5,124.5 139.5,124.5 134.5,124.5C 131.655,123.656 128.655,122.99 125.5,122.5C 121.442,121.37 117.442,120.036 113.5,118.5C 109.039,116.436 104.706,114.102 100.5,111.5C 101.833,110.167 103.167,108.833 104.5,107.5C 106.674,107.25 108.341,106.25 109.5,104.5C 110.833,104.167 112.167,103.833 113.5,103.5 Z"/></g>
<g><path style="opacity:1" fill="#0273fc" d="M 73.5,108.5 C 79.1764,108.334 84.8431,108.501 90.5,109C 93.1909,109.156 95.5242,109.989 97.5,111.5C 98.1254,126.583 104.459,138.749 116.5,148C 137.006,161.689 157.339,175.522 177.5,189.5C 176.375,191.129 175.041,192.629 173.5,194C 176.432,197.442 179.765,200.275 183.5,202.5C 178.33,206.588 172.664,209.922 166.5,212.5C 164.526,209.518 162.526,206.518 160.5,203.5C 161.549,201.784 162.882,200.451 164.5,199.5C 166.426,198.758 168.259,197.758 170,196.5C 170.667,195.5 170.667,194.5 170,193.5C 152.784,179.469 134.284,167.302 114.5,157C 98.2366,146.737 85.4032,133.237 76,116.5C 74.8644,113.904 74.031,111.237 73.5,108.5 Z"/></g>
<g><path style="opacity:1" fill="#006dfb" d="M 73.5,108.5 C 74.031,111.237 74.8644,113.904 76,116.5C 85.4032,133.237 98.2366,146.737 114.5,157C 134.284,167.302 152.784,179.469 170,193.5C 170.667,194.5 170.667,195.5 170,196.5C 168.259,197.758 166.426,198.758 164.5,199.5C 159.807,193.982 154.474,189.149 148.5,185C 113.379,166.276 79.0457,146.276 45.5,125C 44.7476,124.329 44.4142,123.496 44.5,122.5C 50.1633,116.994 56.83,112.994 64.5,110.5C 67.4021,109.422 70.4021,108.756 73.5,108.5 Z"/></g>
<g><path style="opacity:1" fill="#009ffd" d="M 190.5,109.5 C 190.833,109.5 191.167,109.5 191.5,109.5C 197.822,115.83 205.489,119.83 214.5,121.5C 214.833,122.333 215.167,123.167 215.5,124C 214.719,129.439 213.386,134.606 211.5,139.5C 199.411,136.122 188.411,130.622 178.5,123C 177.117,121.729 176.117,120.229 175.5,118.5C 177.368,117.737 179.035,116.737 180.5,115.5C 184.078,113.925 187.411,111.925 190.5,109.5 Z"/></g>
<g><path style="opacity:1" fill="#035ce0" d="M 128.5,96.5 C 132.454,102.271 137.787,106.438 144.5,109C 154.86,111.649 164.86,114.815 174.5,118.5C 173.167,119.167 171.833,119.833 170.5,120.5C 170.119,119.069 169.119,118.236 167.5,118C 160.437,116.99 153.437,115.656 146.5,114C 136.525,111.689 128.191,106.856 121.5,99.5C 123.426,97.7073 125.759,96.7073 128.5,96.5 Z"/></g>
<g><path style="opacity:1" fill="#0079fc" d="M 97.5,111.5 C 98.5,111.5 99.5,111.5 100.5,111.5C 104.706,114.102 109.039,116.436 113.5,118.5C 112.405,121.717 112.571,125.05 114,128.5C 119.348,139.516 127.181,148.349 137.5,155C 153.39,163.77 168.39,173.77 182.5,185C 181.281,187.055 179.614,188.555 177.5,189.5C 157.339,175.522 137.006,161.689 116.5,148C 104.459,138.749 98.1254,126.583 97.5,111.5 Z"/></g>
<g><path style="opacity:1" fill="#0480fc" d="M 113.5,118.5 C 117.442,120.036 121.442,121.37 125.5,122.5C 127.002,132.18 131.669,140.013 139.5,146C 156.026,156.761 172.693,167.261 189.5,177.5C 188.2,178.601 187.7,179.934 188,181.5C 191.128,184.474 194.628,186.807 198.5,188.5C 194.129,193.873 189.129,198.539 183.5,202.5C 179.765,200.275 176.432,197.442 173.5,194C 175.041,192.629 176.375,191.129 177.5,189.5C 179.614,188.555 181.281,187.055 182.5,185C 168.39,173.77 153.39,163.77 137.5,155C 127.181,148.349 119.348,139.516 114,128.5C 112.571,125.05 112.405,121.717 113.5,118.5 Z"/></g>
<g><path style="opacity:1" fill="#0398fd" d="M 174.5,118.5 C 174.833,118.5 175.167,118.5 175.5,118.5C 176.117,120.229 177.117,121.729 178.5,123C 188.411,130.622 199.411,136.122 211.5,139.5C 209.842,144.138 208.175,148.805 206.5,153.5C 209.52,154.838 212.52,156.171 215.5,157.5C 214.014,162.463 212.014,167.129 209.5,171.5C 206.366,170.099 203.366,168.432 200.5,166.5C 199.708,165.3 199.708,163.967 200.5,162.5C 202.335,159.816 204.002,156.983 205.5,154C 190.576,147.754 176.576,139.92 163.5,130.5C 161.578,128.313 159.912,125.98 158.5,123.5C 160.117,122.962 161.784,122.629 163.5,122.5C 165.701,121.434 168.035,120.767 170.5,120.5C 171.833,119.833 173.167,119.167 174.5,118.5 Z"/></g>
<g><path style="opacity:1" fill="#0086fd" d="M 125.5,122.5 C 128.655,122.99 131.655,123.656 134.5,124.5C 137.416,131.926 142.083,138.093 148.5,143C 162.837,152.171 177.504,160.837 192.5,169C 193.357,169.689 194.023,170.522 194.5,171.5C 193.291,173.941 191.624,175.941 189.5,177.5C 172.693,167.261 156.026,156.761 139.5,146C 131.669,140.013 127.002,132.18 125.5,122.5 Z"/></g>
<g><path style="opacity:1" fill="#0167fb" d="M 44.5,122.5 C 44.4142,123.496 44.7476,124.329 45.5,125C 79.0457,146.276 113.379,166.276 148.5,185C 154.474,189.149 159.807,193.982 164.5,199.5C 162.882,200.451 161.549,201.784 160.5,203.5C 162.526,206.518 164.526,209.518 166.5,212.5C 159.439,215.631 152.106,217.964 144.5,219.5C 145.276,216.809 144.609,214.309 142.5,212C 144.577,210.295 146.91,209.128 149.5,208.5C 152.301,207.265 154.968,205.765 157.5,204C 147.245,193.201 135.245,184.868 121.5,179C 100.662,169.053 78.8288,162.553 56,159.5C 52.27,160.46 48.4367,160.793 44.5,160.5C 41.2875,151.812 39.6209,142.812 39.5,133.5C 38.4264,128.477 40.0931,124.81 44.5,122.5 Z"/></g>
<g><path style="opacity:1" fill="#048cfd" d="M 134.5,124.5 C 139.5,124.5 144.5,124.5 149.5,124.5C 148.391,125.29 147.058,125.79 145.5,126C 147.407,129.91 150.073,133.244 153.5,136C 168.281,146.391 183.948,155.224 200.5,162.5C 199.708,163.967 199.708,165.3 200.5,166.5C 203.366,168.432 206.366,170.099 209.5,171.5C 206.581,177.677 202.914,183.344 198.5,188.5C 194.628,186.807 191.128,184.474 188,181.5C 187.7,179.934 188.2,178.601 189.5,177.5C 191.624,175.941 193.291,173.941 194.5,171.5C 194.023,170.522 193.357,169.689 192.5,169C 177.504,160.837 162.837,152.171 148.5,143C 142.083,138.093 137.416,131.926 134.5,124.5 Z"/></g>
<g><path style="opacity:1" fill="#0092fd" d="M 158.5,123.5 C 159.912,125.98 161.578,128.313 163.5,130.5C 176.576,139.92 190.576,147.754 205.5,154C 204.002,156.983 202.335,159.816 200.5,162.5C 183.948,155.224 168.281,146.391 153.5,136C 150.073,133.244 147.407,129.91 145.5,126C 147.058,125.79 148.391,125.29 149.5,124.5C 152.518,124.296 155.518,123.963 158.5,123.5 Z"/></g>
<g><path style="opacity:1" fill="#0060fa" d="M 149.5,208.5 C 145.158,201.977 139.491,196.81 132.5,193C 111.032,180.548 88.0317,175.881 63.5,179C 60.7084,179.542 58.0417,180.376 55.5,181.5C 50.5938,175.231 46.9272,168.231 44.5,160.5C 48.4367,160.793 52.27,160.46 56,159.5C 78.8288,162.553 100.662,169.053 121.5,179C 135.245,184.868 147.245,193.201 157.5,204C 154.968,205.765 152.301,207.265 149.5,208.5 Z"/></g>
<g><path style="opacity:1" fill="#025af9" d="M 149.5,208.5 C 146.91,209.128 144.577,210.295 142.5,212C 144.609,214.309 145.276,216.809 144.5,219.5C 132.959,221.127 121.626,220.793 110.5,218.5C 121.466,218.066 131.8,215.399 141.5,210.5C 133.133,201.412 122.8,195.578 110.5,193C 97.1589,188.969 84.1589,189.969 71.5,196C 70.7476,196.671 70.4142,197.504 70.5,198.5C 64.413,193.749 59.413,188.082 55.5,181.5C 58.0417,180.376 60.7084,179.542 63.5,179C 88.0317,175.881 111.032,180.548 132.5,193C 139.491,196.81 145.158,201.977 149.5,208.5 Z"/></g>
<g><path style="opacity:1" fill="#0052f8" d="M 110.5,218.5 C 109.167,218.5 107.833,218.5 106.5,218.5C 93.0156,214.426 81.0156,207.76 70.5,198.5C 70.4142,197.504 70.7476,196.671 71.5,196C 84.1589,189.969 97.1589,188.969 110.5,193C 122.8,195.578 133.133,201.412 141.5,210.5C 131.8,215.399 121.466,218.066 110.5,218.5 Z"/></g>
</svg>
