<svg width="278" height="278" viewBox="0 0 250 278" fill="none" xmlns="http://www.w3.org/2000/svg">
<path d="M122.222 127.504L23.3996 71.0796C18.5633 68.3182 18.5334 61.3555 23.346 58.5528L122.199 0.982327C124.442 -0.3236 127.212 -0.32769 129.458 0.971606L228.12 58.0407C232.937 60.8269 232.933 67.7821 228.112 70.5624L129.42 127.488C127.194 128.772 124.454 128.778 122.222 127.504Z" fill="#E6007A"/>
<path d="M246.368 219.626L148.092 276.997C143.282 279.805 137.237 276.349 137.216 270.78L136.785 156.385C136.776 153.791 138.157 151.389 140.406 150.094L239.16 93.1846C243.981 90.4063 250.002 93.8876 250 99.4522L249.953 213.385C249.952 215.955 248.587 218.331 246.368 219.626Z" fill="#E6007A"/>
<path d="M113.198 156.338L113.745 270.133C113.771 275.702 107.756 279.21 102.923 276.443L3.63874 219.619C1.38658 218.33 -0.00209701 215.933 2.37701e-06 213.338L0.0923778 99.3597C0.0968919 93.7951 6.12245 90.3212 10.9404 93.1055L109.586 150.113C111.81 151.399 113.186 153.769 113.198 156.338Z" fill="#E6007A"/>
</svg>
